<?xml version="1.0" encoding="UTF-8"?>
<!-- Generated by @neplex/vectorizer (Using visioncortex VTracer) -->
<svg version="1.1" xmlns="http://www.w3.org/2000/svg" width="864" height="1184" viewBox="0 0 864 1184">


<path d="M0 0 C0.66 0.99 1.32 1.98 2 3 C4.6562 3.4086 7.3247 3.7452 10 4 C10.33 4.33 10.66 4.66 11 5 C11.9178 5.1547 11.9178 5.1547 16.5625 5.9375 C18.3569 6.2881 20.1513 6.6388 22 7 C22 7.66 22 8.32 22 9 C23.0519 9.0619 24.1037 9.1237 25.1875 9.1875 C34.3863 10.7405 42.3011 14.4725 50.1875 19.3125 C56.7593 22.8697 59.7414 23.8798 67 23 C67 22.34 67 21.68 67 21 C81.433 14.8144 91.1422 13.0548 105 21 C105.66 21.66 105.66 21.66 109 25 C110.65 25.99 112.3 26.98 114 28 C114.33 28.99 114.66 29.98 115 31 C116.98 31.66 118.96 32.32 121 33 C122.5675 33.9488 124.135 34.8975 125.75 35.875 C130.7551 38.8542 135.5821 40.9006 141 43 C144.3413 44.6505 147.6753 46.3161 151 48 C153.31 48.99 155.62 49.98 158 51 C161 53 161 53 161 55 C161.66 55 162.32 55 163 55 C167 59 167 59 167 62 C167.66 62 168.32 62 169 62 C176.6051 78.6726 171.1013 102.8902 167 120 C166.34 120 165.68 120 165 120 C164.67 122.31 164.34 124.62 164 127 C162 129 162 129 159 129 C159 129.66 159 130.32 159 131 C150.4943 132.7011 143.1614 128.456 136 124 C136.7013 126.0419 137.4025 128.0838 138.125 130.1875 C141.4092 140.0307 144.251 149.9956 147 160 C147.3867 161.3896 147.7734 162.7792 148.1719 164.2109 C149.4618 170.1127 149.0515 175.975 149 182 C149.3479 188.2034 149.8374 194.1466 151 200.25 C152.3197 207.8385 152.6307 215.3068 153 223 C153.66 223 154.32 223 155 223 C157.6041 227.3191 159.7731 231.0924 161 236 C161.66 236 162.32 236 163 236 C164.4089 239.3021 165.7351 242.6401 167 246 C167.66 247.65 168.32 249.3 169 251 C169 251.99 169 252.98 169 254 C169.66 254 170.32 254 171 254 C172.3802 258.3186 173.708 262.6542 175 267 C175.99 269.31 176.98 271.62 178 274 C179.0564 277.9855 180.0433 281.9894 181 286 C181.203 286.7689 181.203 286.7689 182.2305 290.6602 C186.1399 305.5986 188.1535 319.4955 188 335 C188.2269 337.1037 188.4538 339.2075 188.6875 341.375 C189.0515 349.0926 187.7261 355.4791 186 363 C184.2367 371.0335 182.5644 378.723 183 387 C183.66 387 184.32 387 185 387 C187.5979 396.9758 188.6475 406.697 189 417 C189.1237 419.4337 189.2475 421.8675 189.375 424.375 C188.7224 437.6442 184.6869 450.0114 179 462 C178.34 462 177.68 462 177 462 C176.67 463.98 176.34 465.96 176 468 C174.0625 472.375 174.0625 472.375 172 476 C171.34 476 170.68 476 170 476 C171 480 171 480 175 482 C177 487 177 487 176 494 C156.8601 503.4624 135.4157 504.1468 115 499 C107.1899 493.7199 107 491.549 107 482 C106.34 482 105.68 482 105 482 C103.1368 488.5211 102.8347 493.3055 103 500 C103.66 500 104.32 500 105 500 C107.0238 506.0714 107.3147 508.8649 106 515 C87.9316 529.4547 52.6579 525.2156 32 519 C32 518.34 32 517.68 32 517 C30.02 516.67 28.04 516.34 26 516 C20.2887 509.7029 22.1659 502.9564 23 495 C23.2052 491.5427 23.3924 488.0842 23.5625 484.625 C23.6463 482.9879 23.7301 481.3508 23.8164 479.6641 C23.877 478.4549 23.9376 477.2458 24 476 C24.66 476 25.32 476 26 476 C26.33 474.35 26.66 472.7 27 471 C26.34 471 25.68 471 25 471 C25 466.71 25 462.42 25 458 C23.3706 458.7838 21.7412 459.5675 20.0625 460.375 C14 463 14 463 5 465 C2.0803 465.6922 -0.8395 466.3845 -3.8477 467.0977 C-26.1834 471.2829 -50.7276 470.9211 -73 466 C-74.815 465.6249 -76.63 465.2498 -78.5 464.8633 C-89.8627 462.3619 -99.0127 458.9924 -109 453 C-108.7319 454.155 -108.4638 455.31 -108.1875 456.5 C-101.3332 488.2465 -101.3332 488.2465 -106 500 C-106.66 500 -107.32 500 -108 500 C-108 500.99 -108 501.98 -108 503 C-108.66 503 -109.32 503 -110 503 C-110 504.32 -110 505.64 -110 507 C-110.66 507 -111.32 507 -112 507 C-112 507.66 -112 508.32 -112 509 C-115 512 -115 512 -117 512 C-117 512.66 -117 513.32 -117 514 C-136.8192 522.7205 -171.946 523.5946 -192 515 C-196.0027 509.6631 -196.615 505.4598 -195 499 C-196.7725 499.0232 -198.5449 499.0464 -200.3711 499.0703 C-201.5371 499.0793 -201.5371 499.0793 -207.4375 499.125 C-209.7462 499.1482 -212.0549 499.1714 -214.4336 499.1953 C-226.0115 498.8509 -233.3368 497.1959 -241 488 C-240.9301 482.8309 -240.3138 479.6277 -238 475 C-237.34 475 -236.68 475 -236 475 C-235.67 474.34 -235.67 474.34 -234 471 C-233.175 470.34 -233.175 470.34 -229 467 C-231 463 -231 463 -234 459 C-234 457.68 -234 456.36 -234 455 C-234.99 454.67 -235.98 454.34 -237 454 C-238.4299 451.0448 -239.7426 448.0326 -241 445 C-241.825 443.2675 -242.65 441.535 -243.5 439.75 C-249.3436 426.3097 -252.2839 413.6647 -252.25 399.0625 C-252.2552 396.8466 -252.2603 394.6307 -252.2656 392.3477 C-252.0264 386.6313 -251.2938 381.5564 -250 376 C-249.67 374.35 -249.34 372.7 -249 371 C-248.34 371 -247.68 371 -247 371 C-247.5605 365.6754 -248.5094 361.2171 -250 356 C-253.6432 337.0654 -256.9106 312.8212 -248 295 C-248.66 294.67 -249.32 294.34 -250 294 C-247.8668 277.1959 -244.5827 257.374 -235 243 C-234.34 243 -233.68 243 -233 243 C-233.4744 241.7419 -233.9487 240.4837 -234.4375 239.1875 C-236.0817 233.7287 -236.5748 228.6688 -237 223 C-237.33 222.67 -237.66 222.34 -238 222 C-237.7109 217.6635 -237.3783 213.3296 -237 209 C-236.34 209 -235.68 209 -235 209 C-235.33 208.175 -235.33 208.175 -237 204 C-236.5455 190.3636 -236.5455 190.3636 -234 184 C-233.8543 182.64 -233.7087 181.2801 -233.5586 179.8789 C-232.9249 174.3441 -231.5929 169.2919 -230.0625 163.9375 C-229.5379 162.0696 -229.0132 160.2018 -228.4727 158.2773 C-228.2297 157.5716 -228.2297 157.5716 -227 154 C-226.34 154 -225.68 154 -225 154 C-224.9691 153.2369 -224.9691 153.2369 -224.8125 149.375 C-223.8635 141.9289 -221.6992 135.9901 -219 129 C-219.33 129.33 -219.66 129.66 -220 130 C-227.4694 136 -227.4694 136 -232 136 C-232 136.66 -232 137.32 -232 138 C-238.4027 141.2013 -243.4461 140.6216 -250 138 C-254.8218 130.0096 -256 123.2813 -256 114 C-256.66 114 -257.32 114 -258 114 C-262.5053 95.4589 -265.447 77.9793 -250.8125 64 C-244.3278 59.5374 -237.7144 56.3583 -230.5703 53.0938 C-221.3701 48.879 -213.2566 43.8145 -205 38 C-204.34 38 -203.68 38 -203 38 C-203 37.34 -203 36.68 -203 36 C-197 32 -197 32 -194 32 C-194 31.01 -194 30.02 -194 29 C-191.0217 27.6188 -188.0196 26.2884 -185 25 C-184.01 24.01 -183.02 23.02 -182 22 C-173.4937 19.8734 -166.2025 21.5765 -158 24 C-158 24.66 -158 25.32 -158 26 C-155.69 26.33 -153.38 26.66 -151 27 C-150.505 27.33 -150.505 27.33 -148 29 C-142.6534 27.9307 -140.3372 26.1325 -136 23 C-135.01 23 -134.02 23 -133 23 C-133 22.34 -133 21.68 -133 21 C-125.7327 17.4628 -118.4283 14.1836 -111 11 C-109.68 10.34 -108.36 9.68 -107 9 C-105.0406 8.5669 -103.0813 8.1338 -101.0625 7.6875 C-95 6 -95 6 -90 1 C-83.6216 -3 -83.6216 -3 -81 -3 C-81 -3.66 -81 -4.32 -81 -5 C-59.5948 -11.3285 -17.2928 -16.9399 0 0 Z M5 10 C5.33 11.32 5.66 12.64 6 14 C8.6708 26.0971 8.9068 34.1165 1 44 C-5 46 -5 46 -12 44 C-12.33 43.34 -12.66 42.68 -13 42 C-13.66 42 -14.32 42 -15 42 C-15 41.34 -15 40.68 -15 40 C-15.66 40 -16.32 40 -17 40 C-17 38.35 -17 36.7 -17 35 C-20 35 -20 35 -23.1875 38.75 C-26.9827 42.9807 -29.9146 44.6803 -35 47 C-35 47.66 -35 48.32 -35 49 C-44.1715 50.3102 -50.595 51.2025 -59 47 C-60.3963 42.4936 -61 38.7107 -61 34 C-66.4336 35.8112 -71.6894 37.862 -77 40 C-84.2719 42.424 -91.1236 40.9763 -98 38 C-103.7316 30.8355 -102.832 26.496 -100 18 C-99.34 16.68 -98.68 15.36 -98 14 C-106.5688 16.4482 -114.7317 19.6927 -123 23 C-123.66 23 -124.32 23 -125 23 C-125.66 23.99 -126.32 24.98 -127 26 C-131.6325 28.4005 -136.3008 30.7329 -141 33 C-142.32 33.66 -143.64 34.32 -145 35 C-145 35.66 -145 36.32 -145 37 C-146.32 37.33 -147.64 37.66 -149 38 C-149 38.66 -149 39.32 -149 40 C-150.65 40.33 -152.3 40.66 -154 41 C-155.98 41.66 -157.96 42.32 -160 43 C-159.67 41.35 -159.34 39.7 -159 38 C-157.68 37.67 -156.36 37.34 -155 37 C-154.67 36.835 -154.67 36.835 -153 36 C-153 35.34 -153 34.68 -153 34 C-152.34 34 -151.68 34 -151 34 C-151 33.34 -151 32.68 -151 32 C-170.0183 26.0172 -180.4258 27.0806 -195.8555 40.3711 C-203.8999 47.0965 -212.5181 52.5153 -222 57 C-226.0519 59.2584 -230.0215 61.6129 -234 64 C-234.825 64.165 -234.825 64.165 -239 65 C-239 65.66 -239 66.32 -239 67 C-239.66 67.165 -239.66 67.165 -243 68 C-249 71 -249 71 -250 74 C-250.66 74 -251.32 74 -252 74 C-258.8897 87.7794 -252.2056 111.0449 -248 125 C-247.67 126.98 -247.34 128.96 -247 131 C-246.34 131 -245.68 131 -245 131 C-245 131.66 -245 132.32 -245 133 C-235.5527 133 -232.4023 130.5517 -225 125 C-225 124.34 -225 123.68 -225 123 C-224.34 123 -223.68 123 -223 123 C-223 122.34 -223 121.68 -223 121 C-222.34 120.67 -222.34 120.67 -219 119 C-218.34 117.68 -217.68 116.36 -217 115 C-216.34 114.835 -216.34 114.835 -213 114 C-213 112.68 -213 111.36 -213 110 C-212.34 110 -211.68 110 -211 110 C-206 101.7857 -206 101.7857 -206 98 C-205.34 98 -204.68 98 -204 98 C-203.835 97.34 -203.835 97.34 -203 94 C-202.34 93.67 -201.68 93.34 -201 93 C-200.5669 91.4944 -200.1338 89.9887 -199.6875 88.4375 C-198.0693 83.2232 -195.9866 79.5202 -193 75 C-193 74.34 -193 73.68 -193 73 C-192.34 73 -191.68 73 -191 73 C-190.34 71.35 -189.68 69.7 -189 68 C-182.5491 63.1618 -178.4567 64.108 -171 66 C-173 71 -173 71 -177.4375 71.6875 C-178.1903 71.7391 -178.1903 71.7391 -182 72 C-185 74 -185 74 -185 79 C-185.66 79 -186.32 79 -187 79 C-187 79.66 -187 80.32 -187 81 C-187.66 81.33 -187.66 81.33 -191 83 C-191.33 84.65 -191.66 86.3 -192 88 C-191.34 88 -190.68 88 -190 88 C-190 88.99 -190 89.98 -190 91 C-191.65 91 -193.3 91 -195 91 C-199 100.2973 -199 100.2973 -199 104 C-199.66 104 -200.32 104 -201 104 C-201.99 105.98 -202.98 107.96 -204 110 C-204.6084 110.8663 -204.6084 110.8663 -207.6875 115.25 C-211 120 -211 120 -211 122 C-211.66 122.33 -211.66 122.33 -215 124 C-216.7282 127.4563 -216.3745 131.3104 -216.5625 135.125 C-216.6463 136.7776 -216.7301 138.4302 -216.8164 140.1328 C-216.8467 140.7709 -216.8467 140.7709 -217 144 C-217.66 144 -218.32 144 -219 144 C-219.2269 146.1244 -219.4538 148.2487 -219.6875 150.4375 C-220.6596 157.8646 -222.6062 164.6919 -224.8281 171.8281 C-226.5078 177.8079 -227.2538 183.8442 -228 190 C-228.33 191.32 -228.66 192.64 -229 194 C-231.0145 227.1562 -221.957 254.3653 -200 279 C-198.68 280.65 -197.36 282.3 -196 284 C-195.34 284 -194.68 284 -194 284 C-194 284.66 -194 285.32 -194 286 C-191 289 -191 289 -189 289 C-189 289.66 -189 290.32 -189 291 C-186.7255 292.8658 -184.3778 294.6428 -182 296.375 C-181.3503 296.8532 -181.3503 296.8532 -178.0625 299.2734 C-166.7581 306.8604 -153.3242 312.3352 -140 315 C-132.5024 317.3026 -125.214 319.9083 -118 323 C-117.34 322.67 -116.68 322.34 -116 322 C-116.33 322.99 -116.66 323.98 -117 325 C-121.9181 323.8812 -126.8344 322.7548 -131.75 321.625 C-134.488 320.9985 -137.2259 320.372 -140.0469 319.7266 C-147 318 -147 318 -151 316 C-153.31 315.34 -155.62 314.68 -158 314 C-160.31 313.34 -162.62 312.68 -165 312 C-166.32 312 -167.64 312 -169 312 C-169 311.34 -169 310.68 -169 310 C-172.3301 308.6587 -175.6641 307.3268 -179 306 C-183.1434 303.5881 -186.9958 301.0031 -190.875 298.1875 C-194 296 -194 296 -196 296 C-196 295.34 -196 294.68 -196 294 C-197.32 293.67 -198.64 293.34 -200 293 C-200 292.34 -200 291.68 -200 291 C-200.66 291 -201.32 291 -202 291 C-204 287 -204 287 -205 284 C-205.99 284 -206.98 284 -208 284 C-208 283.34 -208 282.68 -208 282 C-208.66 282 -209.32 282 -210 282 C-210 281.34 -210 280.68 -210 280 C-210.66 280 -211.32 280 -212 280 C-212 279.34 -212 278.68 -212 278 C-213.65 276.35 -215.3 274.7 -217 273 C-220 269 -220 269 -222 264 C-222.99 262.02 -223.98 260.04 -225 258 C-225.66 258 -226.32 258 -227 258 C-227.33 256.02 -227.66 254.04 -228 252 C-228.33 251.175 -228.33 251.175 -230 247 C-230.66 247 -231.32 247 -232 247 C-234.3239 251.6478 -235.0122 255.9031 -236 261 C-236.8033 263.94 -237.6161 266.8775 -238.4375 269.8125 C-243.4691 289.8944 -249.6852 320.9444 -243 341 C-242.6111 344.392 -242.2622 347.7887 -241.9375 351.1875 C-241.7609 353.0167 -241.5843 354.8459 -241.4023 356.7305 C-241.2696 358.1394 -241.1368 359.5484 -241 361 C-240.34 361 -239.68 361 -239 361 C-239.0825 362.1962 -239.165 363.3925 -239.25 364.625 C-238.6736 377.0184 -233.601 387.2207 -228 398 C-227.835 398.66 -227.835 398.66 -227 402 C-226.34 402 -225.68 402 -225 402 C-224.67 403.65 -224.34 405.3 -224 407 C-218.8842 421.4172 -212.0458 434.5008 -204.0469 447.4922 C-201.3229 452.1604 -199.2243 457.0795 -197 462 C-196.34 462 -195.68 462 -195 462 C-194.34 463.98 -193.68 465.96 -193 468 C-192.67 468.66 -192.67 468.66 -191 472 C-190.34 472 -189.68 472 -189 472 C-188.67 473.32 -188.34 474.64 -188 476 C-185.6875 481.25 -185.6875 481.25 -183 486 C-181.68 486 -180.36 486 -179 486 C-181.3401 490.9309 -183.5538 494.6922 -187 499 C-189 503.625 -189 503.625 -190 508 C-186 511 -186 511 -182 511 C-182 511.66 -182 512.32 -182 513 C-177.0625 513.0625 -177.0625 513.0625 -172 512 C-171.125 507.875 -171.125 507.875 -171 503 C-168.3411 496.7959 -167.7227 496.2409 -161 494 C-161 494.99 -161 495.98 -161 497 C-161.66 497 -162.32 497 -163 497 C-166 504 -166 504 -166 513 C-159.4 513 -152.8 513 -146 513 C-145.67 510.03 -145.34 507.06 -145 504 C-141 499 -141 499 -137 498 C-137 498.99 -137 499.98 -137 501 C-137.66 501 -138.32 501 -139 501 C-141 507 -141 507 -141 512 C-131.4295 513.5951 -124.3724 508.8979 -117 503 C-108.3286 488.275 -111.2001 476.2698 -114.0625 459.9375 C-116.4115 445.0606 -116.9676 431.5478 -113 417 C-113 416.01 -113 415.02 -113 414 C-112.34 414 -111.68 414 -111 414 C-111 413.34 -111 412.68 -111 412 C-110.01 412 -109.02 412 -108 412 C-108.4286 416.0007 -108.933 419.7636 -110.0312 423.6406 C-111.1456 428.6551 -111.2552 433.1169 -111.125 438.25 C-111.107 439.9877 -111.0889 441.7253 -111.0703 443.5156 C-109.3242 450.8313 -104.4854 451.17 -97.8711 453.3789 C-80.1242 458.1166 -62.2979 460.0019 -44 461 C-42.35 461.33 -40.7 461.66 -39 462 C-18.5241 461.7663 5.3754 461.3123 24 452 C24.0625 448.75 24.0625 448.75 23 444 C22.8866 443.369 22.8866 443.369 22.3125 440.1758 C20.3023 429.1512 20.3023 429.1512 18 428 C17.67 426.35 17.34 424.7 17 423 C15.6832 420.3252 14.3502 417.6582 13 415 C12.67 413.68 12.34 412.36 12 411 C22.4408 413.6102 24.7849 428.2195 27.6875 437.25 C32.0053 456.166 32.6408 475.9537 29 495 C28.6777 507.0331 28.6777 507.0331 30 511 C37.401 515.4406 42.2999 516 51 516 C50 509 50 509 47 503 C52 504 52 504 54 508 C54.3938 510.9927 54.7347 513.9932 55 517 C71.3478 517.1739 71.3478 517.1739 78 516 C79.7623 508.9508 78.5544 505.168 75 499 C74.34 499 73.68 499 73 499 C73 498.01 73 497.02 73 496 C82.6716 500.145 83.3001 504.1929 85 514 C96.625 513.375 96.625 513.375 100 510 C99 505 99 505 97 499 C97.2574 486.2573 100.7627 476.9153 107 466 C108.3454 463.3394 109.6776 460.6721 111 458 C113.8547 452.2421 116.8709 446.614 120 441 C122 436 122 436 122 431 C122.66 431 123.32 431 124 431 C125.0264 427.3406 126.0232 423.6729 127 420 C127.99 418.02 128.98 416.04 130 414 C130.66 411.4837 131.32 408.9675 132 406.375 C134 399 134 399 137 395 C138.049 390.6783 139.0484 386.3442 140 382 C140.66 380.35 141.32 378.7 142 377 C142.3439 374.3347 142.6766 371.6679 143 369 C144.3333 364.3333 145.6667 359.6667 147 355 C147 353.68 147 352.36 147 351 C147.66 351 148.32 351 149 351 C154.502 296.0123 154.502 296.0123 150 269 C149.9612 265.6669 149.955 262.333 150 259 C156.5026 279.9857 164.1083 311.6752 157 333 C156.6479 337.6653 156.3165 342.3322 156 347 C155.4177 352.6779 154.7206 358.3381 154 364 C153.34 364 152.68 364 152 364 C151.3412 367.6409 150.6888 371.283 150.0625 374.9297 C148.4118 382.8068 145.8921 390.3887 143.4258 398.043 C142 403 142 403 142 408 C141.34 408 140.68 408 140 408 C139.67 410.31 139.34 412.62 139 415 C138.34 415 137.68 415 137 415 C135.5902 419.6441 134.2558 424.3119 133 429 C137 428 137 428 141 424 C142.7944 422.5356 144.5888 421.0712 146.4375 419.5625 C157 410.8989 157 410.8989 157 407 C157.66 407 158.32 407 159 407 C160.1137 405.2262 161.2275 403.4525 162.375 401.625 C166 396 166 396 170 394 C169.67 395.32 169.34 396.64 169 398 C170.32 397.67 171.64 397.34 173 397 C173 397.66 173 398.32 173 399 C172.34 399 171.68 399 171 399 C171 399.99 171 400.98 171 402 C170.34 402 169.68 402 169 402 C168.34 403.65 167.68 405.3 167 407 C165.68 408.32 164.36 409.64 163 411 C163 411.66 163 412.32 163 413 C161.68 413.66 160.36 414.32 159 415 C159 415.66 159 416.32 159 417 C157.68 417.66 156.36 418.32 155 419 C152.3183 421.316 149.6507 423.6486 147 426 C146.34 426.33 145.68 426.66 145 427 C145 427.66 145 428.32 145 429 C143.35 429.33 141.7 429.66 140 430 C140 430.66 140 431.32 140 432 C139.34 432 138.68 432 138 432 C138 432.66 138 433.32 138 434 C137.01 434 136.02 434 135 434 C135 434.66 135 435.32 135 436 C133.68 436.33 132.36 436.66 131 437 C126.3849 439.3076 125.5282 446.4155 124 451 C123.34 451 122.68 451 122 451 C121.67 452.98 121.34 454.96 121 457 C120.34 457 119.68 457 119 457 C119 458.32 119 459.64 119 461 C118.34 461 117.68 461 117 461 C117 461.99 117 462.98 117 464 C116.34 464 115.68 464 115 464 C115 464.99 115 465.98 115 467 C114.34 467 113.68 467 113 467 C109.2756 475.7895 108.7469 480.9378 112 490 C117.0158 495.0158 123.1918 494.423 130 495 C131.5224 490.4329 130.0185 486.613 129 482 C129.66 482 130.32 482 131 482 C131 482.66 131 483.32 131 484 C131.66 484 132.32 484 133 484 C133.2269 485.815 133.4538 487.63 133.6875 489.5 C134.4506 491.315 135.2138 493.13 136 495 C143.625 495.9375 143.625 495.9375 151 495 C152 491 152 491 151 489 C151 486.69 151 484.38 151 482 C152.32 482.33 153.64 482.66 155 483 C155.33 484.65 155.66 486.3 156 488 C156.66 489.65 157.32 491.3 158 493 C165 492 165 492 170 489 C169 485 169 485 167 483 C165.68 482.67 164.36 482.34 163 482 C161.7054 475.5272 163.962 472.0414 166.875 466.3125 C170.4005 459.1578 173.4324 451.9865 175.625 444.3125 C177 440 177 440 180 439 C180 438.34 180 437.68 180 437 C179.34 437 178.68 437 178 437 C178.3261 435.1876 178.6523 433.3752 178.9883 431.5078 C180.0626 423.5358 180.2297 415.916 180.1875 407.875 C180.1811 405.1499 180.1746 402.4248 180.168 399.6172 C180 393 180 393 179 390 C177.68 389.67 176.36 389.34 175 389 C174.67 390.65 174.34 392.3 174 394 C173.34 394.33 172.68 394.66 172 395 C170.5332 390.5997 172.7419 388.9356 175 385 C176.125 381.1875 176.125 381.1875 177 377 C177.33 375.4531 177.66 373.9062 178 372.3125 C182.7581 347.0351 183.1067 320.8734 176 296 C175.0235 292.0941 174.0473 288.188 173.0742 284.2812 C168.2974 265.2436 168.2974 265.2436 165 257 C164.7216 256.1956 164.7216 256.1956 163.3125 252.125 C154.4843 228.7421 154.4843 228.7421 151 227 C150.4225 229.4544 149.845 231.9088 149.25 234.4375 C147.7001 240.6479 145.8348 246.2389 143 252 C140 259 140 259 140 261 C139.34 261 138.68 261 138 261 C137.4638 262.1756 136.9275 263.3512 136.375 264.5625 C133.6189 269.7121 130.4278 272.2234 126 276 C123.3283 279.3293 120.6615 282.6625 118 286 C112.0385 291.4808 112.0385 291.4808 109 293 C109 293.66 109 294.32 109 295 C107.68 295.66 106.36 296.32 105 297 C101.2712 299.0026 97.547 301.0135 93.8242 303.0273 C79.1525 310.5955 62.3287 316.1321 46.125 319.0625 C41.4172 319.9237 37.412 321.1879 33 323 C32.01 323.33 31.02 323.66 30 324 C30 323.34 30 322.68 30 322 C32.31 321.34 34.62 320.68 37 320 C38.6706 319.3194 40.3413 318.6388 42.0625 317.9375 C47 316 47 316 53 315 C53 314.34 53 313.68 53 313 C54.65 312.67 56.3 312.34 58 312 C66.0429 309.4565 73.5303 306.9314 81 303 C81.7425 302.7319 81.7425 302.7319 85.5 301.375 C86.655 300.9212 87.81 300.4675 89 300 C89 299.34 89 298.68 89 298 C90.65 297.34 92.3 296.68 94 296 C107.8706 286.753 118.471 274.5667 128 261 C128.9075 259.8244 129.815 258.6488 130.75 257.4375 C133.5522 253.1564 135.2251 248.7921 137 244 C137.5156 242.7419 138.0312 241.4837 138.5625 240.1875 C144.764 222.1223 146.8737 202.5201 142 184 C141.3639 179.7964 140.7639 175.5872 140.1875 171.375 C138.4422 159.1852 136.0129 147.2515 133.2695 135.25 C132 129 132 129 131.5117 122.875 C131 118 131 118 128 115 C127.34 115 126.68 115 126 115 C126 114.34 126 113.68 126 113 C121 108 121 108 119 108 C118.67 106.68 118.34 105.36 118 104 C117.34 104 116.68 104 116 104 C115 101 114 98 113 95 C112.34 95 111.68 95 111 95 C110.8763 93.7625 110.7525 92.525 110.625 91.25 C110 87 110 87 108 83 C107.34 83 106.68 83 106 83 C105.67 80.36 105.34 77.72 105 75 C103.68 76.65 102.36 78.3 101 80 C100.01 80 99.02 80 98 80 C98.0412 77.8963 98.0825 75.7925 98.125 73.625 C98 67 98 67 96 65 C92.6628 65.292 89.329 65.6255 86 66 C85.34 65.67 84.68 65.34 84 65 C85 61 85 61 90 58 C96.6861 58.0929 98.6212 58.697 104 63 C104.33 63.99 104.66 64.98 105 66 C105.66 66 106.32 66 107 66 C107.33 67.32 107.66 68.64 108 70 C109.2974 72.6843 110.6356 75.3491 112 78 C114.0954 82.071 115.8891 85.5566 117 90 C117.66 90 118.32 90 119 90 C119.33 91.65 119.66 93.3 120 95 C120.66 96.65 121.32 98.3 122 100 C122.66 100 123.32 100 124 100 C124.66 101.65 125.32 103.3 126 105 C126.99 105 127.98 105 129 105 C129.66 106.65 130.32 108.3 131 110 C132.98 111.32 134.96 112.64 137 114 C138.32 115.65 139.64 117.3 141 119 C141.66 119 142.32 119 143 119 C143 119.66 143 120.32 143 121 C148.1369 123.3027 151.2647 124 157 124 C168.0683 112.9317 166.28 77.3954 163 63 C162.34 63 161.68 63 161 63 C160.67 62.01 160.34 61.02 160 60 C151.6654 55.4444 142.8768 51.9354 134.1211 48.2812 C129.235 46.1047 124.6694 43.5996 120 41 C118.68 40.67 117.36 40.34 116 40 C115.34 38.68 114.68 37.36 114 36 C111.7323 34.1658 109.3885 32.4239 107 30.75 C105.7419 29.858 104.4837 28.9659 103.1875 28.0469 C100 26 100 26 98 26 C98 25.34 98 24.68 98 24 C90.2029 20.1015 85.9587 20.8165 78 24 C74.0071 25.0279 70.0077 26.0311 66 27 C68 31 68 31 73 33 C73.33 33.99 73.66 34.98 74 36 C74.66 36 75.32 36 76 36 C76 36.66 76 37.32 76 38 C68.5368 36.9338 65.2864 34.9664 59 31 C47.1545 24.2508 34.7545 19.4493 22 14.6875 C20.8244 14.246 20.8244 14.246 14.875 12.0117 C9 10 9 10 5 10 Z " fill="#232323" transform="translate(465,317)"/>
<path d="M0 0 C0 0.66 0 1.32 0 2 C1.7944 2.1444 3.5888 2.2887 5.4375 2.4375 C11 3 11 3 12 4 C12.9178 4.1547 12.9178 4.1547 17.5625 4.9375 C19.3569 5.2881 21.1513 5.6388 23 6 C23 6.66 23 7.32 23 8 C24.0519 8.0619 25.1037 8.1237 26.1875 8.1875 C35.3863 9.7405 43.3011 13.4725 51.1875 18.3125 C57.7593 21.8697 60.7414 22.8798 68 22 C68 21.34 68 20.68 68 20 C82.433 13.8144 92.1422 12.0548 106 20 C106.66 20.66 106.66 20.66 110 24 C111.65 24.99 113.3 25.98 115 27 C115.33 27.99 115.66 28.98 116 30 C117.98 30.66 119.96 31.32 122 32 C123.5675 32.9488 125.135 33.8975 126.75 34.875 C131.7551 37.8542 136.5821 39.9006 142 42 C145.3413 43.6505 148.6753 45.3161 152 47 C154.31 47.99 156.62 48.98 159 50 C162 52 162 52 162 54 C162.66 54 163.32 54 164 54 C168 58 168 58 168 61 C168.66 61 169.32 61 170 61 C177.6051 77.6726 172.1013 101.8902 168 119 C167.34 119 166.68 119 166 119 C165.67 121.31 165.34 123.62 165 126 C163 128 163 128 160 128 C160 128.66 160 129.32 160 130 C151.4943 131.7011 144.1614 127.456 137 123 C137.7013 125.0419 138.4025 127.0838 139.125 129.1875 C142.4092 139.0307 145.251 148.9956 148 159 C148.3867 160.3896 148.7734 161.7792 149.1719 163.2109 C150.4618 169.1127 150.0515 174.975 150 181 C150.3479 187.2034 150.8374 193.1466 152 199.25 C153.3197 206.8385 153.6307 214.3068 154 222 C154.66 222 155.32 222 156 222 C158.6041 226.3191 160.7731 230.0924 162 235 C162.66 235 163.32 235 164 235 C165.4089 238.3021 166.7351 241.6401 168 245 C168.66 246.65 169.32 248.3 170 250 C170 250.99 170 251.98 170 253 C170.66 253 171.32 253 172 253 C173.3802 257.3186 174.708 261.6542 176 266 C176.99 268.31 177.98 270.62 179 273 C180.0564 276.9855 181.0433 280.9894 182 285 C182.203 285.7689 182.203 285.7689 183.2305 289.6602 C187.1399 304.5986 189.1535 318.4955 189 334 C189.2269 336.1037 189.4538 338.2075 189.6875 340.375 C190.0515 348.0926 188.7261 354.4791 187 362 C185.2367 370.0335 183.5644 377.723 184 386 C184.66 386 185.32 386 186 386 C188.5979 395.9758 189.6475 405.697 190 416 C190.1237 418.4337 190.2475 420.8675 190.375 423.375 C189.7224 436.6442 185.6869 449.0114 180 461 C179.34 461 178.68 461 178 461 C177.67 462.98 177.34 464.96 177 467 C175.0625 471.375 175.0625 471.375 173 475 C172.34 475 171.68 475 171 475 C172 479 172 479 176 481 C178 486 178 486 177 493 C157.8601 502.4624 136.4157 503.1468 116 498 C108.1899 492.7199 108 490.549 108 481 C107.34 481 106.68 481 106 481 C104.1368 487.5211 103.8347 492.3055 104 499 C104.66 499 105.32 499 106 499 C108.0238 505.0714 108.3147 507.8649 107 514 C88.9316 528.4547 53.6579 524.2156 33 518 C33 517.34 33 516.68 33 516 C31.02 515.67 29.04 515.34 27 515 C21.2887 508.7029 23.1659 501.9564 24 494 C24.2052 490.5427 24.3924 487.0842 24.5625 483.625 C24.6463 481.9879 24.7301 480.3508 24.8164 478.6641 C24.877 477.4549 24.9376 476.2458 25 475 C25.66 475 26.32 475 27 475 C27.33 473.35 27.66 471.7 28 470 C27.34 470 26.68 470 26 470 C26 465.71 26 461.42 26 457 C24.3706 457.7838 22.7413 458.5675 21.0625 459.375 C15 462 15 462 6 464 C3.0803 464.6922 0.1605 465.3845 -2.8477 466.0977 C-25.1834 470.2829 -49.7276 469.9211 -72 465 C-73.815 464.6249 -75.63 464.2498 -77.5 463.8633 C-88.8627 461.3619 -98.0127 457.9924 -108 452 C-107.7319 453.155 -107.4638 454.31 -107.1875 455.5 C-100.3332 487.2465 -100.3332 487.2465 -105 499 C-105.66 499 -106.32 499 -107 499 C-107 499.99 -107 500.98 -107 502 C-107.66 502 -108.32 502 -109 502 C-109 503.32 -109 504.64 -109 506 C-109.66 506 -110.32 506 -111 506 C-111 506.66 -111 507.32 -111 508 C-114 511 -114 511 -116 511 C-116 511.66 -116 512.32 -116 513 C-136.759 522.1339 -161.815 518.2204 -184 517 C-182.68 516.67 -181.36 516.34 -180 516 C-180 515.34 -180 514.68 -180 514 C-177.36 514.66 -174.72 515.32 -172 516 C-172.99 515.67 -173.98 515.34 -175 515 C-175 514.34 -175 513.68 -175 513 C-175.66 512.67 -176.32 512.34 -177 512 C-176 511 -176 511 -171 511 C-171.33 509.68 -171.66 508.36 -172 507 C-170.3131 500.3463 -169.011 498.011 -164 493 C-162.68 493 -161.36 493 -160 493 C-160 493.99 -160 494.98 -160 496 C-160.66 496 -161.32 496 -162 496 C-163.5869 501.5542 -164.4747 506.3093 -165 512 C-163.68 511.67 -162.36 511.34 -161 511 C-155.4293 510.8385 -150.5581 511.206 -145 512 C-145.0516 511.3194 -145.0516 511.3194 -145.3125 507.875 C-145 503 -145 503 -140 497 C-138.68 497 -137.36 497 -136 497 C-136 497.99 -136 498.98 -136 500 C-136.66 500 -137.32 500 -138 500 C-138.7468 503.6512 -139.4145 507.3195 -140 511 C-128.2787 511 -119.1683 505.2805 -113.1875 495.3125 C-108.3942 483.6716 -111.9496 470.9934 -114.0625 458.9375 C-115.1133 452.2825 -115.6364 445.7268 -116 439 C-116.1031 437.2056 -116.2063 435.4112 -116.3125 433.5625 C-115.9006 426.2299 -114.188 420.0146 -112 413 C-111.34 413 -110.68 413 -110 413 C-110 412.34 -110 411.68 -110 411 C-109.01 410.67 -108.02 410.34 -107 410 C-106 415 -106 415 -107.5 420.0625 C-109.4783 429.212 -109.9982 437.7982 -108 447 C-103.9375 450 -103.9375 450 -98 451 C-95.6281 451.6806 -93.2563 452.3612 -90.8125 453.0625 C-75.1251 456.8251 -59.0676 458.1236 -43 459 C-41.35 459.33 -39.7 459.66 -38 460 C-17.5169 459.7662 4.7814 458.6874 24 451 C24 447.8125 24 447.8125 23 443 C22.6287 440.6488 22.2575 438.2975 21.875 435.875 C20.256 427.7473 16.8363 421.3107 13 414 C13 412.68 13 411.36 13 410 C23.0867 412.0173 24.8781 422.1272 28 431 C34.4236 450.9846 34.9713 473.4943 31 494 C30.3455 499.7158 30.4649 504.1626 31 510 C34.75 512.375 34.75 512.375 40 513 C41.0828 513.1959 41.0828 513.1959 46.5625 514.1875 C48.3569 514.4556 50.1513 514.7237 52 515 C49.125 505.375 49.125 505.375 48 502 C49.32 501.67 50.64 501.34 52 501 C56 507 56 507 56 516 C63.59 515.34 71.18 514.68 79 514 C79 506 79 506 76 501 C76 500.01 76 499.02 76 498 C75.34 498 74.68 498 74 498 C74 497.01 74 496.02 74 495 C81.0624 496.1771 81.7223 496.9128 85 503 C85.8125 508.4375 85.8125 508.4375 86 513 C97.75 511.25 97.75 511.25 100 509 C99 504 99 504 97 498 C97.2574 485.2573 100.7627 475.9153 107 465 C109.0495 460.9469 111.0613 456.8761 113.0742 452.8047 C114.5628 449.8637 116.1653 446.9802 117.8125 444.125 C120.2414 439.5447 121.5338 434.9572 123 430 C123.66 430 124.32 430 125 430 C125.0825 428.8656 125.165 427.7313 125.25 426.5625 C126 422 126 422 127.8125 417.9375 C129.725 413.6207 130.9195 409.742 132.0625 405.1875 C134 398 134 398 137 394 C138.049 389.6783 139.0484 385.3442 140 381 C140.66 379.35 141.32 377.7 142 376 C142.3439 373.3347 142.6766 370.6679 143 368 C143.66 365.69 144.32 363.38 145 361 C145.495 359.0406 145.99 357.0812 146.5 355.0625 C146.995 353.3919 147.49 351.7213 148 350 C148.66 350 149.32 350 150 350 C149.9588 348.2881 149.9175 346.5763 149.875 344.8125 C149.9709 338.8166 150.3528 333.1886 151 327.25 C152.9675 307.8259 153.2178 287.3068 150 268 C149.961 264.3335 149.9553 260.6664 150 257 C159.3979 261.699 159.2547 294.0954 160 303 C160.7313 326.806 160.7313 326.806 159 332 C158.6479 336.6653 158.3165 341.3322 158 346 C157.4754 351.8454 156.7373 357.3792 155 363 C154.34 363 153.68 363 153 363 C153 365.31 153 367.62 153 370 C152.1352 373.4923 151.2567 376.9823 150.2812 380.4453 C149.3069 383.9091 148.3774 387.3856 147.4688 390.8672 C146.9428 392.8704 146.4169 394.8736 145.875 396.9375 C145.3774 398.844 144.8798 400.7505 144.3672 402.7148 C143.916 404.1289 143.4648 405.543 143 407 C142.34 407 141.68 407 141 407 C140.67 409.31 140.34 411.62 140 414 C139.34 414 138.68 414 138 414 C137.67 416.31 137.34 418.62 137 421 C136.34 422.98 135.68 424.96 135 427 C135.99 427 136.98 427 138 427 C138.33 426.01 138.66 425.02 139 424 C141.6492 421.977 144.3202 419.9823 147 418 C156.8226 409.5323 156.8226 409.5323 158 406 C158.66 406 159.32 406 160 406 C160.33 404.35 160.66 402.7 161 401 C162.32 399.68 163.64 398.36 165 397 C165.495 396.34 165.495 396.34 168 393 C168.99 393 169.98 393 171 393 C170.67 394.32 170.34 395.64 170 397 C171.32 396.67 172.64 396.34 174 396 C174 396.66 174 397.32 174 398 C173.34 398 172.68 398 172 398 C172 398.99 172 399.98 172 401 C171.34 401 170.68 401 170 401 C169.67 402.65 169.34 404.3 169 406 C164.8365 410.9962 160.9134 414.8199 156 419 C154.5562 420.2994 153.1125 421.5987 151.625 422.9375 C148 426 148 426 146 426 C146 426.66 146 427.32 146 428 C144.35 428.33 142.7 428.66 141 429 C141 429.66 141 430.32 141 431 C140.34 431 139.68 431 139 431 C139 431.66 139 432.32 139 433 C138.01 433 137.02 433 136 433 C136 433.66 136 434.32 136 435 C134.02 435.66 132.04 436.32 130 437 C129.67 438.65 129.34 440.3 129 442 C127.0625 446.3125 127.0625 446.3125 125 450 C124.34 450 123.68 450 123 450 C122.67 451.98 122.34 453.96 122 456 C121.34 456 120.68 456 120 456 C120 457.32 120 458.64 120 460 C119.34 460 118.68 460 118 460 C118 460.99 118 461.98 118 463 C117.34 463 116.68 463 116 463 C116 463.99 116 464.98 116 466 C115.34 466 114.68 466 114 466 C113.67 468.31 113.34 470.62 113 473 C112.34 473.66 111.68 474.32 111 475 C111.2703 481.1269 112.1964 484.3927 115 490 C120.4746 492.1898 125.1503 492.5771 131 493 C130.67 491.35 130.34 489.7 130 488 C130 485.69 130 483.38 130 481 C130.66 481 131.32 481 132 481 C132 481.66 132 482.32 132 483 C132.66 483 133.32 483 134 483 C137 489 137 489 137 494 C141.95 493.67 146.9 493.34 152 493 C151.67 491.35 151.34 489.7 151 488 C151 485.36 151 482.72 151 480 C156 482 156 482 159 489 C159 489.99 159 490.98 159 492 C163.9375 490.75 163.9375 490.75 169 489 C170 485 170 485 168 483 C166.35 482.34 164.7 481.68 163 481 C161.7054 474.5272 163.962 471.0414 166.875 465.3125 C171.3921 456.1454 174.8755 446.7208 178 437 C178.99 437.33 179.98 437.66 181 438 C181 437.34 181 436.68 181 436 C180.34 436 179.68 436 179 436 C179 428 179 428 180 423 C180.0711 417.2296 180.0841 411.4583 180.0625 405.6875 C180.058 404.1322 180.058 404.1322 180.0352 396.2617 C180.0236 393.8654 180.012 391.469 180 389 C177 390 177 390 175 394 C174.34 394 173.68 394 173 394 C173 393.34 173 392.68 173 392 C172.34 391.67 171.68 391.34 171 391 C171.6187 390.01 172.2375 389.02 172.875 388 C175.0459 383.9136 176.0565 380.5155 177 376 C177.33 374.4531 177.66 372.9062 178 371.3125 C182.7581 346.0351 183.1067 319.8734 176 295 C175.0235 291.0941 174.0473 287.188 173.0742 283.2812 C168.2974 264.2436 168.2974 264.2436 165 256 C164.7216 255.1956 164.7216 255.1956 163.3125 251.125 C160.2172 242.9267 156.6166 234.9793 153 227 C152.4225 229.2894 151.845 231.5788 151.25 233.9375 C149.6495 239.9395 147.7166 245.397 145 251 C144.2987 252.6706 143.5975 254.3412 142.875 256.0625 C142.2563 257.3619 141.6375 258.6612 141 260 C140.34 260 139.68 260 139 260 C138.34 261.98 137.68 263.96 137 266 C133.2282 270.6258 129.2237 274.7763 125 279 C123.4944 280.6913 121.9887 282.3825 120.4375 284.125 C113.2692 292 113.2692 292 110 292 C110 292.66 110 293.32 110 294 C100.2631 300.5324 91.2808 305.7968 80 309 C78.4944 309.6187 76.9887 310.2375 75.4375 310.875 C64.5301 315.1377 53.5184 317.9588 42 320 C39.3213 320.9673 36.6508 321.9586 34 323 C33.01 323 32.02 323 31 323 C31 322.34 31 321.68 31 321 C36.4701 317.9169 42.0259 315.8823 48 314 C61.2596 309.7101 74.1953 304.4877 87 299 C87.99 299 88.98 299 90 299 C90 298.34 90 297.68 90 297 C91.4025 296.1956 92.805 295.3913 94.25 294.5625 C110.9626 284.208 124.8615 267.2978 134 250 C134.66 248.8656 135.32 247.7313 136 246.5625 C144.6504 226.8287 146.9423 203.7918 142 183 C141.3699 178.7955 140.7689 174.5865 140.1875 170.375 C138.4422 158.1852 136.0129 146.2515 133.2695 134.25 C132 128 132 128 131.5742 121.875 C131 117 131 117 127 114 C127 113.34 127 112.68 127 112 C125.68 111.34 124.36 110.68 123 110 C122.67 109.01 122.34 108.02 122 107 C121.34 107 120.68 107 120 107 C119.67 105.68 119.34 104.36 119 103 C118.34 103 117.68 103 117 103 C114 98 114 98 114 94 C113.34 94 112.68 94 112 94 C109 86.0385 109 86.0385 109 82 C108.34 82 107.68 82 107 82 C106.34 80.02 105.68 78.04 105 76 C104.01 77.32 103.02 78.64 102 80 C100.68 79.67 99.36 79.34 98 79 C98.0206 76.855 98.0412 74.71 98.0625 72.5 C98.0522 71.4275 98.0522 71.4275 98 66 C93 65 93 65 87 66 C86.01 65.34 85.02 64.68 84 64 C85 60 85 60 91 56 C98.4896 55.896 99.9521 56.9601 106 62 C106 62.99 106 63.98 106 65 C106.66 65 107.32 65 108 65 C109.4163 67.7294 110.733 70.5107 112 73.3125 C115.8373 81.7559 115.8373 81.7559 118 85 C118 86.32 118 87.64 118 89 C118.66 89 119.32 89 120 89 C121 92.3333 122 95.6667 123 99 C123.66 99 124.32 99 125 99 C125.66 100.65 126.32 102.3 127 104 C127.99 104 128.98 104 130 104 C130.66 105.65 131.32 107.3 132 109 C133.32 109.66 134.64 110.32 136 111 C137.65 112.65 139.3 114.3 141 116 C141.99 116.66 142.98 117.32 144 118 C144 118.66 144 119.32 144 120 C146.31 120.33 148.62 120.66 151 121 C151.33 121.33 151.66 121.66 152 122 C158 122 158 122 159 121 C163.5229 101.8901 166.48 81.5918 164 62 C163.34 62 162.68 62 162 62 C161.505 61.505 161.505 61.505 159 59 C151.3311 54.8562 143.2248 51.6758 135.1914 48.3164 C130.2783 46.1242 125.6667 43.6699 121 41 C119.68 40.34 118.36 39.68 117 39 C115.35 37.35 113.7 35.7 112 34 C109.7591 32.3949 107.487 30.8326 105.1875 29.3125 C99 25 99 25 99 23 C91.2808 20.4269 86.4988 21.0005 79 24 C75.0077 24.7115 71.008 25.3834 67 26 C72 31 72 31 77 35 C77 35.66 77 36.32 77 37 C68.9261 37 66.6578 35.28 60 31 C48.1518 24.2493 35.773 19.4692 23 14.75 C21.8244 14.3143 21.8244 14.3143 15.875 12.1094 C10 10 10 10 6 9 C6.99 11.31 7.98 13.62 9 16 C10.5871 28.5833 10.0777 34.3067 2 44 C-4 46 -4 46 -11 44 C-11.33 43.01 -11.66 42.02 -12 41 C-12.66 41 -13.32 41 -14 41 C-14.33 39.02 -14.66 37.04 -15 35 C-14.67 35.66 -14.34 36.32 -14 37 C-13.34 37 -12.68 37 -12 37 C-12 37.66 -12 38.32 -12 39 C-5 40 -5 40 1 36 C6.6996 26.0717 3.9175 14.6764 -1 5 C-1 4.01 -1 3.02 -1 2 C-1.33 1.835 -1.33 1.835 -3 1 C-2 0 -2 0 0 0 Z " fill="#1F1F1F" transform="translate(464,318)"/>
<path d="M0 0 C3.3251 1.0269 6.6607 2.02 10 3 C18.2476 6.7467 26.5945 10.7544 34 16 C34 16.66 34 17.32 34 18 C34.66 18.33 34.66 18.33 38 20 C38 20.66 38 21.32 38 22 C38.66 22 39.32 22 40 22 C39.67 22.99 39.34 23.98 39 25 C37.02 23.35 35.04 21.7 33 20 C22.8218 13.2145 11.5589 8.853 0 5 C-0.33 7.31 -0.66 9.62 -1 12 C-3 15 -3 15 -5 15 C-5.66 16.32 -6.32 17.64 -7 19 C-12.7506 23.3773 -15.6987 24.957 -23 26 C-22.625 40.625 -22.625 40.625 -17 44 C-17 44.66 -17 45.32 -17 46 C-15.68 46.33 -14.36 46.66 -13 47 C-12.34 47.33 -11.68 47.66 -11 48 C-11 48.66 -11 49.32 -11 50 C2.7668 55.0831 14.3073 57.4551 28 51 C28.99 50.67 29.98 50.34 31 50 C31.33 48.68 31.66 47.36 32 46 C33 45 33 45 38 45 C38.33 46.65 38.66 48.3 39 50 C37.35 50.66 35.7 51.32 34 52 C32.35 53.65 30.7 55.3 29 57 C22.4543 60.4654 15.3632 63.4544 8 61 C9.155 62.4231 10.31 63.8463 11.5 65.3125 C15 70 15 70 15 73 C15.99 73.33 16.98 73.66 18 74 C18 74.99 18 75.98 18 77 C18.66 77 19.32 77 20 77 C20 77.99 20 78.98 20 80 C21.32 80.66 22.64 81.32 24 82 C26.0419 85.3078 28.0439 88.6407 30 92 C30.66 92.33 31.32 92.66 32 93 C32 93.66 32 94.32 32 95 C32.99 95.33 33.98 95.66 35 96 C35.825 96.825 35.825 96.825 40 101 C53.877 113.1424 69.5212 116.0039 87 111 C94.6738 108.3214 99.7073 106.2439 106 101 C106.99 101 107.98 101 109 101 C109.33 99.68 109.66 98.36 110 97 C111.32 95.35 112.64 93.7 114 92 C116.0434 87.3522 118.0472 82.6866 120 78 C120.33 77.67 120.66 77.34 121 77 C121.6992 73.3394 122.3668 69.6726 123 66 C128.8205 71.8205 127.3232 75.0608 126 83 C123.399 89.4794 120.2 95.4 116 101 C115.34 101 114.68 101 114 101 C113.67 102.32 113.34 103.64 113 105 C112.34 105 111.68 105 111 105 C110.67 105.99 110.34 106.98 110 108 C94.5269 120.8942 71.548 125.079 52.1875 119.25 C51.4966 118.8787 51.4966 118.8787 48 117 C46.4737 116.2988 44.9475 115.5975 43.375 114.875 C42.2613 114.2563 41.1475 113.6375 40 113 C40 112.34 40 111.68 40 111 C38.68 110.67 37.36 110.34 36 110 C32 106 32 106 32 104 C31.01 104 30.02 104 29 104 C23.128 97.0711 18.1343 89.4814 13 82 C11.9894 80.6181 10.9787 79.2363 9.9375 77.8125 C8 75 8 75 8 73 C7.34 73 6.68 73 6 73 C6 72.34 6 71.68 6 71 C4.35 71 2.7 71 1 71 C0.67 72.65 0.34 74.3 0 76 C-14.1304 87.7753 -25.9693 87.3401 -43 82 C-50 77.8592 -50 77.8592 -50 75 C-50.66 75 -51.32 75 -52 75 C-52.33 73.68 -52.66 72.36 -53 71 C-54.32 71.33 -55.64 71.66 -57 72 C-57.165 72.66 -57.165 72.66 -58 76 C-58.66 76 -59.32 76 -60 76 C-60 76.66 -60 77.32 -60 78 C-60.33 78.165 -60.33 78.165 -62 79 C-62.66 80.65 -63.32 82.3 -64 84 C-64.66 84 -65.32 84 -66 84 C-66.165 84.66 -66.165 84.66 -67 88 C-75.0229 101 -75.0229 101 -78 101 C-78.165 101.495 -78.165 101.495 -79 104 C-79.66 104 -80.32 104 -81 104 C-81 104.66 -81 105.32 -81 106 C-86 111 -86 111 -90 113 C-90.33 113.66 -90.66 114.32 -91 115 C-92.155 115.165 -92.155 115.165 -98 116 C-98 116.99 -98 117.98 -98 119 C-102.5536 120.4664 -106.1943 121 -111 121 C-111.33 121.33 -111.66 121.66 -112 122 C-132.7031 125.0297 -150.0957 118.1303 -163 102 C-163 101.34 -163 100.68 -163 100 C-163.66 100 -164.32 100 -165 100 C-171.1482 88.6002 -177.2795 76.1324 -170 64 C-169.34 64 -168.68 64 -168 64 C-167.7525 66.4131 -167.505 68.8262 -167.25 71.3125 C-166.1696 79.9254 -164.0845 87.3521 -159.75 94.9375 C-158 98 -158 98 -158 102 C-157.67 101.835 -157.67 101.835 -156 101 C-155.34 101.33 -154.68 101.66 -154 102 C-154 102.66 -154 103.32 -154 104 C-152.68 104.33 -151.36 104.66 -150 105 C-150 105.66 -150 106.32 -150 107 C-146.5225 108.391 -143.0199 109.72 -139.5 111 C-135.9801 112.28 -132.4775 113.609 -129 115 C-112.9704 115.5735 -102.4868 112.1455 -90 102 C-89.01 101.67 -88.02 101.34 -87 101 C-87 100.34 -87 99.68 -87 99 C-85.68 98.67 -84.36 98.34 -83 98 C-82.67 96.35 -82.34 94.7 -82 93 C-81.34 92.67 -80.68 92.34 -80 92 C-79.835 91.505 -79.835 91.505 -79 89 C-78.01 88.01 -77.02 87.02 -76 86 C-75.67 85.34 -75.67 85.34 -74 82 C-73.34 82 -72.68 82 -72 82 C-72 81.01 -72 80.02 -72 79 C-71.34 79 -70.68 79 -70 79 C-69.67 78.34 -69.67 78.34 -68 75 C-65.4999 70.4998 -62.8647 66.2971 -60 62 C-60.6703 61.9381 -60.6703 61.9381 -64.0625 61.625 C-72.0091 60.6191 -80.3433 58.985 -85 52 C-86.65 52 -88.3 52 -90 52 C-89 47 -89 47 -87 45 C-82 46 -82 46 -79 51 C-68.6138 57.4466 -60.4803 55.9849 -49 53 C-47.35 52.67 -45.7 52.34 -44 52 C-44 51.34 -44 50.68 -44 50 C-43.01 49.67 -42.02 49.34 -41 49 C-40.01 48.01 -39.02 47.02 -38 46 C-31.4857 42 -31.4857 42 -29 42 C-29 36.39 -29 30.78 -29 25 C-30.98 25 -32.96 25 -35 25 C-48.0909 19.2727 -48.0909 19.2727 -51 12 C-51.66 12 -52.32 12 -53 12 C-53.33 11.01 -53.33 11.01 -55 6 C-56.7119 6.7837 -58.4237 7.5675 -60.1875 8.375 C-70.4286 13 -70.4286 13 -74 13 C-74 13.66 -74 14.32 -74 15 C-80.2353 19 -80.2353 19 -84 19 C-84 19.66 -84 20.32 -84 21 C-89 26 -89 26 -92 27 C-91.34 25.35 -90.68 23.7 -90 22 C-89.34 22 -88.68 22 -88 22 C-87.34 20.68 -86.68 19.36 -86 18 C-85.34 18 -84.68 18 -84 18 C-84 17.34 -84 16.68 -84 16 C-76.1631 10.6217 -68.9517 6.2662 -60 3 C-55.2015 0.8916 -52.1678 -0.8322 -48.4375 -4.5625 C-34.4572 -15.3923 -11.1153 -13.8942 0 0 Z " fill="#1C1B1B" transform="translate(448,487)"/>
<path d="M0 0 C9.3979 4.699 9.2547 37.0954 10 46 C10.7313 69.806 10.7313 69.806 9 75 C8.6479 79.6653 8.3165 84.3322 8 89 C7.4754 94.8454 6.7373 100.3792 5 106 C4.34 106 3.68 106 3 106 C3 108.31 3 110.62 3 113 C2.1352 116.4923 1.2567 119.9823 0.2812 123.4453 C-0.6931 126.9091 -1.6226 130.3856 -2.5312 133.8672 C-3.0572 135.8704 -3.5831 137.8736 -4.125 139.9375 C-4.6226 141.844 -5.1202 143.7505 -5.6328 145.7148 C-6.084 147.1289 -6.5352 148.543 -7 150 C-7.66 150 -8.32 150 -9 150 C-9.33 152.31 -9.66 154.62 -10 157 C-10.66 157 -11.32 157 -12 157 C-12.33 159.31 -12.66 161.62 -13 164 C-13.66 165.98 -14.32 167.96 -15 170 C-14.01 170 -13.02 170 -12 170 C-11.67 169.01 -11.34 168.02 -11 167 C-8.3508 164.977 -5.6798 162.9823 -3 161 C6.8226 152.5323 6.8226 152.5323 8 149 C8.66 149 9.32 149 10 149 C10.33 147.35 10.66 145.7 11 144 C12.32 142.68 13.64 141.36 15 140 C15.495 139.34 15.495 139.34 18 136 C18.99 136 19.98 136 21 136 C20.67 137.32 20.34 138.64 20 140 C21.32 139.67 22.64 139.34 24 139 C24 139.66 24 140.32 24 141 C23.34 141 22.68 141 22 141 C22 141.99 22 142.98 22 144 C21.34 144 20.68 144 20 144 C19.67 145.65 19.34 147.3 19 149 C14.8365 153.9962 10.9134 157.8199 6 162 C4.5562 163.2994 3.1125 164.5987 1.625 165.9375 C-2 169 -2 169 -4 169 C-4 169.66 -4 170.32 -4 171 C-5.65 171.33 -7.3 171.66 -9 172 C-9 172.66 -9 173.32 -9 174 C-9.66 174 -10.32 174 -11 174 C-11 174.66 -11 175.32 -11 176 C-11.99 176 -12.98 176 -14 176 C-14 176.66 -14 177.32 -14 178 C-15.98 178.66 -17.96 179.32 -20 180 C-20.33 181.65 -20.66 183.3 -21 185 C-22.9375 189.3125 -22.9375 189.3125 -25 193 C-25.66 193 -26.32 193 -27 193 C-27.33 194.98 -27.66 196.96 -28 199 C-28.66 199 -29.32 199 -30 199 C-30 200.32 -30 201.64 -30 203 C-30.66 203 -31.32 203 -32 203 C-32 203.99 -32 204.98 -32 206 C-32.66 206 -33.32 206 -34 206 C-34 206.99 -34 207.98 -34 209 C-34.66 209 -35.32 209 -36 209 C-36.33 211.31 -36.66 213.62 -37 216 C-37.66 216.66 -38.32 217.32 -39 218 C-38.7297 224.1269 -37.8036 227.3927 -35 233 C-30.4239 234.8304 -26.8473 235.5071 -22 236 C-22 236.33 -22 236.66 -22 237 C-23.98 237.33 -25.96 237.66 -28 238 C-28.33 239.32 -28.66 240.64 -29 242 C-34.8596 240.0468 -39.8836 238.3491 -42 232 C-42 229.36 -42 226.72 -42 224 C-42.66 224 -43.32 224 -44 224 C-45.8632 230.5211 -46.1653 235.3055 -46 242 C-45.34 242 -44.68 242 -44 242 C-41.9762 248.0714 -41.6853 250.8649 -43 257 C-61.0684 271.4547 -96.3421 267.2156 -117 261 C-117 260.34 -117 259.68 -117 259 C-118.98 258.67 -120.96 258.34 -123 258 C-128.7113 251.7029 -126.8341 244.9564 -126 237 C-125.7948 233.5427 -125.6076 230.0842 -125.4375 226.625 C-125.3537 224.9879 -125.2699 223.3508 -125.1836 221.6641 C-125.123 220.4549 -125.0624 219.2458 -125 218 C-124.34 218 -123.68 218 -123 218 C-122.67 216.35 -122.34 214.7 -122 213 C-122.66 213 -123.32 213 -124 213 C-124 208.71 -124 204.42 -124 200 C-125.6294 200.7838 -127.2587 201.5675 -128.9375 202.375 C-135 205 -135 205 -144 207 C-146.9197 207.6922 -149.8395 208.3845 -152.8477 209.0977 C-175.1834 213.2829 -199.7276 212.9211 -222 208 C-223.815 207.6249 -225.63 207.2498 -227.5 206.8633 C-238.8627 204.3619 -248.0127 200.9924 -258 195 C-257.8659 195.5775 -257.8659 195.5775 -257.1875 198.5 C-250.3332 230.2465 -250.3332 230.2465 -255 242 C-255.66 242 -256.32 242 -257 242 C-257 242.99 -257 243.98 -257 245 C-257.66 245 -258.32 245 -259 245 C-259 246.32 -259 247.64 -259 249 C-259.66 249 -260.32 249 -261 249 C-261 249.66 -261 250.32 -261 251 C-264 254 -264 254 -266 254 C-266 254.66 -266 255.32 -266 256 C-286.759 265.1339 -311.815 261.2204 -334 260 C-332.68 259.67 -331.36 259.34 -330 259 C-330 258.34 -330 257.68 -330 257 C-327.36 257.66 -324.72 258.32 -322 259 C-322.99 258.67 -323.98 258.34 -325 258 C-325 257.34 -325 256.68 -325 256 C-325.66 255.67 -326.32 255.34 -327 255 C-326 254 -326 254 -321 254 C-321.33 252.68 -321.66 251.36 -322 250 C-320.3131 243.3463 -319.011 241.011 -314 236 C-312.68 236 -311.36 236 -310 236 C-310 236.99 -310 237.98 -310 239 C-310.66 239 -311.32 239 -312 239 C-313.5869 244.5542 -314.4747 249.3093 -315 255 C-313.68 254.67 -312.36 254.34 -311 254 C-305.4293 253.8385 -300.5581 254.206 -295 255 C-295.1031 253.6387 -295.2063 252.2775 -295.3125 250.875 C-295 246 -295 246 -290 240 C-288.68 240 -287.36 240 -286 240 C-286 240.99 -286 241.98 -286 243 C-286.66 243 -287.32 243 -288 243 C-288.7468 246.6512 -289.4145 250.3195 -290 254 C-278.2787 254 -269.1683 248.2805 -263.1875 238.3125 C-258.3942 226.6716 -261.9496 213.9934 -264.0625 201.9375 C-265.1133 195.2825 -265.6364 188.7268 -266 182 C-266.1031 180.2056 -266.2063 178.4112 -266.3125 176.5625 C-265.9006 169.2299 -264.188 163.0146 -262 156 C-261.34 156 -260.68 156 -260 156 C-260 155.34 -260 154.68 -260 154 C-259.01 153.67 -258.02 153.34 -257 153 C-256 158 -256 158 -257.5 163.0625 C-259.4783 172.212 -259.9982 180.7982 -258 190 C-253.9375 193 -253.9375 193 -248 194 C-245.6281 194.6806 -243.2563 195.3613 -240.8125 196.0625 C-225.1251 199.8251 -209.0676 201.1236 -193 202 C-191.35 202.33 -189.7 202.66 -188 203 C-167.5169 202.7662 -145.2186 201.6874 -126 194 C-126 190.8125 -126 190.8125 -127 186 C-127.3713 183.6488 -127.7425 181.2975 -128.125 178.875 C-129.744 170.7473 -133.1637 164.3107 -137 157 C-137 155.68 -137 154.36 -137 153 C-126.9133 155.0173 -125.1219 165.1272 -122 174 C-115.5764 193.9846 -115.0287 216.4943 -119 237 C-119.6545 242.7158 -119.5351 247.1626 -119 253 C-115.25 255.375 -115.25 255.375 -110 256 C-107.8344 256.3919 -105.6687 256.7838 -103.4375 257.1875 C-101.6431 257.4556 -99.8487 257.7237 -98 258 C-100.875 248.375 -100.875 248.375 -102 245 C-100.68 244.67 -99.36 244.34 -98 244 C-94 250 -94 250 -94 259 C-86.41 258.34 -78.82 257.68 -71 257 C-71 249 -71 249 -74 244 C-74 243.01 -74 242.02 -74 241 C-74.66 241 -75.32 241 -76 241 C-76 240.01 -76 239.02 -76 238 C-68.9376 239.1771 -68.2777 239.9128 -65 246 C-64.1875 251.4375 -64.1875 251.4375 -64 256 C-52.25 254.25 -52.25 254.25 -50 252 C-51 247 -51 247 -53 241 C-52.7426 228.2573 -49.2373 218.9153 -43 208 C-40.9505 203.9469 -38.9387 199.8761 -36.9258 195.8047 C-35.4372 192.8637 -33.8347 189.9802 -32.1875 187.125 C-29.7586 182.5447 -28.4662 177.9572 -27 173 C-26.34 173 -25.68 173 -25 173 C-24.9175 171.8656 -24.835 170.7313 -24.75 169.5625 C-24 165 -24 165 -22.1875 160.9375 C-20.275 156.6207 -19.0805 152.742 -17.9375 148.1875 C-16 141 -16 141 -13 137 C-11.951 132.6783 -10.9516 128.3442 -10 124 C-9.34 122.35 -8.68 120.7 -8 119 C-7.6561 116.3347 -7.3234 113.6679 -7 111 C-6.34 108.69 -5.68 106.38 -5 104 C-4.505 102.0406 -4.01 100.0812 -3.5 98.0625 C-3.2525 97.2272 -3.2525 97.2272 -2 93 C-1.34 93 -0.68 93 0 93 C-0.0412 91.2881 -0.0825 89.5762 -0.125 87.8125 C-0.0291 81.8166 0.3528 76.1886 1 70.25 C2.9675 50.8259 3.2178 30.3068 0 11 C-0.039 7.3335 -0.0447 3.6664 0 0 Z " fill="#1F1F1F" transform="translate(614,575)"/>
<path d="M0 0 C3.9642 3.9642 1.5354 10.8694 1 16 C0.67 16.825 0.67 16.825 -1 21 C-7.0093 42.7109 -14.2662 76.2014 -7 98 C-6.2649 104.6976 -5.8896 111.2637 -6 118 C-5.34 118 -4.68 118 -4 118 C-3.8659 118.9694 -3.8659 118.9694 -3.1875 123.875 C-1.6878 132.8729 0.5458 140.2837 4.6875 148.375 C8 155 8 155 8 159 C8.66 159 9.32 159 10 159 C11.4282 162.8085 12.8505 166.6194 14.2422 170.4414 C18.8142 182.2981 25.149 193.2085 31.7031 204.0625 C38 214.8571 38 214.8571 38 219 C38.66 219 39.32 219 40 219 C44 225.2353 44 225.2353 44 229 C44.66 229 45.32 229 46 229 C52 240.28 52 240.28 52 243 C53.32 243 54.64 243 56 243 C55 248 55 248 52.125 251.75 C48.9174 256.1123 47.4562 259.8224 46 265 C47.155 265.495 47.155 265.495 53 268 C53 268.66 53 269.32 53 270 C54.65 269.67 56.3 269.34 58 269 C58.33 270.32 58.66 271.64 59 273 C59.99 272.67 60.98 272.34 62 272 C62 272.66 62 273.32 62 274 C56 273 56 273 54 272 C54 272.66 54 273.32 54 274 C44.5 274 44.5 274 40 268 C39.1476 263.4536 38.8727 260.5093 40 256 C38.2275 256.0232 36.4551 256.0464 34.6289 256.0703 C33.4629 256.0793 33.4629 256.0793 27.5625 256.125 C25.2538 256.1482 22.9451 256.1714 20.5664 256.1953 C8.9885 255.8509 1.6632 254.1959 -6 245 C-5.9301 239.8309 -5.3138 236.6277 -3 232 C-2.34 232 -1.68 232 -1 232 C-0.67 231.34 -0.67 231.34 1 228 C1.825 227.34 1.825 227.34 6 224 C4 220 4 220 1 216 C1 214.68 1 213.36 1 212 C0.01 211.67 -0.98 211.34 -2 211 C-3.4299 208.0448 -4.7426 205.0326 -6 202 C-6.825 200.2675 -7.65 198.535 -8.5 196.75 C-14.3436 183.3097 -17.2839 170.6647 -17.25 156.0625 C-17.2552 153.8466 -17.2603 151.6307 -17.2656 149.3477 C-17.0264 143.6313 -16.2938 138.5564 -15 133 C-14.67 131.35 -14.34 129.7 -14 128 C-13.34 128 -12.68 128 -12 128 C-12.5605 122.6754 -13.5094 118.2171 -15 113 C-18.6432 94.0654 -21.9106 69.8212 -13 52 C-13.66 51.67 -14.32 51.34 -15 51 C-12.8668 34.1959 -9.5827 14.374 0 0 Z " fill="#292928" transform="translate(230,560)"/>
<path d="M0 0 C0.66 0.33 1.32 0.66 2 1 C2 1.66 2 2.32 2 3 C8.0395 2.4781 13.996 1.8577 20 1 C34.7656 0.7656 34.7656 0.7656 36 2 C38.64 2 41.28 2 44 2 C46.6849 2.95 49.3528 3.9495 52 5 C59 6 59 6 62 4 C62.99 5.65 63.98 7.3 65 9 C64.34 9 63.68 9 63 9 C63 8.34 63 7.68 63 7 C62.34 7.33 61.68 7.66 61 8 C61.9694 9.8562 62.9388 11.7125 63.9375 13.625 C68.326 24.1932 70.3571 33.8938 64 44 C57.6494 48.2338 56.9264 48.433 50 47 C50.33 46.01 50.66 45.02 51 44 C49 44 49 44 47 46 C46 40 46 40 46 34 C45.67 33.67 45.34 33.34 45 33 C44.01 34.3612 43.02 35.7225 42 37.125 C33.4746 47.5153 24.5799 52.9586 11 52 C6 50 6 50 5 46 C5.6564 43.3308 6.324 40.6643 7 38 C7 35.69 7 33.38 7 31 C6.34 31 5.68 31 5 31 C4.67 31.99 4.34 32.98 4 34 C-2 37 -2 37 -4 37 C-4.33 38.32 -4.66 39.64 -5 41 C-5 40.34 -5 39.68 -5 39 C-6.5056 39.66 -8.0113 40.32 -9.5625 41 C-17.2172 43.3782 -23.0252 43.2927 -31 43 C-31 42.01 -31 41.02 -31 40 C-31.66 40 -32.32 40 -33 40 C-33 39.34 -33 38.68 -33 38 C-33.66 37.67 -34.32 37.34 -35 37 C-35 34.69 -35 32.38 -35 30 C-34.34 30 -33.68 30 -33 30 C-32.67 27.69 -32.34 25.38 -32 23 C-23.3281 9.9921 -14.9874 6.0557 0 3 C0 2.01 0 1.02 0 0 Z " fill="#A36D4D" transform="translate(401,311)"/>
<path d="M0 0 C-6.4318 3.2159 -12.4241 0.192 -19 -2 C-20.98 -2 -22.96 -2 -25 -2 C-25.99 -2.33 -26.98 -2.66 -28 -3 C-31.0196 -3.0964 -34.0414 -3.1298 -37.0625 -3.125 C-38.6829 -3.1276 -40.3032 -3.1302 -41.9727 -3.1328 C-46 -3 -46 -3 -48 -2 C-51.6664 -1.9588 -55.3336 -1.9579 -59 -2 C-61.4267 -2 -63.6978 -0.7674 -66 0 C-66.7219 0.1341 -66.7219 0.1341 -70.375 0.8125 C-77.9828 2.7659 -82.1173 5.8966 -87 12 C-88.32 13.32 -89.64 14.64 -91 16 C-92.0236 18.992 -93.0266 21.9913 -94 25 C-94.66 25 -95.32 25 -96 25 C-95 32 -95 32 -94 35 C-93.34 35 -92.68 35 -92 35 C-91.67 35.66 -91.34 36.32 -91 37 C-70.028 38.028 -70.028 38.028 -63 31 C-61.02 30.01 -59.04 29.02 -57 28 C-56.01 27.01 -55.02 26.02 -54 25 C-53.67 25 -53.34 25 -53 25 C-53 31.5611 -53.6326 36.676 -55 43 C-55 43.66 -55 44.32 -55 45 C-43.0046 47.3991 -33.9438 45.9438 -25 37 C-24.34 37 -23.68 37 -23 37 C-22.34 35.68 -21.68 34.36 -21 33 C-19.35 31.02 -17.7 29.04 -16 27 C-14 29 -14 29 -14 35 C-25.75 46.75 -25.75 46.75 -32 48 C-32 48.66 -32 49.32 -32 50 C-41.2417 52.6405 -47.3062 53.3469 -56 49 C-59 42 -59 42 -58 35 C-59.98 35.99 -61.96 36.98 -64 38 C-75.2491 42.6081 -83.301 45.1613 -95 40 C-102.4048 31.1142 -100.4853 26.456 -97 16 C-99.5648 16.9313 -102.1267 17.8703 -104.6875 18.8125 C-106.1145 19.3346 -107.5415 19.8566 -109.0117 20.3945 C-113 22 -113 22 -118 25 C-118.66 24.835 -118.66 24.835 -122 24 C-122.66 25.32 -123.32 26.64 -124 28 C-136.2222 34.5556 -136.2222 34.5556 -142 36 C-142 36.66 -142 37.32 -142 38 C-143.32 38.33 -144.64 38.66 -146 39 C-146 39.66 -146 40.32 -146 41 C-152 44 -152 44 -157 44 C-156.67 42.35 -156.34 40.7 -156 39 C-154.02 38.34 -152.04 37.68 -150 37 C-150 36.34 -150 35.68 -150 35 C-149.34 35 -148.68 35 -148 35 C-148 34.34 -148 33.68 -148 33 C-148.66 32.9381 -148.66 32.9381 -152 32.625 C-157 32 -157 32 -161 30.9375 C-174.7115 27.7239 -182.6252 33.5591 -192.8555 42.3711 C-201.5643 49.6519 -211.1552 56.3851 -222 60 C-222 59.34 -222 58.68 -222 58 C-222.99 58 -223.98 58 -225 58 C-225.66 57.34 -226.32 56.68 -227 56 C-227.33 56.33 -227.33 56.33 -229 58 C-230.65 58 -232.3 58 -234 58 C-230.2098 55.1574 -226.6918 53.2973 -222.4375 51.25 C-215.6487 47.9112 -209.3384 44.1411 -203 40 C-202.505 39.835 -202.505 39.835 -200 39 C-200 38.34 -200 37.68 -200 37 C-194 33 -194 33 -191 33 C-191 32.01 -191 31.02 -191 30 C-188.0217 28.6188 -185.0196 27.2884 -182 26 C-181.01 25.01 -180.02 24.02 -179 23 C-170.4937 20.8734 -163.2025 22.5765 -155 25 C-155 25.66 -155 26.32 -155 27 C-152.69 27.33 -150.38 27.66 -148 28 C-147.505 28.33 -147.505 28.33 -145 30 C-139.6534 28.9307 -137.3372 27.1325 -133 24 C-132.01 24 -131.02 24 -130 24 C-130 23.34 -130 22.68 -130 22 C-122.7327 18.4628 -115.4283 15.1836 -108 12 C-106.68 11.34 -105.36 10.68 -104 10 C-102.0406 9.5669 -100.0813 9.1338 -98.0625 8.6875 C-92 7 -92 7 -87 2 C-80.6216 -2 -80.6216 -2 -78 -2 C-78 -2.66 -78 -3.32 -78 -4 C-57.7269 -9.9938 -15.9689 -15.9689 0 0 Z " fill="#33302E" transform="translate(462,316)"/>

<path d="M0 0 C-0.2837 4.0426 -0.9255 7.7373 -2.0312 11.6367 C-3.8341 19.7567 -3.6467 27.8601 -2 36 C2.0625 39 2.0625 39 8 40 C10.3719 40.6806 12.7437 41.3613 15.1875 42.0625 C25.6518 44.6008 36.3173 45.7674 47 47 C45.35 48.32 43.7 49.64 42 51 C41.34 51.99 40.68 52.98 40 54 C40.66 54.165 40.66 54.165 44 55 C27.2447 53.6138 12.4247 49.6548 -2 41 C-1.8659 41.5775 -1.8659 41.5775 -1.1875 44.5 C5.6668 76.2465 5.6668 76.2465 1 88 C0.34 88 -0.32 88 -1 88 C-1 88.99 -1 89.98 -1 91 C-1.66 91 -2.32 91 -3 91 C-3 92.32 -3 93.64 -3 95 C-3.66 95 -4.32 95 -5 95 C-5 95.66 -5 96.32 -5 97 C-8 100 -8 100 -10 100 C-10 100.66 -10 101.32 -10 102 C-30.759 111.1339 -55.815 107.2204 -78 106 C-77.34 105.835 -77.34 105.835 -74 105 C-74 104.34 -74 103.68 -74 103 C-71.36 103.66 -68.72 104.32 -66 105 C-66.99 104.67 -67.98 104.34 -69 104 C-69 103.34 -69 102.68 -69 102 C-69.66 101.67 -70.32 101.34 -71 101 C-70 100 -70 100 -65 100 C-65.33 98.68 -65.66 97.36 -66 96 C-64.3131 89.3463 -63.011 87.011 -58 82 C-56.68 82 -55.36 82 -54 82 C-54 82.99 -54 83.98 -54 85 C-54.66 85 -55.32 85 -56 85 C-57.5869 90.5542 -58.4747 95.3093 -59 101 C-58.34 100.835 -58.34 100.835 -55 100 C-49.4293 99.8385 -44.5581 100.206 -39 101 C-39.0516 100.3194 -39.0516 100.3194 -39.3125 96.875 C-39 92 -39 92 -34 86 C-32.68 86 -31.36 86 -30 86 C-30 86.99 -30 87.98 -30 89 C-30.66 89 -31.32 89 -32 89 C-32.7468 92.6512 -33.4145 96.3195 -34 100 C-22.2787 100 -13.1683 94.2805 -7.1875 84.3125 C-2.3942 72.6716 -5.9496 59.9934 -8.0625 47.9375 C-9.1133 41.2825 -9.6364 34.7268 -10 28 C-10.1031 26.2056 -10.2063 24.4112 -10.3125 22.5625 C-9.9006 15.2299 -8.188 9.0146 -6 2 C-5.34 2 -4.68 2 -4 2 C-4 1.34 -4 0.68 -4 0 C-2 -1 -2 -1 0 0 Z " fill="#2C2C2B" transform="translate(358,729)"/>
<path d="M0 0 C2.1862 0.7425 4.3725 1.485 6.625 2.25 C13.8659 4.95 20.2861 8.1931 27 12 C28.4231 12.7631 29.8462 13.5263 31.3125 14.3125 C34 16 34 16 34 18 C34.66 18 35.32 18 36 18 C36 18.66 36 19.32 36 20 C36.66 20.33 36.66 20.33 40 22 C40 22.66 40 23.32 40 24 C40.66 24 41.32 24 42 24 C42.33 25.32 42.66 26.64 43 28 C43.66 28 44.32 28 45 28 C45 29.32 45 30.64 45 32 C45.66 32 46.32 32 47 32 C53 43.16 53 43.16 53 47 C53.99 47.33 54.98 47.66 56 48 C58 52 58 52 58 56 C59.65 56.33 61.3 56.66 63 57 C63 57.66 63 58.32 63 59 C63.66 59 64.32 59 65 59 C65 59.66 65 60.32 65 61 C66.32 61 67.64 61 69 61 C69 61.66 69 62.32 69 63 C75.2435 65.1105 81.5539 66.6484 88 68 C85 70 85 70 77 70 C77 69.34 77 68.68 77 68 C75.35 68 73.7 68 72 68 C70.35 67.34 68.7 66.68 67 66 C67 65.34 67 64.68 67 64 C65.35 63.34 63.7 62.68 62 62 C51.8941 54.2135 45.8999 44.1293 40 33 C30.745 19.1175 18.5824 12.0852 3.0625 6.8125 C-4.9018 4.0982 -4.9018 4.0982 -6 3 C-28.9338 -2.2601 -48.9496 -0.0753 -71.1016 7.6953 C-75 9 -75 9 -80 10 C-80 10.66 -80 11.32 -80 12 C-83.6449 14.0394 -87.3136 16.0366 -91 18 C-92.32 18.99 -93.64 19.98 -95 21 C-95.66 21 -96.32 21 -97 21 C-97.66 22.98 -98.32 24.96 -99 27 C-99.66 27 -100.32 27 -101 27 C-101.33 27.99 -101.66 28.98 -102 30 C-102.66 30 -103.32 30 -104 30 C-104.33 31.65 -104.66 33.3 -105 35 C-106.8357 38.3786 -108.7646 41.7071 -110.75 45 C-111.7967 46.7531 -112.8434 48.5063 -113.9219 50.3125 C-121.7345 62.2099 -133.5387 70.555 -148 71 C-148.66 70.34 -149.32 69.68 -150 69 C-145.3417 67.4472 -140.6869 65.9022 -136 64.4375 C-132 63 -132 63 -131 61 C-130.505 60.835 -130.505 60.835 -128 60 C-123.4287 55.219 -120.3185 50.3078 -117.3125 44.4375 C-116.5661 42.9925 -115.8198 41.5474 -115.0508 40.0586 C-113.3587 36.71 -111.6779 33.3557 -110 30 C-107 25 -107 25 -105 25 C-104.34 23.68 -103.68 22.36 -103 21 C-90.4375 9 -90.4375 9 -85 9 C-85 8.34 -85 7.68 -85 7 C-78 4 -78 4 -75 4 C-75 3.34 -75 2.68 -75 2 C-69.5661 -0.3455 -64.0724 -1.8152 -58.3125 -3.125 C-56.8649 -3.4576 -55.4173 -3.7902 -53.9258 -4.1328 C-36.0385 -8.084 -16.9146 -7.2491 0 0 Z " fill="#2A2929" transform="translate(455,467)"/>
<path d="M0 0 C10.0867 2.0173 11.8781 12.1272 15 21 C22.0807 43.0287 22.6054 69.5527 17 92 C16.67 92.165 16.67 92.165 15 93 C15.33 93.99 15.66 94.98 16 96 C14.35 96.33 12.7 96.66 11 97 C10.8741 86.2958 11.3684 75.68 12 65 C12.66 65 13.32 65 14 65 C14.33 63.35 14.66 61.7 15 60 C14.34 60 13.68 60 13 60 C13 55.71 13 51.42 13 47 C11.3706 47.7838 9.7412 48.5675 8.0625 49.375 C2 52 2 52 -7 54 C-9.912 54.6922 -12.824 55.3845 -15.8242 56.0977 C-26.075 58.014 -35.3972 58.499 -45.8125 58.4375 C-49.0983 58.4362 -52.3841 58.4349 -55.7695 58.4336 C-63.9164 58.0509 -71.1174 57.0012 -79 55 C-77 51 -77 51 -74 49 C-71.0458 48.8321 -68.0839 48.7861 -65.125 48.8125 C-63.5395 48.8189 -61.9539 48.8254 -60.3203 48.832 C-56 49 -56 49 -51 50 C-30.5169 49.7662 -8.2186 48.6874 11 41 C11 37.8125 11 37.8125 10 33 C9.6287 30.6487 9.2575 28.2975 8.875 25.875 C7.256 17.7473 3.8363 11.3107 0 4 C0 2.68 0 1.36 0 0 Z " fill="#1F1F1F" transform="translate(477,728)"/>
<path d="M0 0 C4.53 6.04 9 13.3135 9 21 C9.66 21 10.32 21 11 21 C12.4282 24.8085 13.8505 28.6194 15.2422 32.4414 C19.8142 44.2981 26.149 55.2085 32.7031 66.0625 C39 76.8571 39 76.8571 39 81 C39.66 81 40.32 81 41 81 C45 87.2353 45 87.2353 45 91 C45.66 91 46.32 91 47 91 C53 102.28 53 102.28 53 105 C54.32 105 55.64 105 57 105 C56 110 56 110 53.125 113.75 C49.9174 118.1123 48.4562 121.8224 47 127 C49.31 127.99 51.62 128.98 54 130 C54 130.66 54 131.32 54 132 C55.65 131.67 57.3 131.34 59 131 C59.33 132.32 59.66 133.64 60 135 C60.99 134.67 61.98 134.34 63 134 C63 134.66 63 135.32 63 136 C57 135 57 135 55 134 C55 134.66 55 135.32 55 136 C45.5 136 45.5 136 41 130 C40.3125 125.75 40.3125 125.75 40 122 C40.66 122 41.32 122 42 122 C42 120.02 42 118.04 42 116 C39.36 116 36.72 116 34 116 C33.67 115.835 33.67 115.835 32 115 C32 115.66 32 116.32 32 117 C30.02 116.67 28.04 116.34 26 116 C26.33 115.835 26.33 115.835 28 115 C28 114.01 28 113.02 28 112 C28.66 111.835 28.66 111.835 32 111 C32.7336 108.351 33.4037 105.6833 34 103 C34.66 103 35.32 103 36 103 C36.165 102.505 36.165 102.505 37 100 C37.99 100 38.98 100 40 100 C38.125 107.625 38.125 107.625 37 111 C45 111 45 111 47 109 C47 106.69 47 104.38 47 102 C45.68 101.67 44.36 101.34 43 101 C40.5458 97.4131 38.2361 93.7268 36 90 C34.5211 87.6457 33.0419 85.2915 31.5625 82.9375 C28 77 28 77 28 75 C27.34 75 26.68 75 26 75 C24.6214 72.5681 23.3483 70.0761 22.125 67.5625 C21.4147 66.1046 20.7045 64.6466 19.9727 63.1445 C14.3139 51.2555 14.3139 51.2555 13 46 C12.01 45.01 11.02 44.02 10 43 C6.0999 35.7706 3 29.374 3 21 C2.34 21 1.68 21 1 21 C-2.569 5.1379 -2.569 5.1379 0 0 Z " fill="#222222" transform="translate(229,698)"/>

<path d="M0 0 C0 0.66 0 1.32 0 2 C1.7944 2.1444 3.5888 2.2887 5.4375 2.4375 C11 3 11 3 12 4 C12.9178 4.1547 12.9178 4.1547 17.5625 4.9375 C19.3569 5.2881 21.1513 5.6388 23 6 C23 6.66 23 7.32 23 8 C24.0519 8.0619 25.1037 8.1237 26.1875 8.1875 C35.3863 9.7405 43.3011 13.4725 51.1875 18.3125 C57.7593 21.8697 60.7414 22.8798 68 22 C68 21.34 68 20.68 68 20 C82.3709 13.8411 92.2068 11.985 106 20 C106.99 21.32 107.98 22.64 109 24 C104 24 104 24 102 23 C101.67 23.66 101.34 24.32 101 25 C100.34 25 99.68 25 99 25 C99 24.34 99 23.68 99 23 C91.2808 20.4269 86.4988 21.0005 79 24 C75.0077 24.7115 71.008 25.3834 67 26 C72 31 72 31 77 35 C77 35.66 77 36.32 77 37 C68.9261 37 66.6578 35.28 60 31 C48.1518 24.2493 35.773 19.4692 23 14.75 C20.6488 13.8786 18.2975 13.0072 15.875 12.1094 C10 10 10 10 6 9 C6.99 11.31 7.98 13.62 9 16 C10.5871 28.5833 10.0777 34.3067 2 44 C-4 46 -4 46 -11 44 C-11.165 43.505 -11.165 43.505 -12 41 C-12.66 41 -13.32 41 -14 41 C-14.33 39.02 -14.66 37.04 -15 35 C-14.67 35.66 -14.34 36.32 -14 37 C-13.34 37 -12.68 37 -12 37 C-12 37.66 -12 38.32 -12 39 C-5 40 -5 40 1 36 C6.6996 26.0717 3.9175 14.6764 -1 5 C-1 4.01 -1 3.02 -1 2 C-1.66 1.67 -2.32 1.34 -3 1 C-2 0 -2 0 0 0 Z " fill="#232221" transform="translate(464,318)"/>
<path d="M0 0 C0 0.66 0 1.32 0 2 C1.65 2.66 3.3 3.32 5 4 C5.33 5.32 5.66 6.64 6 8 C6.66 8 7.32 8 8 8 C9.8321 16.0613 10.9039 21.0312 6 28 C5.34 28.33 5.34 28.33 2 30 C2 30.66 2 31.32 2 32 C0.845 32.165 0.845 32.165 -5 33 C-5 33.66 -5 34.32 -5 35 C-15.0103 35 -19.3957 33.4065 -25 25 C-25.4375 18.1875 -25.4375 18.1875 -25 12 C-24.01 11.67 -23.02 11.34 -22 11 C-21.67 9.02 -21.34 7.04 -21 5 C-20.01 4.67 -19.02 4.34 -18 4 C-18 3.34 -18 2.68 -18 2 C-17.34 2 -16.68 2 -16 2 C-16 1.34 -16 0.68 -16 0 C-10.6241 -1.344 -5.3132 -1.7711 0 0 Z " fill="#0C0C0D" transform="translate(336,453)"/>
<path d="M0 0 C0 0.66 0 1.32 0 2 C1.98 2.66 3.96 3.32 6 4 C6.33 5.65 6.66 7.3 7 9 C7.66 9 8.32 9 9 9 C11.0184 16.7852 11.2689 19.3726 8 27 C7.01 27 6.02 27 5 27 C4.67 28.32 4.34 29.64 4 31 C-4.1152 35.0576 -9.9378 34.7432 -18 31 C-18 30.34 -18 29.68 -18 29 C-18.66 29 -19.32 29 -20 29 C-24.0114 19.6401 -25.702 13.8531 -20 5 C-12.7741 -0.7807 -9.3359 -0.0915 0 0 Z " fill="#0B0B0C" transform="translate(521,452)"/>
<path d="M0 0 C5.8205 5.8205 4.3232 9.0608 3 17 C0.399 23.4794 -2.8 29.4 -7 35 C-7.66 35 -8.32 35 -9 35 C-9.33 36.32 -9.66 37.64 -10 39 C-10.66 39 -11.32 39 -12 39 C-12.33 39.99 -12.66 40.98 -13 42 C-28.6929 55.0774 -51.6884 58.9935 -71.25 53.125 C-75 51 -75 51 -76 49 C-74.68 47.35 -73.36 45.7 -72 44 C-68.3158 44.9333 -64.653 45.9511 -61 47 C-44.8677 48.1054 -29.7644 45.637 -17 35 C-16.01 35 -15.02 35 -14 35 C-13.67 33.68 -13.34 32.36 -13 31 C-11.68 29.35 -10.36 27.7 -9 26 C-6.9566 21.3522 -4.9528 16.6866 -3 12 C-2.67 11.67 -2.34 11.34 -2 11 C-1.3008 7.3394 -0.6332 3.6726 0 0 Z " fill="#212120" transform="translate(571,553)"/>
<path d="M0 0 C0.1237 1.2066 0.1237 1.2066 0.75 7.3125 C1.8304 15.9254 3.9155 23.3521 8.25 30.9375 C10 34 10 34 10 38 C10.33 37.835 10.33 37.835 12 37 C12.66 37.33 13.32 37.66 14 38 C14 38.66 14 39.32 14 40 C15.32 40.33 16.64 40.66 18 41 C18 41.66 18 42.32 18 43 C21.4775 44.391 24.9801 45.72 28.5 47 C32.0199 48.28 35.5225 49.609 39 51 C43.3984 51.082 43.3984 51.082 48.375 50.8125 C50.0121 50.7364 51.6492 50.6604 53.3359 50.582 C58 50 58 50 65 47 C65.495 47.165 65.495 47.165 68 48 C67.34 49.32 66.68 50.64 66 52 C66.33 52.99 66.66 53.98 67 55 C62 57 62 57 57 57 C56.67 57.33 56.34 57.66 56 58 C35.2969 61.0297 17.9043 54.1303 5 38 C5 37.34 5 36.68 5 36 C4.34 36 3.68 36 3 36 C0.4117 31.2009 -13.9377 0 0 0 Z " fill="#252524" transform="translate(280,551)"/>
<path d="M0 0 C0.99 0 1.98 0 3 0 C3 0.66 3 1.32 3 2 C4.98 2.66 6.96 3.32 9 4 C9.9281 4.4022 9.9281 4.4022 14.625 6.4375 C20.7421 8.8963 26.5747 10.5646 33 12 C34.65 12.3713 36.3 12.7425 38 13.125 C62.6196 17.4334 88.5038 12.8977 110 0 C111.32 0 112.64 0 114 0 C114 0.66 114 1.32 114 2 C113.34 2 112.68 2 112 2 C112 2.66 112 3.32 112 4 C110.35 4.66 108.7 5.32 107 6 C107 6.66 107 7.32 107 8 C105.68 8 104.36 8 103 8 C103 8.66 103 9.32 103 10 C93.119 15 93.119 15 87 15 C86.835 14.835 86.835 14.835 86 14 C86 14.99 86 15.98 86 17 C63.8034 23.3419 38.6948 22.8004 17 15 C17 14.34 17 13.68 17 13 C16.01 12.835 16.01 12.835 11 12 C5 8 5 8 5 6 C4.175 5.67 4.175 5.67 0 4 C0 2.68 0 1.36 0 0 Z " fill="#262524" transform="translate(367,608)"/>
<path d="M0 0 C0.165 0.66 0.165 0.66 1 4 C0.34 4.33 0.34 4.33 -3 6 C-3.33 6.99 -3.66 7.98 -4 9 C-19.2338 15.5288 -32.7736 14.5359 -47 6 C-47 3 -47 3 -43.375 0.4375 C-30.9249 -6.499 -12.6293 -6.7859 0 0 Z " fill="#F1A2B0" transform="translate(446,553)"/>
<path d="M0 0 C0.33 1.32 0.66 2.64 1 4 C1.99 4 2.98 4 4 4 C4.99 4.33 5.98 4.66 7 5 C6.01 6.65 5.02 8.3 4 10 C4.1744 16.191 5.1708 19.3416 8 25 C12.5761 26.8304 16.1527 27.5071 21 28 C21 28.33 21 28.66 21 29 C20.01 29.165 20.01 29.165 15 30 C14.67 31.32 14.34 32.64 14 34 C8.1404 32.0468 3.1164 30.3491 1 24 C1 21.36 1 18.72 1 16 C0.34 16 -0.32 16 -1 16 C-2.8632 22.5211 -3.1653 27.3055 -3 34 C-2.34 34 -1.68 34 -1 34 C1.0238 40.0714 1.3147 42.8649 0 49 C-5.125 53.1 -8.7588 54.3357 -15 56 C-16 52 -16 52 -16 49 C-17.98 49 -19.96 49 -22 49 C-21.67 48.01 -21.34 47.02 -21 46 C-21 46.66 -21 47.32 -21 48 C-9.25 46.25 -9.25 46.25 -7 44 C-8 39 -8 39 -10 33 C-9.7443 20.3436 -6.3835 10.8165 0 0 Z " fill="#3B3938" transform="translate(571,783)"/>
<path d="M0 0 C9.4021 4.7011 9.2478 37.0944 10 46 C10.9381 71.8048 10.9381 71.8048 8 80 C7.01 80 6.02 80 5 80 C3 84 3 84 1 89 C0.67 89 0.34 89 0 89 C-0.1002 82.7366 0.2869 76.7202 1 70.5 C2.9379 50.9835 3.2329 30.3975 0 11 C-0.039 7.3335 -0.0447 3.6664 0 0 Z " fill="#3A3A3D" transform="translate(614,575)"/>
<path d="M0 0 C0.66 0.33 1.32 0.66 2 1 C2 1.66 2 2.32 2 3 C2.99 3 3.98 3 5 3 C3.6023 8.5907 1.1605 8.8751 -4 11 C-5.65 11 -7.3 11 -9 11 C-9 11.66 -9 12.32 -9 13 C-12.3249 14.6835 -15.6585 16.3499 -19 18 C-19.33 18.66 -19.66 19.32 -20 20 C-20.66 20 -21.32 20 -22 20 C-24.0847 28.3387 -23.1474 37.3789 -22.375 45.875 C-22.2512 47.5662 -22.1275 49.2575 -22 51 C-22.33 51.165 -22.33 51.165 -24 52 C-24 52.66 -24 53.32 -24 54 C-23.34 54 -22.68 54 -22 54 C-22 54.99 -22 55.98 -22 57 C-26 58 -26 58 -29 56 C-32.2208 42.9472 -35.1648 24.3401 -25 14 C-17.5767 7.5046 -11.9194 3.4171 -2 2 C-1.34 1.34 -0.68 0.68 0 0 Z " fill="#1D1D1D" transform="translate(235,371)"/>
<path d="M0 0 C1 4 1 4 -1 6 C-0.175 5.835 -0.175 5.835 4 5 C4.165 5.495 4.165 5.495 5 8 C1 11 1 11 -1 11 C-1 11.66 -1 12.32 -1 13 C-10.7369 19.5324 -19.7192 24.7968 -31 28 C-32.5056 28.6187 -34.0113 29.2375 -35.5625 29.875 C-46.4699 34.1377 -57.4816 36.9588 -69 39 C-71.6787 39.9673 -74.3492 40.9586 -77 42 C-77.99 42 -78.98 42 -80 42 C-80 41.34 -80 40.68 -80 40 C-74.5299 36.9169 -68.9741 34.8823 -63 33 C-49.7404 28.7101 -36.8047 23.4877 -24 18 C-23.01 18 -22.02 18 -21 18 C-21 17.34 -21 16.68 -21 16 C-20.2884 15.5875 -20.2884 15.5875 -16.6875 13.5 C-10.2862 9.5607 -5.4425 5.1634 0 0 Z " fill="#2A2A29" transform="translate(575,599)"/>
<path d="M0 0 C-6.4318 3.2159 -12.4241 0.192 -19 -2 C-20.98 -2 -22.96 -2 -25 -2 C-25.99 -2.33 -26.98 -2.66 -28 -3 C-31.0196 -3.0964 -34.0414 -3.1298 -37.0625 -3.125 C-38.6829 -3.1276 -40.3032 -3.1302 -41.9727 -3.1328 C-46 -3 -46 -3 -48 -2 C-51.6664 -1.9588 -55.3336 -1.9579 -59 -2 C-61.4267 -2 -63.6978 -0.7674 -66 0 C-67.4438 0.2681 -68.8875 0.5362 -70.375 0.8125 C-75 2 -75 2 -79.125 4.625 C-83 7 -83 7 -90 7 C-84 -2 -84 -2 -78 -2 C-78 -2.66 -78 -3.32 -78 -4 C-57.7269 -9.9938 -15.9689 -15.9689 0 0 Z " fill="#352B26" transform="translate(462,316)"/>
<path d="M0 0 C4.9732 0.9946 8.3805 2.5228 12.875 4.8125 C14.2337 5.4996 15.5923 6.1866 16.9922 6.8945 C24.6869 10.9369 24.6869 10.9369 28 13 C28 13.66 28 14.32 28 15 C28.66 15 29.32 15 30 15 C30 15.66 30 16.32 30 17 C31.32 17.66 32.64 18.32 34 19 C34 19.66 34 20.32 34 21 C34.66 21 35.32 21 36 21 C36.165 21.66 36.165 21.66 37 25 C37.66 25 38.32 25 39 25 C39 26.32 39 27.64 39 29 C39.66 29 40.32 29 41 29 C47 40.16 47 40.16 47 44 C47.99 44.33 48.98 44.66 50 45 C52 49 52 49 52 53 C53.65 53.33 55.3 53.66 57 54 C57 54.66 57 55.32 57 56 C57.66 56 58.32 56 59 56 C59 56.66 59 57.32 59 58 C60.32 58 61.64 58 63 58 C63 58.66 63 59.32 63 60 C69.2435 62.1105 75.5539 63.6484 82 65 C79 67 79 67 71 67 C71 66.34 71 65.68 71 65 C69.35 65 67.7 65 66 65 C64.35 64.34 62.7 63.68 61 63 C61 62.34 61 61.68 61 61 C59.35 60.34 57.7 59.68 56 59 C45.8941 51.2135 39.8999 41.1293 34 30 C24.954 16.431 13.1045 9.3944 -2 4 C-1.34 2.68 -0.68 1.36 0 0 Z " fill="#3C3C3C" transform="translate(461,470)"/>
<path d="M0 0 C0 0.99 0 1.98 0 3 C-0.66 3 -1.32 3 -2 3 C-3.5869 8.5542 -4.4747 13.3093 -5 19 C-3.68 18.67 -2.36 18.34 -1 18 C4.5707 17.8385 9.4419 18.206 15 19 C14.9484 18.3194 14.9484 18.3194 14.6875 14.875 C15 10 15 10 20 4 C21.32 4 22.64 4 24 4 C24 4.99 24 5.98 24 7 C23.34 7 22.68 7 22 7 C21.2532 10.6512 20.5855 14.3195 20 18 C22.31 18 24.62 18 27 18 C27.66 20.31 28.32 22.62 29 25 C11.3004 25.1081 -6.3245 24.9723 -24 24 C-22.68 23.67 -21.36 23.34 -20 23 C-20 22.34 -20 21.68 -20 21 C-17.36 21.66 -14.72 22.32 -12 23 C-12.99 22.67 -13.98 22.34 -15 22 C-15 21.34 -15 20.68 -15 20 C-15.66 19.67 -16.32 19.34 -17 19 C-16 18 -16 18 -11 18 C-11.33 16.68 -11.66 15.36 -12 14 C-10.2451 7.078 -8.3374 0 0 0 Z " fill="#3F3E3D" transform="translate(304,811)"/>
<path d="M0 0 C-2 4 -2 4 -7 9 C-7.66 10.32 -8.32 11.64 -9 13 C-9.99 13 -10.98 13 -12 13 C-12.165 12.34 -12.165 12.34 -13 9 C-15.5648 9.9313 -18.1267 10.8703 -20.6875 11.8125 C-22.1145 12.3346 -23.5415 12.8566 -25.0117 13.3945 C-29 15 -29 15 -34 18 C-35.32 17.67 -36.64 17.34 -38 17 C-38.66 18.32 -39.32 19.64 -40 21 C-51.7727 27.2576 -51.7727 27.2576 -57 29 C-55.8853 21.1968 -55.4359 20.6618 -49 17 C-48.01 17 -47.02 17 -46 17 C-46 16.34 -46 15.68 -46 15 C-38.7327 11.4628 -31.4283 8.1836 -24 5 C-22.68 4.34 -21.36 3.68 -20 3 C-16.9725 2.214 -13.9283 1.4913 -10.875 0.8125 C-9.2637 0.4477 -7.6523 0.0829 -5.9922 -0.293 C-2 -1 -2 -1 0 0 Z " fill="#242323" transform="translate(378,323)"/>
<path d="M0 0 C-0.33 1.32 -0.66 2.64 -1 4 C0.32 3.67 1.64 3.34 3 3 C3 3.66 3 4.32 3 5 C2.34 5 1.68 5 1 5 C1 5.99 1 6.98 1 8 C0.34 8 -0.32 8 -1 8 C-1.33 9.65 -1.66 11.3 -2 13 C-6.1635 17.9962 -10.0866 21.8199 -15 26 C-16.4438 27.2994 -17.8875 28.5987 -19.375 29.9375 C-23 33 -23 33 -25 33 C-25 33.66 -25 34.32 -25 35 C-25.825 35.165 -25.825 35.165 -30 36 C-30 36.66 -30 37.32 -30 38 C-30.66 38 -31.32 38 -32 38 C-32 38.66 -32 39.32 -32 40 C-32.99 40 -33.98 40 -35 40 C-35 40.66 -35 41.32 -35 42 C-36.65 42.66 -38.3 43.32 -40 44 C-38.625 36.25 -38.625 36.25 -33 34 C-32.67 33.01 -32.34 32.02 -32 31 C-29.3508 28.977 -26.6798 26.9823 -24 25 C-14.1774 16.5323 -14.1774 16.5323 -13 13 C-12.34 13 -11.68 13 -11 13 C-10.67 11.35 -10.34 9.7 -10 8 C-8.68 6.68 -7.36 5.36 -6 4 C-3 0 -3 0 0 0 Z " fill="#2C2B2D" transform="translate(635,711)"/>
<path d="M0 0 C0.99 1.32 1.98 2.64 3 4 C-2 4 -2 4 -4 3 C-4.33 3.66 -4.66 4.32 -5 5 C-5.66 5 -6.32 5 -7 5 C-7 4.34 -7 3.68 -7 3 C-14.7192 0.4269 -19.5012 1.0005 -27 4 C-30.9923 4.7115 -34.992 5.3834 -39 6 C-34 11 -34 11 -29 15 C-29 15.66 -29 16.32 -29 17 C-36.8491 17 -39.5978 15.2097 -46 11 C-45.34 9.68 -44.68 8.36 -44 7 C-43.67 6.01 -43.34 5.02 -43 4 C-44.65 4 -46.3 4 -48 4 C-48 3.67 -48 3.34 -48 3 C-44.7 2.67 -41.4 2.34 -38 2 C-38 1.34 -38 0.68 -38 0 C-23.6291 -6.1589 -13.7932 -8.015 0 0 Z " fill="#323131" transform="translate(570,338)"/>
<path d="M0 0 C-2.0995 21.7543 -2.0995 21.7543 -4 29 C-4.66 29 -5.32 29 -6 29 C-6.33 31.31 -6.66 33.62 -7 36 C-9 38 -9 38 -12 38 C-12 38.66 -12 39.32 -12 40 C-17 41 -17 41 -24 39 C-24.33 36.69 -24.66 34.38 -25 32 C-21 31 -21 31 -20 32 C-14 32 -14 32 -13 31 C-11.7278 23.9661 -10.5379 16.92 -9.3516 9.8711 C-8.9055 7.9336 -8.4595 5.9962 -8 4 C-7.01 4 -6.02 4 -5 4 C-4.67 3.01 -4.34 2.02 -4 1 C-2 0 -2 0 0 0 Z " fill="#2C2C2A" transform="translate(636,408)"/>
<path d="M0 0 C0 0.66 0 1.32 0 2 C2.31 2.33 4.62 2.66 7 3 C7.99 3.66 8.98 4.32 10 5 C11.65 5 13.3 5 15 5 C14 11 14 11 11 14 C10.34 14 9.68 14 9 14 C9 14.66 9 15.32 9 16 C3 19 3 19 -2 19 C-1.67 17.35 -1.34 15.7 -1 14 C0.98 13.34 2.96 12.68 5 12 C5 11.34 5 10.68 5 10 C5.66 10 6.32 10 7 10 C7 9.34 7 8.68 7 8 C5.68 7.8763 4.36 7.7525 3 7.625 C-2 7 -2 7 -6 5.9375 C-13.9434 4.0758 -18.4314 4.7563 -26 8 C-26.33 7.01 -26.66 6.02 -27 5 C-25.35 4.34 -23.7 3.68 -22 3 C-22 2.01 -22 1.02 -22 0 C-22 -0.66 -22 -1.32 -22 -2 C-15.314 -5.343 -6.6794 -1.9735 0 0 Z " fill="#353535" transform="translate(307,341)"/>
<path d="M0 0 C7 8.75 7 8.75 7 13 C7.66 13 8.32 13 9 13 C10.4089 16.3021 11.7351 19.6401 13 23 C13.66 24.65 14.32 26.3 15 28 C15 28.99 15 29.98 15 31 C15.66 31 16.32 31 17 31 C21.2153 42.9234 21.2153 42.9234 20 49 C19.505 49.165 19.505 49.165 17 50 C17 51.65 17 53.3 17 55 C16.67 55 16.34 55 16 55 C15.5462 53.02 15.0925 51.04 14.625 49 C13.3838 43.6532 12.0349 39.0465 10 34 C9.4431 32.3913 8.8863 30.7825 8.3125 29.125 C5.2172 20.9267 1.6166 12.9793 -2 5 C-1.34 4.67 -0.68 4.34 0 4 C0 2.68 0 1.36 0 0 Z " fill="#2A2928" transform="translate(619,540)"/>
<path d="M0 0 C0.0606 1.1924 0.1212 2.3848 0.1836 3.6133 C0.2674 5.164 0.3512 6.7148 0.4375 8.3125 C0.5187 9.8555 0.5999 11.3985 0.6836 12.9883 C1 17 1 17 2 20 C3.3289 35.3423 3.3289 35.3423 1 40 C-0.32 39.67 -1.64 39.34 -3 39 C-3.33 37.68 -3.66 36.36 -4 35 C-4.66 35 -5.32 35 -6 35 C-6.1677 32.2292 -6.3342 29.4584 -6.5 26.6875 C-6.5928 25.1445 -6.6856 23.6015 -6.7812 22.0117 C-6.9086 19.6768 -7 17.3384 -7 15 C-6.01 14.67 -5.02 14.34 -4 14 C-5.32 13.01 -6.64 12.02 -8 11 C-8.25 6.3125 -8.25 6.3125 -8 2 C-7.01 2 -6.02 2 -5 2 C-1 0 -1 0 0 0 Z " fill="#1A1B1A" transform="translate(221,638)"/>
<path d="M0 0 C-1.093 5.1527 -2.3302 9.9905 -4 15 C0.62 15 5.24 15 10 15 C8.68 15.33 7.36 15.66 6 16 C6 17.32 6 18.64 6 20 C7.32 20.33 8.64 20.66 10 21 C10 20.34 10 19.68 10 19 C13.3 19.33 16.6 19.66 20 20 C20 21.98 20 23.96 20 26 C19.835 25.34 19.835 25.34 19 22 C13.5312 21.6797 13.5312 21.6797 6.5 21.875 C-9.5531 22.2889 -9.5531 22.2889 -16 20 C-17 15 -17 15 -16 13 C-15.01 13.165 -15.01 13.165 -10 14 C-9.67 12.02 -9.34 10.04 -9 8 C-5.0656 0 -5.0656 0 0 0 Z " fill="#373636" transform="translate(251,794)"/>
<path d="M0 0 C0.33 1.32 0.66 2.64 1 4 C1.99 4 2.98 4 4 4 C4.99 4.33 5.98 4.66 7 5 C6.01 6.65 5.02 8.3 4 10 C4.1744 16.191 5.1708 19.3416 8 25 C12.5761 26.8304 16.1527 27.5071 21 28 C21 28.33 21 28.66 21 29 C19.02 29.33 17.04 29.66 15 30 C14.67 31.32 14.34 32.64 14 34 C8.1404 32.0468 3.1164 30.3491 1 24 C1 21.36 1 18.72 1 16 C0.34 16 -0.32 16 -1 16 C-1.33 17.155 -1.33 17.155 -3 23 C-4.32 23 -5.64 23 -7 23 C-8.4995 14.0029 -4.6238 7.5962 0 0 Z " fill="#302F2F" transform="translate(571,783)"/>
<path d="M0 0 C0.1237 1.2066 0.1237 1.2066 0.75 7.3125 C1.8304 15.9254 3.9155 23.3521 8.25 30.9375 C10 34 10 34 10 38 C10.33 37.835 10.33 37.835 12 37 C12.66 37.33 13.32 37.66 14 38 C14 38.66 14 39.32 14 40 C15.32 40.66 16.64 41.32 18 42 C15.69 42 13.38 42 11 42 C10.67 42.66 10.34 43.32 10 44 C5 38 5 38 5 36 C4.34 36 3.68 36 3 36 C0.4117 31.2009 -13.9377 0 0 0 Z " fill="#312F2E" transform="translate(280,551)"/>
<path d="M0 0 C1.32 1.32 2.64 2.64 4 4 C2.1065 9.6804 -0.0695 13.5817 -3.3125 18.5625 C-4.2574 20.0282 -5.2023 21.4938 -6.1758 23.0039 C-13.1048 32.808 -22.2065 39.5494 -34 42 C-36.31 41.67 -38.62 41.34 -41 41 C-39.2985 37.597 -35.5387 37.8355 -32 37 C-23.1567 34.3134 -23.1567 34.3134 -22 32 C-21.01 31.67 -20.02 31.34 -19 31 C-14.4287 26.219 -11.3185 21.3078 -8.3125 15.4375 C-7.5661 13.9925 -6.8198 12.5474 -6.0508 11.0586 C-4.3587 7.71 -2.6779 4.3557 -1 1 C-0.67 0.67 -0.34 0.34 0 0 Z " fill="#575657" transform="translate(346,496)"/>
<path d="M0 0 C0.99 1.32 1.98 2.64 3 4 C3.99 4.33 4.98 4.66 6 5 C6.66 3.68 7.32 2.36 8 1 C8 2.32 8 3.64 8 5 C8.66 5 9.32 5 10 5 C14.5 33.5 14.5 33.5 11 37 C8.7391 32.026 6.7307 27.1921 5 22 C4.67 23.98 4.34 25.96 4 28 C3.67 28 3.34 28 3 28 C3 26.02 3 24.04 3 22 C2.34 22 1.68 22 1 22 C1 22.66 1 23.32 1 24 C0.34 24 -0.32 24 -1 24 C-1.33 24.66 -1.66 25.32 -2 26 C-1.3873 22.3239 -0.7309 18.6544 0 15 C0.66 15 1.32 15 2 15 C1.125 7.125 1.125 7.125 0 6 C0 4.02 0 2.04 0 0 Z " fill="#3D3E3E" transform="translate(216,673)"/>
<path d="M0 0 C5.8205 5.8205 4.3232 9.0608 3 17 C0.399 23.4794 -2.8 29.4 -7 35 C-7.66 35 -8.32 35 -9 35 C-9.33 36.32 -9.66 37.64 -10 39 C-10.66 39 -11.32 39 -12 39 C-12.33 39.66 -12.66 40.32 -13 41 C-13 40.01 -13 39.02 -13 38 C-14.65 38.66 -16.3 39.32 -18 40 C-18.165 39.505 -18.165 39.505 -19 37 C-17 35 -17 35 -14 35 C-13.67 33.68 -13.34 32.36 -13 31 C-11.68 29.35 -10.36 27.7 -9 26 C-6.9566 21.3522 -4.9528 16.6866 -3 12 C-2.67 11.67 -2.34 11.34 -2 11 C-1.3008 7.3394 -0.6332 3.6726 0 0 Z " fill="#32312F" transform="translate(571,553)"/>
<path d="M0 0 C-1 5 -1 5 -2 6 C-4.9995 6.338 -7.9995 6.6712 -11 7 C-13 8 -13 8 -14 13 C-14.66 13 -15.32 13 -16 13 C-16 13.66 -16 14.32 -16 15 C-18.31 15.33 -20.62 15.66 -23 16 C-23 15.34 -23 14.68 -23 14 C-23.66 14 -24.32 14 -25 14 C-25.33 15.98 -25.66 17.96 -26 20 C-26.66 21.32 -27.32 22.64 -28 24 C-28.66 24 -29.32 24 -30 24 C-28.0966 17.3382 -25.7763 12.7431 -22 7 C-21.34 7 -20.68 7 -20 7 C-19.67 5.35 -19.34 3.7 -19 2 C-11.5841 -3.9328 -8.6509 -2.8836 0 0 Z " fill="#2D2D2E" transform="translate(294,383)"/>
<path d="M0 0 C0.66 0 1.32 0 2 0 C2 0.66 2 1.32 2 2 C2.66 2 3.32 2 4 2 C7 8 7 8 7 13 C10.96 13 14.92 13 19 13 C18.67 15.31 18.34 17.62 18 20 C8.7054 20.1589 0.0895 20.2412 -9 18 C-9.33 17.34 -9.66 16.68 -10 16 C-7.0589 11.5884 -4.0544 12.361 1 12 C0.67 10.35 0.34 8.7 0 7 C0 4.69 0 2.38 0 0 Z " fill="#1F1F1E" transform="translate(594,799)"/>
<path d="M0 0 C10.0867 2.0173 11.8781 12.1272 15 21 C18 31.1379 18 31.1379 18 35 C15.69 35.66 13.38 36.32 11 37 C10.8962 36.3954 10.8962 36.3954 10.3711 33.3359 C8.3084 22.3754 5.2567 13.8058 0 4 C0 2.68 0 1.36 0 0 Z " fill="#2B2A2A" transform="translate(477,728)"/>
<path d="M0 0 C-2 6 -2 6 -5 11 C-5.66 12.98 -6.32 14.96 -7 17 C-7.66 17 -8.32 17 -9 17 C-9.66 18.98 -10.32 20.96 -11 23 C-11.99 23.99 -12.98 24.98 -14 26 C-14 24.68 -14 23.36 -14 22 C-14.66 22 -15.32 22 -16 22 C-16 22.66 -16 23.32 -16 24 C-16.66 24 -17.32 24 -18 24 C-17.67 22.68 -17.34 21.36 -17 20 C-17.99 19.01 -18.98 18.02 -20 17 C-19.2575 16.0512 -18.515 15.1025 -17.75 14.125 C-15 10 -15 10 -13.125 4.5625 C-12.4238 3.0569 -11.7225 1.5512 -11 0 C-8.69 0 -6.38 0 -4 0 C-2 -1 -2 -1 0 0 Z " fill="#232322" transform="translate(612,561)"/>
<path d="M0 0 C5 2 5 2 8 9 C8 9.99 8 10.98 8 12 C11.63 11.01 15.26 10.02 19 9 C19 9.66 19 10.32 19 11 C20.32 10.67 21.64 10.34 23 10 C23 10.66 23 11.32 23 12 C23.66 12 24.32 12 25 12 C25 10.68 25 9.36 25 8 C25.66 8 26.32 8 27 8 C26 13 26 13 19.9375 15.6875 C11.5207 18.4931 5.9159 20 -3 20 C-2.67 18.02 -2.34 16.04 -2 14 C-1.01 13.67 -0.02 13.34 1 13 C0.67 11.35 0.34 9.7 0 8 C0 5.36 0 2.72 0 0 Z " fill="#313030" transform="translate(615,798)"/>
<path d="M0 0 C7.0445 1.1741 7.8289 1.8444 11 8 C11.3125 13.9375 11.3125 13.9375 11 19 C12.98 19 14.96 19 17 19 C17 19.99 17 20.98 17 22 C17.66 22.33 18.32 22.66 19 23 C18.34 23 17.68 23 17 23 C17 23.66 17 24.32 17 25 C10.6359 26.9193 5.5383 27.0378 -1 26 C1 22 1 22 5 19 C5 11 5 11 2 6 C2 5.01 2 4.02 2 3 C1.34 3 0.68 3 0 3 C0 2.01 0 1.02 0 0 Z " fill="#1F1E1E" transform="translate(538,813)"/>
<path d="M0 0 C0.66 0 1.32 0 2 0 C1.9768 1.4863 1.9536 2.9726 1.9297 4.5039 C1.8268 15.9021 2.1445 26.7508 4 38 C3.34 38 2.68 38 2 38 C1.67 39.32 1.34 40.64 1 42 C0.34 41.67 -0.32 41.34 -1 41 C-1.33 41.66 -1.66 42.32 -2 43 C-4.0055 35.5112 -4.2677 28.5503 -4.25 20.8125 C-4.2552 18.5502 -4.2603 16.2879 -4.2656 13.957 C-4 8 -4 8 -2 2 C-1.34 2 -0.68 2 0 2 C0 1.34 0 0.68 0 0 Z " fill="#2C2C2B" transform="translate(217,695)"/>
<path d="M0 0 C1.32 0 2.64 0 4 0 C4 0.66 4 1.32 4 2 C4.99 2.33 5.98 2.66 7 3 C8.65 4.65 10.3 6.3 12 8 C15.9269 11.1309 19.8205 14.2137 24 17 C22.68 18.65 21.36 20.3 20 22 C14 21 14 21 12 20 C12 19.34 12 18.68 12 18 C10.68 17.67 9.36 17.34 8 17 C4 13 4 13 4 11 C3.01 11 2.02 11 1 11 C-1 8 -1 8 0 4 C0 2.68 0 1.36 0 0 Z " fill="#1A1B1A" transform="translate(476,580)"/>
<path d="M0 0 C5.9668 2.9834 5.0538 6.6467 6 13 C6.1856 13.7116 6.1856 13.7116 7.125 17.3125 C8 21 8 21 8 27 C8.66 27 9.32 27 10 27 C10 27.66 10 28.32 10 29 C11.98 29 13.96 29 16 29 C16 29.33 16 29.66 16 30 C14.35 30 12.7 30 11 30 C11.66 31.98 12.32 33.96 13 36 C7 35 7 35 3 31 C0.2929 23.4803 -1 18.0521 -1 10 C-1.66 10 -2.32 10 -3 10 C-2.67 8.68 -2.34 7.36 -2 6 C-0.35 6.33 1.3 6.66 3 7 C3 6.01 3 5.02 3 4 C2.34 4 1.68 4 1 4 C0.67 2.68 0.34 1.36 0 0 Z " fill="#2B2B2A" transform="translate(210,421)"/>

<path d="M0 0 C1 2 1 2 0 5 C0.66 5.33 1.32 5.66 2 6 C0.68 6 -0.64 6 -2 6 C-2 6.66 -2 7.32 -2 8 C-5.6449 10.0394 -9.3136 12.0366 -13 14 C-14.32 14.99 -15.64 15.98 -17 17 C-17.66 17 -18.32 17 -19 17 C-19.66 18.98 -20.32 20.96 -21 23 C-21.66 23 -22.32 23 -23 23 C-23.33 23.99 -23.66 24.98 -24 26 C-24.66 26 -25.32 26 -26 26 C-26 26.99 -26 27.98 -26 29 C-26.99 29.33 -27.98 29.66 -29 30 C-30 23 -30 23 -29 21 C-28.34 21 -27.68 21 -27 21 C-26.34 19.68 -25.68 18.36 -25 17 C-12.4375 5 -12.4375 5 -7 5 C-7 4.34 -7 3.68 -7 3 C-4.69 2.01 -2.38 1.02 0 0 Z " fill="#39393C" transform="translate(377,471)"/>
<path d="M0 0 C4.0917 6.1376 3.6126 14.5497 1.875 21.5 C-1.5475 27.8887 -4.1156 30.7052 -11 33 C-18 31 -18 31 -19 28 C-19.66 28 -20.32 28 -21 28 C-21.33 26.02 -21.66 24.04 -22 22 C-21.67 22.66 -21.34 23.32 -21 24 C-20.34 24 -19.68 24 -19 24 C-19 24.66 -19 25.32 -19 26 C-12 27 -12 27 -6 23 C-3.7501 18.0985 -2.4877 13.207 -1 8 C-0.34 6.68 0.32 5.36 1 4 C0.34 3.67 -0.32 3.34 -1 3 C-0.67 2.01 -0.34 1.02 0 0 Z " fill="#3E3C3A" transform="translate(471,331)"/>
<path d="M0 0 C2 2 2 2 2 8 C-9.75 19.75 -9.75 19.75 -16 21 C-16 21.66 -16 22.32 -16 23 C-21.038 23.5374 -25.9298 24 -31 24 C-31.33 23.01 -31.66 22.02 -32 21 C-30.2262 20.6494 -28.4525 20.2987 -26.625 19.9375 C-19.8056 17.9432 -15.6072 15.2646 -10 11 C-9.01 10.67 -8.02 10.34 -7 10 C-6.34 8.68 -5.68 7.36 -5 6 C-3.35 4.02 -1.7 2.04 0 0 Z " fill="#2C231C" transform="translate(446,343)"/>
<path d="M0 0 C0.33 0 0.66 0 1 0 C0.835 2.2481 0.67 4.4963 0.5 6.8125 C0 14 0 14 0 17 C0.66 17 1.32 17 2 17 C3.25 24.75 3.25 24.75 1 27 C0.01 27 -0.98 27 -2 27 C-2.33 27.66 -2.66 28.32 -3 29 C-3.33 26.03 -3.66 23.06 -4 20 C-7 21 -7 21 -9 25 C-9.66 25 -10.32 25 -11 25 C-11 24.34 -11 23.68 -11 23 C-11.66 22.67 -12.32 22.34 -13 22 C-12.6906 21.505 -12.6906 21.505 -11.125 19 C-8.9915 14.9839 -8.0277 11.4046 -7 7 C-6.34 6.01 -5.68 5.02 -5 4 C-5 4.66 -5 5.32 -5 6 C-4.01 5.01 -3.02 4.02 -2 3 C-1.34 3 -0.68 3 0 3 C0 2.01 0 1.02 0 0 Z " fill="#2D2D2E" transform="translate(648,687)"/>
<path d="M0 0 C0 0.99 0 1.98 0 3 C-0.66 3 -1.32 3 -2 3 C-3.5869 8.5542 -4.4747 13.3093 -5 19 C-3.02 19 -1.04 19 1 19 C2.6667 19 4.3333 19 6 19 C6 20.65 6 22.3 6 24 C-6.4023 23.5117 -6.4023 23.5117 -10 23 C-12.3622 15.9134 -11.8451 11.7335 -9 5 C-4 0 -4 0 0 0 Z " fill="#242324" transform="translate(304,811)"/>
<path d="M0 0 C-0.66 0.33 -1.32 0.66 -2 1 C-1.835 1.66 -1.835 1.66 -1 5 C-11.6262 8.1375 -22.0731 11.106 -33 13 C-35.6787 13.9673 -38.3492 14.9586 -41 16 C-41.99 16 -42.98 16 -44 16 C-44 15.34 -44 14.68 -44 14 C-38.5299 10.9169 -32.9741 8.8823 -27 7 C-21.6358 5.2645 -16.4797 3.3806 -11.25 1.25 C-5 -1 -5 -1 0 0 Z " fill="#4D4B4B" transform="translate(539,625)"/>
<path d="M0 0 C0 0.66 0 1.32 0 2 C-0.66 2 -1.32 2 -2 2 C-2 2.66 -2 3.32 -2 4 C-3.65 4.66 -5.3 5.32 -7 6 C-7 6.66 -7 7.32 -7 8 C-8.32 8 -9.64 8 -11 8 C-11 8.66 -11 9.32 -11 10 C-20.881 15 -20.881 15 -27 15 C-27.33 14.67 -27.66 14.34 -28 14 C-28 14.99 -28 15.98 -28 17 C-32.5 18.1875 -32.5 18.1875 -37 19 C-37 18.01 -37 17.02 -37 16 C-36.34 16 -35.68 16 -35 16 C-35 15.34 -35 14.68 -35 14 C-36.32 13.67 -37.64 13.34 -39 13 C-36.6488 12.4638 -34.2975 11.9275 -31.875 11.375 C-21.7275 8.8449 -9.7137 0 0 0 Z " fill="#444444" transform="translate(481,608)"/>
<path d="M0 0 C0.99 1.65 1.98 3.3 3 5 C11.5274 10.2928 19.2729 10.3896 29 9 C28 11 28 11 22 13 C21.67 13.33 21.34 13.66 21 14 C21.66 14.33 22.32 14.66 23 15 C22.67 15.66 22.34 16.32 22 17 C1.8966 13.3448 1.8966 13.3448 -3 6 C-4.65 6 -6.3 6 -8 6 C-6.5385 -1.3077 -6.5385 -1.3077 0 0 Z " fill="#333231" transform="translate(366,533)"/>
<path d="M0 0 C0.33 0.66 0.66 1.32 1 2 C1.66 2 2.32 2 3 2 C3 2.66 3 3.32 3 4 C5 3 5 3 7 0 C6.967 2.7713 6.8977 5.5423 6.8125 8.3125 C6.7777 9.8555 6.7429 11.3985 6.707 12.9883 C6 17 6 17 1 20 C0.34 19.67 -0.32 19.34 -1 19 C-1.5 27.625 -1.5 27.625 3 31 C1.68 31.33 0.36 31.66 -1 32 C-0.67 34.97 -0.34 37.94 0 41 C-5.8607 29.2786 -3.4185 13.3768 -1 1 C-0.67 0.67 -0.34 0.34 0 0 Z " fill="#383939" transform="translate(215,621)"/>
<path d="M0 0 C0.33 0.66 0.66 1.32 1 2 C1.495 2.165 1.495 2.165 4 3 C3.34 3 2.68 3 2 3 C1.67 4.65 1.34 6.3 1 8 C-7.636 15.1967 -15.8373 18.4651 -27 18 C-27.99 17.34 -28.98 16.68 -30 16 C-27.03 16 -24.06 16 -21 16 C-21.66 14.68 -22.32 13.36 -23 12 C-24.98 12 -26.96 12 -29 12 C-29 11.67 -29 11.34 -29 11 C-27.0406 10.8969 -25.0813 10.7938 -23.0625 10.6875 C-14.4918 9.8532 -4.3876 8.7751 0 0 Z " fill="#3E3435" transform="translate(447,555)"/>
<path d="M0 0 C0.99 0 1.98 0 3 0 C8.6779 16.4797 8.6779 16.4797 10 25 C9.34 25.66 8.68 26.32 8 27 C1.0558 24.2223 1.1798 20.9152 -1 14 C-1.66 12.02 -2.32 10.04 -3 8 C-3 6.35 -3 4.7 -3 3 C-2.34 3 -1.68 3 -1 3 C-0.67 2.01 -0.34 1.02 0 0 Z " fill="#191918" transform="translate(219,733)"/>
<path d="M0 0 C0.33 1.65 0.66 3.3 1 5 C-0.65 5.66 -2.3 6.32 -4 7 C-5.65 8.65 -7.3 10.3 -9 12 C-15.0055 15.1794 -20.1908 16.7937 -27 17 C-27.99 16.34 -28.98 15.68 -30 15 C-29.34 14.34 -28.68 13.68 -28 13 C-28.66 12.34 -29.32 11.68 -30 11 C-27.9994 10.7319 -25.9987 10.4638 -23.9375 10.1875 C-17 9 -17 9 -10 6 C-9.01 5.67 -8.02 5.34 -7 5 C-6.67 3.68 -6.34 2.36 -6 1 C-5 0 -5 0 0 0 Z " fill="#302F2E" transform="translate(486,532)"/>
<path d="M0 0 C0 0.66 0 1.32 0 2 C-0.66 2 -1.32 2 -2 2 C-2 2.99 -2 3.98 -2 5 C-12.717 6.2675 -23.1865 7.2544 -34 7 C-33.01 5.68 -32.02 4.36 -31 3 C-31.66 3 -32.32 3 -33 3 C-33 2.34 -33 1.68 -33 1 C-29.3751 0.8306 -25.7501 0.6646 -22.125 0.5 C-20.1063 0.4072 -18.0877 0.3144 -16.0078 0.2188 C-10.6642 0.0242 -5.3463 -0.0394 0 0 Z " fill="#2F2E2E" transform="translate(446,622)"/>
<path d="M0 0 C6.4342 3.2171 7.1096 21.0961 7.75 27.5 C7.8325 29.645 7.915 31.79 8 34 C7.67 34.165 7.67 34.165 6 35 C5.5914 37.6562 5.2548 40.3247 5 43 C4.01 43 3.02 43 2 43 C1.9394 41.1927 1.8788 39.3855 1.8164 37.5234 C1.7326 35.1645 1.6488 32.8055 1.5625 30.375 C1.4813 28.0315 1.4001 25.688 1.3164 23.2734 C1 17 1 17 0 11 C-0.039 7.3335 -0.0447 3.6664 0 0 Z " fill="#595B5C" transform="translate(614,575)"/>
<path d="M0 0 C0.66 1.32 1.32 2.64 2 4 C-1 7 -1 7 -5 7 C-4.67 7.99 -4.34 8.98 -4 10 C-6.7891 12.7344 -6.7891 12.7344 -10.625 15.75 C-11.8754 16.7555 -13.1258 17.7609 -14.4141 18.7969 C-18 21 -18 21 -23 20 C-22 16 -22 16 -19 15 C-19 14.34 -19 13.68 -19 13 C-18.34 13 -17.68 13 -17 13 C-17 12.01 -17 11.02 -17 10 C-16.01 10 -15.02 10 -14 10 C-14 9.01 -14 8.02 -14 7 C-11.0217 5.6188 -8.0196 4.2884 -5 3 C-2 0 -2 0 0 0 Z " fill="#212121" transform="translate(285,339)"/>
<path d="M0 0 C0.99 0.33 1.98 0.66 3 1 C2.34 1 1.68 1 1 1 C3.3524 8.0572 13.0137 9.213 19.4375 10.5625 C26 12 26 12 29 16 C18.7595 19.4135 7.9623 15.7506 0 9 C0 8.34 0 7.68 0 7 C-0.66 7 -1.32 7 -2 7 C-2.33 6.01 -2.66 5.02 -3 4 C-2.01 4 -1.02 4 0 4 C0 2.68 0 1.36 0 0 Z " fill="#2B2324" transform="translate(398,555)"/>
<path d="M0 0 C4 4 4 4 4 6 C-2 7 -2 7 -4 6 C-5.7119 6.1856 -7.4237 6.3713 -9.1875 6.5625 C-15 7 -15 7 -22 5 C-17.846 -3.308 -8.217 -2.739 0 0 Z " fill="#181817" transform="translate(420,778)"/>

<path d="M0 0 C0.33 0.99 0.66 1.98 1 3 C1.99 3.33 2.98 3.66 4 4 C6 8 6 8 6 12 C7.65 12.33 9.3 12.66 11 13 C11 13.66 11 14.32 11 15 C11.66 15 12.32 15 13 15 C13 15.66 13 16.32 13 17 C14.32 17 15.64 17 17 17 C17 17.66 17 18.32 17 19 C23.2435 21.1105 29.5539 22.6484 36 24 C33 26 33 26 25 26 C25 25.34 25 24.68 25 24 C23.35 24 21.7 24 20 24 C18.35 23.34 16.7 22.68 15 22 C15 21.34 15 20.68 15 20 C13.35 19.34 11.7 18.68 10 18 C-4 6.8889 -4 6.8889 -4 1 C-2.68 1.33 -1.36 1.66 0 2 C0 1.34 0 0.68 0 0 Z " fill="#555354" transform="translate(507,511)"/>
<path d="M0 0 C11.5727 2.3145 22.4389 8.2276 32 15 C32 15.66 32 16.32 32 17 C33.32 17.66 34.64 18.32 36 19 C36 19.66 36 20.32 36 21 C36.66 21 37.32 21 38 21 C37.835 21.495 37.835 21.495 37 24 C35.02 22.35 33.04 20.7 31 19 C20.8218 12.2145 9.5589 7.853 -2 4 C-1.34 2.68 -0.68 1.36 0 0 Z " fill="#494745" transform="translate(450,488)"/>
<path d="M0 0 C0.33 0 0.66 0 1 0 C1 1.98 1 3.96 1 6 C2.65 5.67 4.3 5.34 6 5 C6 4.34 6 3.68 6 3 C5.34 2.67 4.68 2.34 4 2 C4.99 1.67 5.98 1.34 7 1 C6.9794 2.2581 6.9588 3.5163 6.9375 4.8125 C8 9 8 9 12.25 10.875 C13.8175 11.2463 15.385 11.6175 17 12 C18.65 12.66 20.3 13.32 22 14 C21.67 15.65 21.34 17.3 21 19 C17.3195 18.4145 13.6512 17.7468 10 17 C10 16.34 10 15.68 10 15 C9.01 14.835 9.01 14.835 4 14 C0.0742 8.8345 0 6.7753 0 0 Z " fill="#383839" transform="translate(487,819)"/>
<path d="M0 0 C2.0818 3.2829 4.0901 6.6142 6 10 C5.67 10.165 5.67 10.165 4 11 C4 11.66 4 12.32 4 13 C4.66 13.33 5.32 13.66 6 14 C4.68 15.32 3.36 16.64 2 18 C-2.1813 12.7733 -6.183 7.4991 -10 2 C-7.5352 -2.9296 -4.1563 -2.0782 0 0 Z " fill="#292928" transform="translate(472,569)"/>
</svg>
