<svg xmlns="http://www.w3.org/2000/svg" height="1434" preserveAspectRatio="xMidYMid meet" style="display: block;" version="1.1" viewBox="0 0 1462 2048" width="1024">
<path d="M 788.434 62.9613 C 832.731 61.5179 866.223 75.7388 900.743 102.083 C 960.992 89.3691 1008.3 117.053 1061.14 139.819 C 1159.14 182.049 1242.77 247.391 1308.98 331.015 C 1320.07 345.026 1329.74 360.95 1339.88 375.72 C 1344.19 373.431 1355.69 367.217 1360.15 368.804 L 1360.26 370.901 C 1356.85 377.641 1352.15 381.711 1346.96 387.391 L 1350.11 393.077 C 1352.66 397.709 1354.12 400.083 1359.74 400.481 C 1362.22 399.406 1363.7 398.463 1366.39 398.673 C 1368.56 400.477 1369.05 400.651 1369.78 403.415 C 1367.56 408.224 1363.28 408.164 1360.25 412.973 C 1360.59 417.858 1365.62 426.866 1367.9 431.603 C 1373.83 432.028 1384.61 431.686 1388 436.894 L 1387.3 438.948 C 1384.02 442.286 1378.88 443.367 1374.29 444.841 C 1376.3 453.253 1379.7 461.728 1382.85 469.979 C 1393.1 496.758 1399.67 523.966 1405.73 551.938 C 1406.82 556.956 1406.57 569.868 1407.33 575.972 C 1408.22 583.253 1410.59 593.466 1411.01 600.261 C 1413.64 645.805 1405.33 693.982 1386.06 735.542 C 1369.66 770.894 1334.86 791.955 1297.65 773.772 C 1255.55 810.251 1230.41 826.632 1175.21 842.745 C 1162.56 846.436 1131.88 854.087 1122.11 859.542 C 1122.22 861.781 1130.44 869.619 1132.27 872.457 C 1168.68 928.817 1112.59 934.352 1074.37 936.654 C 1082.04 949.908 1087.21 964.28 1093.45 978.138 C 1133.63 1068.4 1161.8 1163.54 1177.26 1261.12 C 1178.36 1268.46 1175.79 1278.23 1176.56 1284.71 C 1178.57 1301.64 1181.72 1318.72 1181.68 1335.99 C 1181.93 1349.62 1179.78 1385.21 1169.97 1394.62 C 1148.68 1415.05 1157.7 1414.53 1152.45 1438.75 C 1147.73 1461.32 1136.97 1482.2 1121.33 1499.15 C 1116.52 1504.3 1111.12 1508.33 1105.88 1513.79 C 1116.54 1537.74 1120.23 1601.78 1121.32 1629.89 C 1121.77 1641.45 1124.19 1661.61 1120.67 1672.69 C 1118.08 1680.82 1107.34 1685.73 1100.1 1689.37 C 1102.64 1701.28 1100.47 1725.8 1100.46 1738.99 C 1100.43 1781.2 1099.86 1824.03 1093.99 1865.86 C 1091.99 1880.12 1084.92 1902.69 1083.75 1915 C 1083.15 1921.42 1093.8 1941.44 1087.53 1956.13 C 1084.01 1965.68 1072.68 1975.2 1062.88 1979.06 C 1017.21 1997.04 960.47 2000.29 911.944 1999.42 C 882.362 1998.89 854.532 1995.59 825.933 1995.64 C 744.784 1995.78 663.822 2001.48 584.97 1978.23 C 579.22 1976.52 570.358 1972.33 567.731 1966.84 C 568.899 1942.42 706.444 1938.27 727.934 1937.49 C 732.084 1919.96 738.485 1913.43 753.415 1903.51 C 777.094 1887.78 804.529 1885.89 832.065 1885.87 C 839 1885.86 848.592 1885.64 855.419 1883.68 C 873.138 1875.93 867.325 1866.65 887.901 1858.35 C 874.189 1826.33 863.667 1792.58 848.244 1761.26 C 844.821 1754.31 841.666 1746.74 838.48 1739.64 C 830.526 1738.1 804.564 1731.54 799.723 1728.26 C 789.382 1721.26 776.056 1667.9 774.068 1655.92 C 751.069 1688.41 721.659 1729.16 691.508 1754.66 C 688.299 1757.38 681.624 1761.8 677.575 1762.73 C 664.523 1765.73 630.305 1765.71 617.995 1764.32 C 601.349 1780.49 583.894 1803.35 566.79 1820.72 C 538.176 1848.27 510.509 1877.04 482.41 1905.13 C 473.681 1913.86 461.612 1922.16 454.447 1932.12 C 446.921 1942.58 446.643 1956.66 439.091 1967.54 C 427.153 1984.73 398.882 1988.74 379.596 1992.07 C 346.309 1997.81 310.776 1995.13 277.09 1994.06 C 234.425 1992.71 129.071 1990.9 95.6767 1966.43 C 93.0933 1964.54 92.0952 1963.39 91.5717 1960.31 C 94.9639 1955.73 105.816 1955.91 111.684 1954.55 C 128.17 1950.72 145.967 1946.28 162.832 1944.53 C 187.571 1941.97 212.898 1943.02 237.767 1941.44 C 251.54 1940.79 268.092 1942.04 281.745 1942.64 C 251.72 1927.32 212.218 1900.47 188.329 1876.96 C 162.331 1851.37 85.9184 1775.95 140.967 1743.34 C 187.921 1715.52 245.168 1764.87 289.325 1775.9 C 306.762 1780.2 310.979 1764.44 332.028 1777.72 C 336.915 1765.45 340.014 1753.75 344.292 1741.54 C 353.369 1715.62 360.831 1690.45 368.27 1664.01 C 353.621 1648.06 347.086 1641.35 335.303 1623.17 C 338.581 1588 371.823 1509.79 388.719 1476.85 C 371.247 1459.06 357.084 1433.86 354.371 1408.62 C 353.279 1398.48 354.126 1387.78 350.983 1377.98 C 349.07 1372.02 345.727 1366.39 342.871 1360.84 C 336.867 1349.17 332.178 1337.56 329.86 1324.57 C 307.602 1199.84 452.616 1032.12 520.044 934.917 C 541.582 903.868 556.835 869.016 578.354 837.984 C 566.297 846.311 516.262 893.827 506.818 905.503 C 507.319 908.517 507.64 911.185 507.965 914.223 C 504.455 924.388 477.456 965.06 466.425 962.191 C 436.257 954.346 487.379 907.895 494.912 898.914 C 513.094 877.237 531.194 853.985 552.968 836.556 C 562.263 829.263 571.954 822.489 581.996 816.265 C 588.629 812.183 596.544 808.378 602.461 803.533 L 603.321 802.817 C 589.048 792.405 571.894 783.309 556.35 771.871 C 492.062 725.432 440.947 671.247 415.635 594.961 C 388.776 514.017 426.466 402.066 513.086 375.367 C 478.896 326.922 554.157 272.944 581.084 340.738 C 591.672 328.408 607.256 304.474 619.035 290.103 C 653.727 247.779 688.917 225.762 736.063 199.819 C 709.561 189.046 674.152 169.049 660.129 144.705 C 634.065 99.4551 690.425 91.5094 721.528 96.1681 C 742.724 99.3429 758.258 103.898 777.722 109.202 C 765.663 91.6108 763.233 69.6751 788.434 62.9613 z" fill="rgb(61,48,46)" transform="translate(0,0)"></path>
<path d="M 685.949 866.575 C 694.062 867.463 705.554 866.894 714.068 867.368 C 728.026 868.145 741.912 869.809 755.654 872.257 C 789.562 878.297 820.879 887.958 853.723 897.743 C 870.866 902.281 888.677 906.205 905.843 910.522 C 944.649 920.284 982.072 932.292 1022.34 934.12 C 1033.27 934.616 1045.45 934.843 1056.18 936.775 C 1061.24 953.754 1073.19 974.307 1080.19 991.582 C 1093.83 1025.24 1107.05 1065.22 1117.63 1099.95 C 1137.13 1164.02 1181.57 1330.71 1148.26 1389.26 C 1132.99 1416.11 1041.4 1444.08 1010.29 1453.39 C 974.143 1464.21 938.62 1466.63 901.367 1470.49 C 872.097 1473.53 842.974 1478.37 813.502 1479.29 C 783.674 1480.21 753.541 1475.56 723.802 1473.49 C 699.551 1471.81 675.589 1473.09 651.286 1470.46 C 607.26 1465.7 565.375 1454.63 523.091 1441.88 C 482.291 1429.58 442.649 1416.25 405.018 1395.89 C 377.979 1381.26 361.051 1369.39 351.958 1338.49 C 334.577 1279.43 369.305 1200.39 397.293 1149.22 C 408.875 1153.03 426.484 1152.83 435.797 1156.23 C 436.228 1161.65 433.177 1195.73 432.943 1205.48 C 431.626 1260.46 449.468 1332.87 488.687 1373.24 C 494.58 1377.35 506.686 1385.74 513.876 1382.58 C 516.764 1378.45 515.87 1374.29 515.636 1369 C 517.69 1365.04 526.283 1363.3 531.046 1362.1 C 565.845 1353.42 598.068 1342.42 630.447 1326.79 C 666.825 1309.27 710.775 1289.22 739.33 1260.04 C 784.368 1214.01 820.136 1152.38 844.559 1092.84 C 853.253 1071.65 861.317 1049.53 869.141 1027.98 L 868.059 1026.89 C 869.026 1025.78 868.686 1026.31 869.19 1025.39 C 864.19 1029.67 849.882 1055.33 846.14 1062.25 C 846.838 1056.1 850.03 1041.57 847.59 1036.63 C 844.659 1040.97 840.264 1064.2 836.269 1072.9 C 811.212 1127.43 785.312 1187.07 743.324 1230.71 C 717.673 1258.16 687.79 1275.31 655.457 1293.19 C 615.968 1315.02 577.027 1332.26 532.492 1341.1 C 522.329 1343.12 505.008 1349.56 495.557 1349.63 C 492.097 1347.62 489.47 1345.18 486.862 1341.12 C 460.734 1300.51 448.233 1239.61 449.942 1192.8 C 450.423 1179.63 489.006 1145.67 501.249 1137.67 C 513.648 1137.93 528.071 1136.23 540.377 1137.11 C 553.364 1138.04 568.754 1140.72 581.774 1142.68 C 562.871 1126.84 545.978 1124.26 521.771 1121.57 L 521.526 1120.72 C 526.662 1116.36 533.391 1114.53 538.97 1111.86 C 567.004 1098.46 585.281 1100.9 613.749 1097.12 C 584.622 1089.25 552.365 1087.87 524.555 1101.5 C 524.393 1101.03 524.056 1100.21 524.211 1099.77 C 553.833 1016.46 628.893 927.824 685.949 866.575 z" fill="rgb(241,209,119)" transform="translate(0,0)"></path>
<path d="M 422.625 1158.77 C 422.836 1165.23 417.963 1200.65 417.28 1210.39 C 413.026 1271.08 421.895 1321.48 455.742 1372.86 C 460.903 1380.27 467.309 1386.43 474.235 1392.13 C 478.441 1395.59 484.514 1398.49 487.382 1402.91 C 481.755 1401.89 476.322 1399.99 471.278 1397.29 C 442.474 1382.02 424.508 1342.1 415.407 1312.21 C 403.326 1272.52 404.739 1222.03 415.083 1182.08 C 416.827 1175.35 419.445 1164.8 422.625 1158.77 z" fill="rgb(61,48,46)" transform="translate(0,0)"></path>
<path d="M 1007.68 1121.96 L 1008.35 1123.41 C 1007.69 1124.83 1007.03 1126.24 1006.35 1127.65 C 999.532 1141.85 989.121 1156.19 979.825 1168.91 C 941.762 1220.98 894.061 1263.45 832.534 1285.16 L 832.221 1284.95 C 832.293 1283.05 836.665 1281.7 838.554 1280.53 C 902.664 1240.94 967.519 1185.38 1007.68 1121.96 z" fill="rgb(61,48,46)" transform="translate(0,0)"></path>
<path d="M 1054.63 1057.41 L 1056.44 1058.43 C 1056.52 1059.73 1056.6 1060.62 1056.48 1061.93 C 1051.35 1117.3 1012.31 1186.55 969.537 1220.67 L 968.377 1220.33 C 973.494 1213.5 979.887 1207.64 984.847 1200.44 C 1018.05 1152.23 1040.35 1114.08 1054.63 1057.41 z" fill="rgb(61,48,46)" transform="translate(0,0)"></path>
<path d="M 811.566 902.672 C 815.298 904.484 819.346 910.533 821.502 914.126 C 838.136 941.845 850.595 969.714 851.997 1002.35 C 849.977 997.956 846.427 986.825 844.59 981.649 C 839.876 968.4 835.048 955.192 830.104 942.027 C 825.091 928.877 817.579 915.551 811.566 902.672 z" fill="rgb(61,48,46)" transform="translate(0,0)"></path>
<path d="M 938.711 113.255 C 972.12 108.242 1044.5 146.308 1068.05 170.507 C 1114.63 218.379 1124.55 274.585 1126.34 337.621 C 1130.12 324.52 1132.18 310.979 1132.45 297.344 C 1133.33 251.22 1115.04 200.954 1082.93 167.625 C 1155.09 206.923 1244.34 274.339 1292.19 339.944 C 1338.56 404.108 1369.6 478.057 1382.9 556.099 C 1385.37 570.631 1388.61 585.717 1387.67 600.324 C 1386.49 618.869 1388 637.92 1387.1 656.378 C 1385.47 690.193 1375.51 728.914 1350.02 752.572 C 1332.84 768.514 1315.02 758.405 1296.27 757.128 L 1294.85 757.04 C 1291.36 759.156 1287.42 762.298 1284.28 764.962 C 1244.21 799.026 1195.73 819.655 1146.06 835.389 C 1130.59 840.288 1116.42 843.712 1105.92 857.254 C 1109.17 869.417 1117 876.963 1123.43 887.289 C 1126.11 891.578 1129.58 898.564 1128.02 903.652 C 1126.65 908.123 1118.16 910.979 1114.29 912.531 C 1054.45 936.519 903.039 886.79 836.862 873.607 C 789.62 864.197 746.86 857.943 698.489 857.846 C 685.342 857.819 665.456 856.018 653.827 862.608 L 654.085 863.589 L 653.662 862.686 L 654.523 863.564 C 658.512 863.153 664.631 862.819 667.758 865.586 C 662.662 869.928 654.556 878.783 649.633 883.903 C 598.765 934.446 512.224 1049.88 498.536 1119.62 C 487.31 1129.34 471.065 1137.46 460.113 1150.07 C 457.523 1153.05 453.458 1159.02 450.429 1159.51 C 450.147 1154.91 451.036 1149.34 449.076 1145.95 C 441.093 1140.18 413.99 1137.67 403.878 1137.94 C 412.539 1120.66 425.171 1101.81 435.846 1085.5 C 455.827 1054.97 475.713 1023.86 497.881 994.893 C 507.096 982.853 517.135 965.346 527.73 955.098 C 521.785 968.509 495.903 1010.34 501.393 1022.06 C 525.904 1037.27 539.687 940.781 545.331 929.296 C 550.297 919.189 568.323 899.713 576.556 888.874 C 597.002 861.956 617.543 833.406 640.737 808.598 C 661.564 794.928 695.555 781.018 717.283 770.4 C 828.545 716.03 931.652 661.331 1007.74 559.903 C 1060.01 490.227 1089.43 424.36 1092.62 335.278 C 1095.05 267.404 1080.25 195.244 1021.32 153.689 C 1010.73 144.766 992.852 139.661 982.06 132.847 C 973.287 127.307 943.748 117.793 938.711 113.255 z" fill="rgb(241,209,119)" transform="translate(0,0)"></path>
<path d="M 1103.49 433.673 C 1105.75 441.884 1101.99 457.281 1099.75 465.635 C 1090.07 501.758 1072.28 535.681 1050.91 566.282 C 1003.3 634.45 939.255 693.939 865.925 733.46 C 852.002 740.91 837.247 748.852 821.754 751.681 C 822.966 747.573 847.952 730.908 852.536 727.786 C 948.4 662.494 1041.66 589.738 1087.33 479.352 C 1093.38 464.72 1098.01 448.824 1103.49 433.673 z" fill="rgb(61,48,46)" transform="translate(0,0)"></path>
<path d="M 912.668 807.479 C 930.348 803.632 1045.39 824.23 1069.64 830.049 C 1079.44 832.398 1093.43 837.476 1103.03 841.384 C 1096.47 841.867 1091.27 841.841 1084.75 841.762 C 1029.84 839.811 972.139 833.674 918.332 822.151 C 913.663 821.151 898.387 815.74 900.841 809.484 C 904.171 807.246 908.436 807.646 912.668 807.479 z" fill="rgb(61,48,46)" transform="translate(0,0)"></path>
<path d="M 827.491 794.717 C 832.925 795.65 881.492 815.362 889.893 818.504 C 923.029 830.566 956.581 841.452 990.487 851.141 C 999.518 853.734 1045.71 863.886 1049.28 866.574 C 1040.16 867.605 1022.85 865.576 1013.64 864.136 C 955.055 854.973 875.937 828.86 827.491 794.717 z" fill="rgb(61,48,46)" transform="translate(0,0)"></path>
<path d="M 1284.02 474.157 C 1298.51 476.693 1304.13 495.853 1305.36 508.761 C 1306.08 516.423 1303.88 519.629 1299.01 525.036 C 1297.49 524.531 1296 523.953 1294.54 523.304 C 1281.17 517.23 1263.26 481.414 1284.02 474.157 z" fill="rgb(61,48,46)" transform="translate(0,0)"></path>
<path d="M 1231.8 640.326 C 1235.16 642.812 1236.98 656.906 1237.79 661.411 C 1241.59 682.452 1249.59 701.467 1257.96 720.992 C 1261.13 728.381 1275.16 743.788 1275.39 749.322 C 1255.4 737.273 1249.9 731.886 1239.65 709.126 C 1233.91 696.377 1226.61 652.116 1231.8 640.326 z" fill="rgb(61,48,46)" transform="translate(0,0)"></path>
<path d="M 1216.17 308.602 C 1231.9 310.26 1254.57 339.825 1238.32 352.637 C 1229.51 351.753 1225.53 350.055 1219.64 343.304 C 1211.41 333.867 1204.78 318.121 1216.17 308.602 z" fill="rgb(61,48,46)" transform="translate(0,0)"></path>
<path d="M 1265.64 687.716 C 1271.7 691.922 1286.53 721.605 1291.75 730.31 C 1278.88 724.109 1268.63 700.982 1265.64 687.716 z" fill="rgb(61,48,46)" transform="translate(0,0)"></path>
<path d="M 581.369 365.973 C 596.384 348.817 613.509 324.008 628.176 305.186 C 659.32 265.219 712.194 229.499 757.997 208.398 C 763.54 210.098 793 218.239 795.267 220.348 C 794.815 223.233 794.958 222.224 794.149 224.091 C 791.827 229.452 795.183 242.909 797.573 247.877 C 807.595 268.7 834.027 282.66 854.968 290.097 C 878.306 298.385 905.894 305.062 930.457 306.907 C 900.6 328.905 870.492 359.735 862.84 397.385 C 860.606 408.376 863.245 417.523 871.279 425.263 C 877.669 426.346 881.026 426.638 887.527 426.887 C 863.443 459.297 837.423 513.537 834.651 554.506 C 824.963 560.403 823.152 563.789 818.69 574.335 C 827.185 570.3 832.628 565.727 840.047 560.221 C 883.07 528.293 946.847 523.555 972.566 579.359 C 965.523 587.24 958.194 595.754 950.613 603.039 C 931.183 539.663 819.419 573.629 839.056 635.949 C 841.926 645.057 846.664 651.691 854.423 657.268 L 856.241 657.428 C 860.665 648.931 826.545 586.543 884.998 615.172 C 891.116 618.169 899.711 628.472 906.316 627.849 C 909.282 616.581 890.723 604.281 881.118 602.28 C 873.03 600.596 867.9 599.417 859.668 600.642 C 862.026 598.484 865.084 595.258 867.628 593.534 C 899.959 571.622 925.323 580.914 945.182 609.603 C 926.696 631.531 849.776 689.483 823.395 700.482 C 803.681 685.853 790.222 669.061 790.318 643.164 C 788.406 640.172 789.389 640.891 786.474 639.289 C 784.024 641.296 783.434 644.678 783.24 647.91 C 781.611 675.043 787.414 687.747 804.024 707.601 C 804.387 708.035 804.754 708.464 805.127 708.889 C 799.609 712.676 794.619 714.518 788.794 717.618 C 748.031 739.311 705.341 757.776 665.139 780.483 C 656.393 785.423 644.303 792.2 636.732 798.614 C 624.861 794.43 608.95 784.391 598.156 777.506 C 501.97 716.155 387.543 601.275 435.181 476.197 C 448.987 439.949 469.555 409.71 505.175 392.06 C 525.213 381.552 531.683 398.638 542.23 388.262 C 548.145 385.444 559.65 383.594 567.107 378.303 C 572.318 374.606 576.665 367.842 581.369 365.973 z" fill="rgb(254,253,252)" transform="translate(0,0)"></path>
<path d="M 673.695 461.422 C 692.329 457.572 732.938 477.92 745.592 491.422 C 781.558 529.798 772.355 576.876 713.75 576.046 C 633.244 571.119 570.136 473.213 673.695 461.422 z" fill="rgb(235,186,177)" transform="translate(0,0)"></path>
<path d="M 716.12 515.145 C 718.821 514.921 720.198 514.476 722.438 515.928 L 722.447 517.888 C 718.643 522.358 692.961 532.942 685.307 536.731 C 683.553 537.701 682.973 537.666 681.016 538.021 L 680.073 536.74 C 683.749 525.971 705.572 517.36 716.12 515.145 z" fill="rgb(61,48,46)" transform="translate(0,0)"></path>
<path d="M 683.87 496.209 C 686.298 496.764 685.341 496.15 686.866 498.062 C 685.296 506.118 665.276 515.64 658.22 518.262 C 657.266 518.713 657.888 518.53 656.277 518.355 C 658.988 506.959 673.041 498.352 683.87 496.209 z" fill="rgb(61,48,46)" transform="translate(0,0)"></path>
<path d="M 679.178 315.71 C 687.79 314.041 696.716 315.483 704.364 319.78 C 734.299 336.672 727.869 383.26 712.363 407.574 C 698.707 428.987 680.153 441.761 655.773 447.776 C 645.924 448.953 635.415 448.692 626.734 442.992 C 583.201 414.406 629.07 336.996 666.91 328.776 C 670.628 322.856 672.672 318.604 679.178 315.71 z" fill="rgb(61,48,46)" transform="translate(0,0)"></path>
<path d="M 677.092 328.137 C 746.23 337.377 694.982 436.811 646.369 432.757 C 636.909 431.114 623.576 426.34 623.386 414.929 C 627.106 413.459 636.103 417.171 641.668 415.212 C 655.478 410.352 670.039 393.406 676.428 380.934 C 681.832 369.447 689.648 352.223 684.331 339.576 C 682.513 335.252 678.211 332.978 677.092 328.137 z" fill="rgb(254,253,252)" transform="translate(0,0)"></path>
<path d="M 747.302 249.756 C 765.237 252.28 770.328 291.059 761.513 303.321 C 760.251 306.492 760.545 307.473 758.262 308.878 C 756.396 303.726 757.575 291.883 756.693 285.204 C 755.418 275.547 745.111 258.025 747.302 249.756 z" fill="rgb(61,48,46)" transform="translate(0,0)"></path>
<path d="M 1091.01 1520.96 C 1091.42 1521.16 1092.17 1522.05 1092.54 1522.45 C 1095.27 1541.27 1097.11 1562.97 1099.25 1582.16 C 1102.1 1607.75 1107.44 1640.81 1105.85 1665.74 C 1047.57 1698.15 971.216 1720.14 904.49 1722.97 C 890.623 1723.56 817.042 1719.24 807.038 1714.78 C 803.97 1708.44 801.245 1696.78 799.017 1689.52 C 794.132 1673.61 789.734 1657.9 784.043 1642.21 C 792.676 1639.43 804.841 1637.05 813.954 1634.82 L 865.457 1622.14 C 874.435 1619.94 913.196 1611.28 915.232 1601.93 C 913.985 1598.39 914.896 1599.6 912.008 1597.19 C 893.761 1593.44 795.117 1621.08 773.751 1629.6 C 769.414 1637.42 748.992 1660.68 742.638 1668.69 C 722.506 1694.09 698.815 1721.88 680.46 1748.47 C 676.189 1748.39 671.658 1748.49 667.363 1748.51 C 656.725 1747.53 645.941 1747.36 635.052 1746.67 C 581.523 1743.28 529.075 1731.66 479.873 1710.13 C 463.743 1703.07 449.48 1697.41 434.978 1687.39 C 440.372 1676.35 444.596 1660.45 450.199 1648.34 C 467.843 1610.19 484.784 1571.9 501.381 1533.28 L 501.986 1533.51 C 568.148 1559.31 646.013 1573.1 716.808 1576.84 C 735.533 1577.83 755.696 1580.41 774.298 1580.91 C 862.581 1583.32 955.917 1570.63 1039.61 1542.27 C 1055.85 1536.76 1075.12 1527.91 1091.01 1520.96 z" fill="rgb(241,209,119)" transform="translate(0,0)"></path>
<path d="M 902.954 1629.47 C 908.762 1628.86 925.041 1627.74 929.343 1631.14 L 929.036 1632.73 C 920.167 1638.23 870.048 1644.01 856.885 1645.58 C 846.77 1646.11 838.746 1647.39 829.118 1644.41 L 828.782 1643.07 C 832.949 1640.85 895.601 1629.99 902.954 1629.47 z" fill="rgb(61,48,46)" transform="translate(0,0)"></path>
<path d="M 796.142 78.3372 C 833.864 77.4698 878.941 102.028 907.947 124.589 C 919.257 133.386 931.178 145.393 944 151.289 C 937.809 141.627 927.784 128.641 920.887 119.039 C 948.714 131.655 978.191 143.014 1004.13 159.148 C 1056.5 191.717 1074.83 260.924 1076.05 318.94 C 1077.44 384.788 1057.29 447.538 1025.38 504.45 C 1012.67 527.12 995.668 547.299 981.915 569.022 C 981.483 567.934 981.035 566.853 980.572 565.778 C 972.914 548.43 958.683 534.831 941.006 527.968 C 909.655 515.709 884.576 522.726 855.657 535.204 C 858.098 527.007 858.861 518.429 861.598 509.458 C 868.797 485.857 880.13 464.727 892.381 443.458 C 896.629 436.083 904.275 428.436 909.218 419.965 L 909.803 418.948 C 925.329 411.106 945.693 394.341 953.289 378.542 C 953.013 376.793 953.29 377.638 952.013 376.162 C 948.332 377.06 916.61 400.757 909.976 403.883 C 904.29 406.563 893.58 414.486 885.018 412.246 C 882.829 411.673 881.579 410.267 880.531 408.491 C 877.767 403.803 881.372 392.1 883.326 387.235 C 895.172 357.753 919.483 329.723 946.259 312.799 C 955.711 306.824 967.704 302.027 977.757 297.431 C 931.874 286.006 881.371 290.741 838.973 263.642 C 828.229 257.117 809.708 245.232 809.018 231.422 C 808.609 223.235 826.845 222.35 831.953 221.476 C 867.721 215.353 900.058 219.705 934.086 230.587 C 902.075 200.504 852.33 201.364 811.799 209.132 C 767.067 195.151 699.128 174.377 672.552 130.288 C 670.445 126.791 669.505 123.448 670.723 119.495 C 684.159 103.115 766.537 116.173 784.619 125.833 C 799.038 133.535 809.57 141.177 826.403 148.099 C 807.543 129.546 786.837 107.963 783.767 80.5176 C 787.944 79.3441 791.855 78.9322 796.142 78.3372 z" fill="rgb(128,98,89)" transform="translate(0,0)"></path>
<path d="M 382.672 1675.34 C 393.919 1681.9 406.17 1692.88 417.855 1699.96 C 482.075 1738.86 524.674 1752.45 598.85 1761.84 C 577.808 1781.77 562.387 1799.19 542.654 1820.2 C 520.271 1844.02 495.621 1867.36 472.093 1890.21 C 463.374 1898.62 455.426 1908.44 446.864 1917.11 C 437.982 1926.11 436.768 1922.19 425.461 1920.72 C 377.235 1914.42 322.911 1888.58 291.788 1850.82 C 311.217 1848.99 331.522 1838.32 341.544 1820.98 C 346.982 1811.56 342.855 1801.02 345.768 1791.64 C 350.427 1776.63 356.57 1761.85 361.173 1746.79 C 368.242 1722.9 375.228 1699.12 382.672 1675.34 z" fill="rgb(254,253,252)" transform="translate(0,0)"></path>
<path d="M 1080.51 1697.96 L 1081.74 1698.9 C 1083.82 1705.77 1083.1 1722.18 1083.13 1729.82 C 1083.41 1795.01 1075.61 1854.53 1063.25 1918.32 C 1023.7 1927.58 992.117 1930.17 951.644 1925.61 C 938.724 1924.15 928.543 1921.33 915.554 1920.8 C 931.27 1905.35 937.554 1896.26 932.437 1874.2 C 925.545 1859.92 921.205 1856.72 905.032 1857.58 C 895.805 1839.29 889.913 1818.32 882.52 1799.05 C 874.657 1778.55 866.174 1759.78 856.721 1740.03 C 933.438 1747.32 1012.02 1733.92 1080.51 1697.96 z" fill="rgb(254,253,252)" transform="translate(0,0)"></path>
<path d="M 170.736 1752.41 C 189.32 1750.48 228.982 1769.48 245.839 1777.45 C 229.82 1787.72 225.688 1798.95 220 1816.09 C 230.554 1830.46 250.032 1840.7 267.208 1843.86 C 288.85 1847.85 280.625 1858.01 290.467 1869.22 C 314.818 1896.95 354.554 1916.05 389.329 1927.16 C 404.88 1932.13 418.794 1933.39 434.363 1936.57 C 433.578 1938.68 432.743 1942.31 430.503 1942.84 C 415.659 1946.4 384.075 1936.98 370.603 1932.27 C 280.996 1900.96 192.936 1849.06 150.522 1760.34 C 153.006 1754.66 165.105 1752.6 170.736 1752.41 z" fill="rgb(241,209,119)" transform="translate(0,0)"></path>
<path d="M 985.554 1476.3 L 987.551 1475.97 L 988.773 1476.97 C 984.292 1499 977.836 1518.51 964.745 1537.08 C 959.456 1544.59 950.884 1546 942.337 1547.56 C 910.236 1553.42 877.53 1555.79 845.221 1559.83 C 844.761 1559.6 844.415 1559.04 844.032 1558.58 C 857.156 1540.58 863.125 1525.6 867.45 1503.79 C 867.469 1503.7 864.674 1497.33 864.428 1496.77 L 865.31 1494.7 C 868.465 1493.6 884.962 1492.65 889.294 1492.25 C 900.534 1491.2 911.746 1489.86 922.915 1488.23 C 946.371 1484.88 962.708 1480.82 985.554 1476.3 z" fill="rgb(241,209,119)" transform="translate(0,0)"></path>
<path d="M 401.515 1487.35 C 419.619 1498.35 427.107 1502.76 446.572 1511.95 C 424.083 1558.59 404.434 1601.28 388.792 1650.77 C 388.251 1652.76 388.44 1652.91 386.898 1654.19 C 379.44 1652.45 353.845 1625.56 348.814 1617.96 C 353.941 1599.17 369.415 1566.67 377.048 1546.83 C 382.859 1531.72 394.576 1500.3 401.515 1487.35 z" fill="rgb(241,209,119)" transform="translate(0,0)"></path>
<path d="M 605.666 1481.69 C 611.227 1481.81 627.6 1484.93 634.014 1485.98 C 650.925 1488.73 667.886 1491.18 684.887 1493.32 C 692.512 1494.24 726.088 1496.31 730.603 1498.4 C 731.312 1506.94 717.988 1540.66 714.327 1549.9 L 709.781 1557.29 C 702.77 1555.41 686.341 1554.33 678.053 1553.05 C 652.928 1549.19 625.6 1546.22 601.095 1539.8 C 602.712 1520.92 603.765 1500.24 605.666 1481.69 z" fill="rgb(241,209,119)" transform="translate(0,0)"></path>
<path d="M 852.49 1495.49 L 856.204 1495.25 C 860.024 1499.54 854.055 1512.76 852.286 1517.84 C 846.57 1534.24 839.396 1547.79 826.923 1560.02 C 803.11 1560.02 778.787 1563.83 754.521 1560.36 C 749.5 1559.65 739.763 1559.09 734.787 1559.7 C 730.335 1558.95 727.558 1559.62 723.389 1557.64 C 726.47 1547.4 730.238 1541.31 733.267 1531.42 C 736.827 1519.81 737.347 1509.31 742.34 1498 C 755.294 1497.32 770.063 1498.92 783.479 1498.64 C 806.628 1498.17 829.392 1496.59 852.49 1495.49 z" fill="rgb(241,209,119)" transform="translate(0,0)"></path>
<path d="M 751.545 1926.99 C 776.434 1906.48 803.19 1901.83 835.012 1902.4 L 835.886 1903.09 C 834.931 1921.55 836.27 1934.02 857.939 1934.19 C 874.187 1934.33 889.031 1930.34 905.002 1929.18 C 910.163 1928.89 930.812 1936.06 938.207 1937.39 C 959.231 1941.17 981.076 1941.95 1002.37 1941.42 C 1014.9 1941.21 1027.39 1939.98 1039.72 1937.74 C 1045.15 1936.76 1066.43 1931.14 1069.47 1931.35 C 1069.89 1934.4 1069.89 1934.25 1069.11 1937.24 C 1058.71 1942.73 1033.18 1947.21 1021.27 1949.27 C 938.486 1964.01 853.401 1959.06 772.888 1934.82 C 769.147 1933.66 756.443 1929.27 753.195 1929.22 L 751.545 1926.99 z" fill="rgb(241,209,119)" transform="translate(0,0)"></path>
<path d="M 491.197 1450.67 C 513.569 1458.13 536.171 1464.87 558.971 1470.9 C 571.913 1474.25 584.861 1476.07 597.623 1480.17 C 592.45 1497 593.195 1512.81 590.952 1530.29 C 590.635 1532.6 590.289 1534.32 589.791 1536.59 C 584.02 1540.03 507.988 1518.54 498.315 1513.32 C 495.683 1511.89 490.273 1457.75 491.197 1450.67 z" fill="rgb(241,209,119)" transform="translate(0,0)"></path>
<path d="M 455.943 1517.41 C 464.541 1519.67 482.295 1526.65 492.233 1529.88 C 475.856 1561.96 459.24 1592.15 446.229 1626.01 C 439.501 1643.52 431.481 1656.99 427.012 1675.79 C 426.221 1678.95 426.875 1678.12 424.786 1680.18 C 419.253 1679.81 402.284 1667.31 396.017 1663.3 C 397.773 1657.3 400.413 1650.81 402.698 1644.95 C 419.379 1602.19 437.508 1559.39 455.943 1517.41 z" fill="rgb(254,253,252)" transform="translate(0,0)"></path>
<path d="M 141.017 1765.49 C 144.27 1767.56 151.588 1784.58 154.847 1789.96 C 201.653 1867.23 293.872 1922.03 378.661 1947.33 C 386.6 1949.7 396.423 1952.11 404.519 1952.82 C 410.903 1953.38 420.054 1951.7 426.009 1953.3 L 426.595 1954.79 C 424.654 1958.44 422.319 1959.77 419.037 1962.31 C 388.944 1971.4 362.321 1960.74 334.697 1949.06 C 269.317 1921.41 207.247 1882.52 162.235 1826.79 C 153.332 1815.76 126.792 1776.12 141.017 1765.49 z" fill="rgb(254,253,252)" transform="translate(0,0)"></path>
<path d="M 1082.4 1447.98 L 1084.01 1448.27 C 1084.98 1451.06 1084.05 1456.2 1083.66 1459.34 C 1081.17 1479.19 1074 1495.11 1062.93 1511.44 C 1036.59 1522.34 1005.88 1533.07 978.278 1539.8 L 976.786 1539.76 C 977 1536.51 983.494 1529.35 985.398 1525.64 C 993.721 1509.39 997.903 1491.68 999.349 1473.8 C 1025.49 1466.52 1057.54 1458.01 1082.4 1447.98 z" fill="rgb(241,209,119)" transform="translate(0,0)"></path>
<path d="M 412.345 1420.13 C 432.037 1426.8 452.728 1440.34 473.454 1445.57 C 476.579 1446.36 479.53 1447 482.048 1449.05 C 478.973 1466.31 484.411 1493.02 486.666 1510.64 C 474.75 1507.55 425.64 1487.42 418.996 1477.06 C 413.373 1468.3 410.025 1431.29 412.345 1420.13 z" fill="rgb(241,209,119)" transform="translate(0,0)"></path>
<path d="M 751.545 1926.99 L 753.195 1929.22 C 757.236 1932.69 768.159 1939.6 773.002 1941.84 C 859.352 1981.69 982.036 1978.79 1070.94 1951.42 C 1029.66 2001.28 754.265 1986.39 744.811 1937.31 C 745.935 1933.19 748.788 1930.38 751.545 1926.99 z" fill="rgb(254,253,252)" transform="translate(0,0)"></path>
<path d="M 539.866 324.632 C 577.392 328.422 563.576 360.502 581.369 365.973 C 576.665 367.842 572.318 374.606 567.107 378.303 C 559.65 383.594 548.145 385.444 542.23 388.262 C 534.484 382.047 528.373 374.034 524.427 364.92 C 516.54 346.553 520.673 332.24 539.866 324.632 z" fill="rgb(235,186,177)" transform="translate(0,0)"></path>
<path d="M 1134.31 1425.01 L 1134.9 1425.11 L 1135.64 1426.44 C 1131.41 1455.96 1106.38 1493.92 1078.39 1505.52 C 1078.69 1504.55 1078.71 1504.23 1079.19 1503.48 C 1090.57 1485.84 1097.32 1463.65 1094.35 1442.27 C 1107.57 1437.86 1121.12 1430.6 1134.31 1425.01 z" fill="rgb(241,209,119)" transform="translate(0,0)"></path>
<path d="M 312.929 1785.99 C 320.222 1785.92 326.354 1788.3 328.619 1796.32 C 334.607 1817.54 315.559 1832.01 297.475 1837.73 C 292.968 1838.38 286.197 1838.59 281.476 1838.87 C 284.913 1829.69 288.398 1820.54 291.932 1811.4 C 296.783 1799.1 300.479 1791.39 312.929 1785.99 z" fill="rgb(241,209,119)" transform="translate(0,0)"></path>
<path d="M 898.305 1871.13 C 913.313 1870.48 916.262 1875.03 919.198 1888.43 C 915.162 1903.93 909.979 1907.87 896.816 1916.17 C 893.618 1916.35 888.668 1920.67 883.159 1919.78 C 881.417 1916.05 881.643 1905.6 881.846 1901 C 882.539 1885.33 882.782 1877.14 898.305 1871.13 z" fill="rgb(241,209,119)" transform="translate(0,0)"></path>
<path d="M 372.093 1396.69 C 382.85 1403.12 393.554 1409.64 404.202 1416.26 C 402.023 1430.55 400.95 1454.83 407.258 1468.14 L 406.051 1469.84 C 386.535 1454.03 373.738 1421.11 372.093 1396.69 z" fill="rgb(241,209,119)" transform="translate(0,0)"></path>
<path d="M 277.689 1789.36 C 281.46 1790.06 283.569 1790.21 286.839 1792.36 C 287.198 1795.45 282.143 1802.5 280.968 1806.03 C 277.706 1815.82 274.75 1825.42 271.266 1835.17 C 268.637 1836.08 268.963 1835.46 265.461 1833.87 L 251.587 1828.8 C 260.569 1815.24 266.708 1802.41 277.689 1789.36 z" fill="rgb(241,209,119)" transform="translate(0,0)"></path>
<path d="M 253.577 1781.58 C 256.134 1781.91 263.718 1784.93 266.581 1785.98 C 256.193 1798.16 249.514 1807.68 242.195 1821.86 C 237.984 1819.09 233.806 1816.27 229.663 1813.39 C 235.813 1800.31 242.006 1790.49 253.577 1781.58 z" fill="rgb(241,209,119)" transform="translate(0,0)"></path>
<path d="M 866.583 1895.15 C 867.179 1895.23 869.611 1895.7 870.042 1895.72 C 874.292 1895.95 871.207 1914.7 874.891 1918.64 C 875.352 1919.13 875.736 1921.06 875.866 1921.68 L 873.205 1921.53 C 869.991 1922.02 866.986 1923.14 864.627 1921.9 C 864.015 1918.26 863.351 1912.64 863.536 1908.97 C 863.922 1901.35 861.688 1900.22 866.583 1895.15 z" fill="rgb(241,209,119)" transform="translate(0,0)"></path>
<path d="M 845.562 1901.53 C 860.163 1899.99 854.146 1903.89 855.439 1914.95 C 855.704 1917.22 857.215 1921.2 858.029 1923.49 C 855.414 1923.23 852.823 1923.41 850.81 1921.92 C 847.8 1919.7 845.578 1904.65 845.562 1901.53 z" fill="rgb(241,209,119)" transform="translate(0,0)"></path>
<path d="M 495.411 915.075 L 495.457 916.281 C 492.572 923.513 473.266 945.114 467.193 950.14 C 466.989 943.951 490.287 918.995 495.411 915.075 z" fill="rgb(254,253,252)" transform="translate(0,0)"></path>
<path d="M 610.985 816.087 C 611.335 816.471 611.25 817.095 611.336 817.608 C 605.437 824.482 599.651 831.452 593.979 838.515 L 592.964 837.85 C 594.114 827.068 602.448 821.251 610.985 816.087 z" fill="rgb(254,253,252)" transform="translate(0,0)"></path>
<metadata><recraft-signature>{"signed_by": "recraft", "signature_b64": "KZmdNn+572JSBfobGGHsozclPmClv+TfsB7zi6XMF/QjnEUuvvhs3RbURLSb+BUMI8O5IyhaHABza/BFUDz5CA==", "signing_algo": "Ed25519", "generation_timestamp": 1782894108, "identifier": "a1de4687-b8b8-4c97-b5ea-871d53974c80"}</recraft-signature></metadata></svg>