<?xml version="1.0" encoding="UTF-8"?>
<!-- Generated by @neplex/vectorizer (Using visioncortex VTracer) -->
<svg version="1.1" xmlns="http://www.w3.org/2000/svg" width="864" height="1184" viewBox="0 0 864 1184">

<path d="M0 0 C0.33 0 0.66 0 1 0 C0.9588 1.6087 0.9175 3.2175 0.875 4.875 C1 10 1 10 3 12 C3.6773 14.664 4.3424 17.3311 5 20 C5.99 22.31 6.98 24.62 8 27 C9.2879 34.7274 7.527 35.0447 2 40 C1 42 1 42 1 49 C5 53 5 53 10 53 C10.33 54.32 10.66 55.64 11 57 C20.9422 60.3526 20.9422 60.3526 25 59 C25.66 59.66 26.32 60.32 27 61 C26.67 61.66 26.34 62.32 26 63 C26.825 62.835 26.825 62.835 31 62 C31 62.66 31 63.32 31 64 C31.99 64.165 31.99 64.165 37 65 C38.65 65.99 40.3 66.98 42 68 C47 70 47 70 52.0625 69.9375 C57 70 57 70 61 73 C62.65 73.33 64.3 73.66 66 74 C66 74.66 66 75.32 66 76 C67.65 76 69.3 76 71 76 C71 76.66 71 77.32 71 78 C73.64 78 76.28 78 79 78 C79.99 78.33 79.99 78.33 85 80 C91.0629 81.7422 96.7405 83.1058 103 84 C103 84.66 103 85.32 103 86 C105.64 86 108.28 86 111 86 C111 86.66 111 87.32 111 88 C112.65 87.67 114.3 87.34 116 87 C116.33 87.66 116.66 88.32 117 89 C118.98 89.33 120.96 89.66 123 90 C123.99 90.99 124.98 91.98 126 93 C127.1447 93.4125 127.1447 93.4125 132.9375 95.5 C145.5902 100.078 159.3789 106.3789 169 116 C169.66 116 170.32 116 171 116 C171 115.34 171 114.68 171 114 C176 111 176 111 178 111 C178 110.34 178 109.68 178 109 C178.99 109 179.98 109 181 109 C181 108.34 181 107.68 181 107 C184.2959 105.2605 187.6367 103.6052 191 102 C192.2169 101.3606 193.4337 100.7213 194.6875 100.0625 C211.5455 92 211.5455 92 217 92 C217 91.34 217 90.68 217 90 C218.32 90 219.64 90 221 90 C221.33 89.01 221.66 88.02 222 87 C223.98 87 225.96 87 228 87 C228.33 86.67 228.66 86.34 229 86 C231.998 85.3244 234.9981 84.658 238 84 C238.66 83.67 239.32 83.34 240 83 C241.155 82.835 241.155 82.835 247 82 C251.6758 80.6989 256.3431 79.3672 261 78 C262.32 77.67 263.64 77.34 265 77 C269.3345 75.3363 273.6677 73.6693 278 72 C285.0612 69.2916 291.4461 68.4341 299 68 C299 67.34 299 66.68 299 66 C303.429 63.5228 306.9975 62.0005 312 61 C312.33 60.01 312.66 59.02 313 58 C315.31 58.33 317.62 58.66 320 59 C327.1875 56.8125 327.1875 56.8125 330 54 C330.99 54 331.98 54 333 54 C333.66 53.34 334.32 52.68 335 52 C335.66 51.67 336.32 51.34 337 51 C337.8327 45.8526 338.0294 42.1468 337 37 C336.34 37 335.68 37 335 37 C334.505 36.505 334.505 36.505 332 34 C331.34 33.67 330.68 33.34 330 33 C331 27 331 27 333.5 20.0625 C336 13 336 13 337 6 C337.99 6.99 338.98 7.98 340 9 C341.65 8.67 343.3 8.34 345 8 C350.1746 10.0407 355.0224 12.5112 360 15 C360 15.66 360 16.32 360 17 C360.99 17.33 361.98 17.66 363 18 C363 18.66 363 19.32 363 20 C363.66 20 364.32 20 365 20 C365 20.66 365 21.32 365 22 C365.99 22.33 366.98 22.66 368 23 C376.6197 35.9295 377.1537 46.9244 375 62 C374.34 62 373.68 62 373 62 C373 63.32 373 64.64 373 66 C372.34 66 371.68 66 371 66 C371 67.32 371 68.64 371 70 C370.34 70 369.68 70 369 70 C369 70.99 369 71.98 369 73 C368.34 73 367.68 73 367 73 C366.34 74.32 365.68 75.64 365 77 C364.34 77 363.68 77 363 77 C364 79 364 79 368.0625 80.6875 C375.185 84.6611 380.2959 89.6601 386.125 95.3125 C390.5297 99.504 395.2478 103.2131 400 107 C400 107.66 400 108.32 400 109 C400.99 109.33 401.98 109.66 403 110 C404.32 111.65 405.64 113.3 407 115 C407.66 115.33 408.32 115.66 409 116 C409 116.66 409 117.32 409 118 C409.66 118 410.32 118 411 118 C413.0157 120.6548 415.0116 123.3247 417 126 C417.7941 126.8663 417.7941 126.8663 421.8125 131.25 C426 136 426 136 427 140 C428.32 140.66 429.64 141.32 431 142 C431.33 143.32 431.66 144.64 432 146 C432.66 146 433.32 146 434 146 C441.3746 154.7958 447.2812 164.5439 452.9062 174.5156 C455 178 455 178 458 181 C461 188 461 188 461 191 C461.66 191 462.32 191 463 191 C464.0918 193.5248 465.0726 196.0978 466 198.6875 C466.5156 200.1145 467.0312 201.5415 467.5625 203.0117 C468.0369 204.3279 468.5113 205.644 469 207 C469.66 208.65 470.32 210.3 471 212 C471.285 218.7691 471.1543 223.5371 469 230 C468.34 230 467.68 230 467 230 C466.67 231.32 466.34 232.64 466 234 C464.6594 235.815 463.3188 237.63 461.9375 239.5 C456.6381 246.9023 457.9083 249.0131 461 257 C461 257.66 461 258.32 461 259 C457 257 457 257 454 250 C451.4153 251.2923 448.868 252.6636 446.375 254.125 C443 256 443 256 441 256 C441.99 258.145 441.99 258.145 447 269 C453 267 453 267 458 263 C458.66 263 459.32 263 460 263 C460 262.34 460 261.68 460 261 C461.32 261 462.64 261 464 261 C464 259.02 464 257.04 464 255 C464.99 254.67 465.98 254.34 467 254 C470.5069 248.7397 469.2182 244.5454 467 239 C467 238.01 467 237.02 467 236 C467.99 236 468.98 236 470 236 C470 236.66 470 237.32 470 238 C470.66 238 471.32 238 472 238 C472.33 239.32 472.66 240.64 473 242 C473.66 242 474.32 242 475 242 C475.25 254.5 475.25 254.5 473 259 C474.98 260.65 476.96 262.3 479 264 C479 264.66 479 265.32 479 266 C479.66 266 480.32 266 481 266 C485.6582 273.8024 488 278.7413 488 288 C486.68 288.66 485.36 289.32 484 290 C483.9167 293.3323 483.9167 296.6677 484 300 C482 302 482 302 476 302 C474.68 301.34 473.36 300.68 472 300 C472.0412 301.4231 472.0825 302.8463 472.125 304.3125 C472 309 472 309 470 312 C463 311 463 311 460 308 C460 307.34 460 306.68 460 306 C459.34 306 458.68 306 458 306 C457.67 308.31 457.34 310.62 457 313 C455.68 314.65 454.36 316.3 453 318 C451.02 317.67 449.04 317.34 447 317 C447 316.34 447 315.68 447 315 C446.01 314.67 445.02 314.34 444 314 C443.2943 311.3434 442.6272 308.6762 442 306 C441.34 305.67 440.68 305.34 440 305 C439.34 306.32 438.68 307.64 438 309 C434 311 434 311 429 311 C426 308 426 308 426 305 C425.34 305 424.68 305 424 305 C424.0412 306.4231 424.0825 307.8463 424.125 309.3125 C423.8879 320.101 421.872 334.256 417 344 C416.34 344 415.68 344 415 344 C414.67 345.65 414.34 347.3 414 349 C413.67 349.99 413.34 350.98 413 352 C412.01 352 411.02 352 410 352 C409.67 353.98 409.34 355.96 409 358 C408.01 358.33 407.02 358.66 406 359 C405 363 405 363 404.6875 370.4375 C404.1037 380.472 402.382 389.0225 396 397 C395.34 397 394.68 397 394 397 C394 397.66 394 398.32 394 399 C392.35 399.99 390.7 400.98 389 402 C388.4366 406.1424 387.8937 410.29 387.5117 414.4531 C386.1552 426.5066 381.2901 437.7503 377 449 C376.67 450.32 376.34 451.64 376 453 C375.34 453 374.68 453 374 453 C373.67 455.31 373.34 457.62 373 460 C371.7217 462.6935 370.3791 465.3567 369 468 C367.3242 471.9962 365.658 475.9964 364 480 C362.409 483.7001 360.763 487.3787 359 491 C358.34 491 357.68 491 357 491 C356.67 492.65 356.34 494.3 356 496 C354.3125 499.25 354.3125 499.25 352 503 C351.175 504.5469 350.35 506.0938 349.5 507.6875 C341.1763 517.9435 319.8627 520.4832 307.0078 521.3281 C300.7641 522.3748 300.2924 526.5122 298 532 C297.34 532 296.68 532 296 532 C295.67 533.32 295.34 534.64 295 536 C294.67 536.66 294.34 537.32 294 538 C293.34 538 292.68 538 292 538 C291.67 539.65 291.34 541.3 291 543 C289.3945 545.704 287.7253 548.3709 286 551 C285.505 551.825 285.505 551.825 283 556 C281.35 557.98 279.7 559.96 278 562 C278 562.66 278 563.32 278 564 C280.31 564.66 282.62 565.32 285 566 C285 566.66 285 567.32 285 568 C286.65 568.33 288.3 568.66 290 569 C290.66 569.33 291.32 569.66 292 570 C292 570.66 292 571.32 292 572 C293.32 572.66 294.64 573.32 296 574 C298.6337 579.2674 296.7701 582.3831 294 587 C277.2362 593.6111 258.3294 590.5291 241.125 587 C236 586 236 586 231.375 585.5625 C222.7806 584.4575 219.6742 582.809 214 576 C213.068 571.1248 213.0041 566.6514 213.0625 561.6875 C213 557 213 557 211 553 C209.6694 543.9073 208.9695 535.7791 209.625 526.625 C209.4187 524.1087 209.2125 521.5925 209 519 C203.3125 516.5625 203.3125 516.5625 197 516 C188.2069 512.4828 188.2069 512.4828 185 505 C184.6819 501.688 184.3697 498.3755 184.0625 495.0625 C182.4344 486.5711 182.4344 486.5711 176.3984 484.168 C170.5196 483.718 166.5035 483.8483 161 486 C158.1401 491.4526 158.2613 496.9315 158 503 C156.4375 509 156.4375 509 154 513 C148.75 514.125 148.75 514.125 144 514 C144 514.66 144 515.32 144 516 C142.35 516.0206 140.7 516.0412 139 516.0625 C138.175 516.3822 138.175 516.3822 134 518 C133.5 525.875 133.5 525.875 133.7773 530.5195 C134.0608 536.2234 133.0919 541.4119 132 547 C131.835 548.485 131.67 549.97 131.5 551.5 C131 555 131 555 129 559 C128.9784 563.5857 129.197 568.1348 129.418 572.7148 C129 577 129 577 124 582 C123.34 582 122.68 582 122 582 C122 582.66 122 583.32 122 584 C69.9749 595.0496 69.9749 595.0496 50 587 C47 583 47 583 47 575 C51.9416 570.0584 57.6154 565 65 565 C62 559 62 559 59 555 C59 553.68 59 552.36 59 551 C58.01 550.67 57.02 550.34 56 550 C56 549.34 56 548.68 56 548 C55.34 548 54.68 548 54 548 C52.6667 545.3333 51.3333 542.6667 50 540 C48.8244 538.3706 47.6488 536.7413 46.4375 535.0625 C43 530 43 530 41.75 524.875 C41.1725 523.5963 40.595 522.3175 40 521 C35.0625 520.5625 35.0625 520.5625 29 521 C17.7229 519.4819 17.7229 519.4819 14 517 C11.342 516.6033 8.6745 516.2631 6 516 C6 515.34 6 514.68 6 514 C3.36 514 0.72 514 -2 514 C-7.7176 508.2824 -11.1738 502.0256 -15 495 C-16.2169 492.7725 -17.4338 490.545 -18.6875 488.25 C-24.1238 477.9928 -28.7722 467.8044 -33 457 C-34.3981 453.5048 -35.8392 450.0267 -37.3125 446.5625 C-46.7889 423.4225 -46.7889 423.4225 -47.625 411 C-48.4712 403.3703 -50.5034 400.4009 -57 396 C-57 395.34 -57 394.68 -57 394 C-57.99 393.67 -58.98 393.34 -60 393 C-63.7564 385.3767 -65.032 380.8002 -64.6875 372.1875 C-64.6289 364.9717 -65.503 361.9685 -71 357 C-73.8728 352.4035 -75.8416 348.0364 -78 343 C-78.66 341.68 -79.32 340.36 -80 339 C-80.3333 336 -80.6667 333 -81 330 C-81.66 328.68 -82.32 327.36 -83 326 C-84.5329 317.063 -84.0958 307.9735 -84.0625 298.9375 C-84.0535 295.7703 -84.0445 292.603 -84.0352 289.3398 C-84.0236 286.9177 -84.012 284.4955 -84 282 C-86.1708 282.0335 -88.3416 282.067 -90.5781 282.1016 C-104.1842 281.9154 -114.2788 277.0409 -125 269 C-125 268.34 -125 267.68 -125 267 C-129 265 -129 265 -133 264 C-136 268.9375 -136 268.9375 -139 275 C-139.8044 276.5263 -140.6087 278.0525 -141.4375 279.625 C-141.9531 280.7387 -142.4688 281.8525 -143 283 C-142.67 283.33 -142.34 283.66 -142 284 C-141.175 283.34 -141.175 283.34 -137 280 C-135.68 280 -134.36 280 -133 280 C-134 285 -134 285 -136 288.4375 C-138 292 -138 292 -139 298 C-134.9403 295.1894 -131.5094 292.5094 -128 289 C-127.01 289.33 -126.02 289.66 -125 290 C-125.8624 296.0367 -126.8899 302.0054 -128 308 C-123 303 -123 303 -119.9375 298.625 C-118.9681 297.4288 -117.9988 296.2325 -117 295 C-115.68 295.33 -114.36 295.66 -113 296 C-112.6094 299.8164 -112.6094 299.8164 -112.75 304.5625 C-112.7861 306.1313 -112.8222 307.7001 -112.8594 309.3164 C-112.9058 310.532 -112.9522 311.7476 -113 313 C-108.1015 309.7343 -107.1409 305.2326 -106.5 299.625 C-106.335 298.4288 -106.17 297.2325 -106 296 C-105.01 295.67 -104.02 295.34 -103 295 C-98 300 -98 300 -93 306 C-92.67 306 -92.34 306 -92 306 C-91.835 302.865 -91.835 302.865 -91 287 C-90.01 287 -89.02 287 -88 287 C-85.0237 295.3023 -84.4279 303.3798 -89 311 C-90 312 -90 312 -96 312 C-97.65 310.35 -99.3 308.7 -101 307 C-101.66 307 -102.32 307 -103 307 C-104.3454 309.9946 -105.6778 312.9951 -107 316 C-110 319 -110 319 -115 318 C-118 313 -118 313 -118 306 C-119.65 307.65 -121.3 309.3 -123 311 C-130.3537 312.6463 -130.3537 312.6463 -133 310 C-133.4055 306.6747 -133.7431 303.3401 -134 300 C-134.66 300.66 -134.66 300.66 -138 304 C-143 303 -143 303 -146 301 C-146 294 -146 294 -145 291 C-146.32 290.67 -147.64 290.34 -149 290 C-150.7674 279.3956 -146.9186 272.8729 -140 265 C-139.175 264.34 -139.175 264.34 -135 261 C-135.6875 256.75 -135.6875 256.75 -137 252 C-137 242.8549 -135.3215 240.3215 -129 234 C-129.9196 230.6436 -130.9338 227.3128 -132 224 C-134.1499 207.2306 -124.2503 187.8129 -114 175 C-111.8582 171.4303 -109.7817 167.821 -107.75 164.1875 C-104.5141 158.8482 -101.1751 154.5927 -97 150 C-96.67 149.01 -96.34 148.02 -96 147 C-95.34 147 -94.68 147 -94 147 C-93.67 145.68 -93.34 144.36 -93 143 C-89 138 -89 138 -84 133 C-79.8871 128.4542 -76.4137 124.1205 -73 119 C-71.02 117.35 -69.04 115.7 -67 114 C-65.68 112.35 -64.36 110.7 -63 109 C-62.34 109 -61.68 109 -61 109 C-60.67 108.34 -60.67 108.34 -59 105 C-52.5385 99 -52.5385 99 -50 99 C-49.67 98.34 -49.67 98.34 -48 95 C-41.5385 89 -41.5385 89 -39 89 C-39 88.34 -39 87.68 -39 87 C-37.68 86.67 -36.36 86.34 -35 86 C-35 85.34 -35 84.68 -35 84 C-34.01 84 -33.02 84 -32 84 C-32 83.34 -32 82.68 -32 82 C-27 79 -27 79 -25 79 C-26 75 -26 75 -29 74 C-37.7598 63.0502 -39.6466 46.3631 -35.4375 33.0625 C-23.4 13 -23.4 13 -14 13 C-14 12.34 -14 11.68 -14 11 C-9.0378 9.0744 -5.3539 8 0 8 C0 5.36 0 2.72 0 0 Z " fill="#EEC468" transform="translate(261,440)"/>
<path d="M0 0 C0.33 0 0.66 0 1 0 C1.25 8.75 1.25 8.75 -1 11 C-1.825 11.33 -1.825 11.33 -6 13 C-7.32 13.99 -8.64 14.98 -10 16 C-10.66 16 -11.32 16 -12 16 C-12 16.66 -12 17.32 -12 18 C-12.5053 18.3506 -12.5053 18.3506 -15.0625 20.125 C-24.4029 26.945 -29.4389 34.3335 -29.3125 46 C-29.3086 47.5469 -29.3048 49.0938 -29.3008 50.6875 C-29 55 -29 55 -27 61 C-27 62.65 -27 64.3 -27 66 C-26.34 66.33 -26.34 66.33 -23 68 C-21.5975 69.5881 -20.195 71.1762 -18.75 72.8125 C-12.1342 80.0376 -6.2804 83.2032 3 86 C4.2723 86.4924 5.5446 86.9848 6.8555 87.4922 C13.5146 89.4439 19.9637 89.92 26.875 90.5 C35.9738 91.2651 44.2508 92.3974 53 95 C57.327 95.7065 61.6613 96.3689 66 97 C68.8762 97.514 71.7512 98.0351 74.625 98.5625 C79.5619 99.4528 84.3031 100.1161 89.3125 100.5625 C94 101 94 101 98 103 C100.666 103.3385 103.3327 103.6717 106 104 C107.65 104.66 109.3 105.32 111 106 C111.8869 106.1547 111.8869 106.1547 116.375 106.9375 C122 108 122 108 129 111 C133.7251 112.5093 138.4637 113.9644 143.2109 115.4023 C147 117 147 117 148 121 C142.4745 119.9546 137.3478 118.7826 132 117 C128.0879 116.2828 124.1757 115.5664 120.2617 114.8594 C114.0656 113.6099 108.0556 111.7987 102 110 C97.5909 109.1182 93.1802 108.3287 88.75 107.5625 C84.1521 106.7589 79.6144 105.9121 75.0625 104.875 C70.3885 103.8683 65.7607 103.4023 61 103 C61 102.34 61 101.68 61 101 C59.7212 101.0412 58.4425 101.0825 57.125 101.125 C50.6136 100.9921 44.3088 100.3348 37.8477 99.5586 C34.6523 99.1904 31.4511 98.8689 28.2461 98.5977 C13.4913 97.3225 -1.03 95.3325 -13 86 C-14.65 85.01 -16.3 84.02 -18 83 C-19.32 82.01 -20.64 81.02 -22 80 C-22.33 80.66 -22.33 80.66 -24 84 C-27.636 87.0371 -31.3046 90.0355 -35 93 C-36.65 94.65 -38.3 96.3 -40 98 C-40.66 98 -41.32 98 -42 98 C-42.165 98.495 -42.165 98.495 -43 101 C-44.32 101.33 -45.64 101.66 -47 102 C-47.33 102.66 -47.33 102.66 -49 106 C-54 111 -54 111 -56 111 C-56.33 111.66 -56.33 111.66 -58 115 C-63.5385 121 -63.5385 121 -66 121 C-66.165 121.66 -66.165 121.66 -67 125 C-70.3003 128.6964 -73.6372 132.3603 -77 136 C-79.0121 138.6575 -81.0148 141.3223 -83 144 C-88 149 -88 149 -90 149 C-90.33 150.65 -90.66 152.3 -91 154 C-96 160 -96 160 -98 160 C-98.33 161.65 -98.66 163.3 -99 165 C-102.8277 171.4631 -106.8336 177.7504 -111 184 C-112.6998 187.3166 -114.3669 190.6501 -116 194 C-116.99 195.98 -117.98 197.96 -119 200 C-124.1262 214.1863 -126.8267 225.6241 -116.3359 238.1914 C-106.4579 247.7876 -94.9301 254.3934 -82 259 C-81.6623 257.1579 -81.3245 255.3159 -80.9766 253.418 C-80.5305 251.0319 -80.0845 248.6459 -79.625 246.1875 C-79.4046 244.9983 -79.4046 244.9983 -78.2891 238.9805 C-77 233 -77 233 -75 230 C-74.4019 227.8963 -73.8037 225.7925 -73.1875 223.625 C-71.153 216.5332 -68.7498 209.8409 -66 203 C-65.1338 200.8344 -64.2675 198.6688 -63.375 196.4375 C-61 191 -61 191 -58 187 C-57.67 186.01 -57.67 186.01 -56 181 C-55.34 181 -54.68 181 -54 181 C-53.835 180.01 -53.835 180.01 -53 175 C-51.5116 172.1361 -49.9167 169.3264 -48.25 166.5625 C-47.3889 165.12 -46.5278 163.6776 -45.6406 162.1914 C-43 158 -43 158 -40.3398 154.6797 C-37.2407 149.8059 -36.43 145.2094 -35.3125 139.5625 C-34.6057 136.0283 -33.8537 132.5017 -33 129 C-32.34 129 -31.68 129 -31 129 C-31 132.96 -31 136.92 -31 141 C-30.34 141 -29.68 141 -29 141 C-28.67 139.68 -28.34 138.36 -28 137 C-19.48 125 -19.48 125 -17 125 C-18.2934 130.1736 -20.9979 133.6169 -24 138 C-24.99 139.65 -25.98 141.3 -27 143 C-27.66 143 -28.32 143 -29 143 C-29.33 144.32 -29.66 145.64 -30 147 C-32 152 -32 152 -34.9375 156.875 C-38 162 -38 162 -41 169 C-42.2566 171.7037 -43.5756 174.3809 -45 177 C-45.66 177 -46.32 177 -47 177 C-47.165 177.99 -47.165 177.99 -48 183 C-49.641 186.3461 -51.3109 189.678 -53 193 C-54.4396 196.6288 -55.836 200.275 -57.1875 203.9375 C-60.7906 213.686 -60.7906 213.686 -63 217 C-63.6856 219.6619 -64.3536 222.3283 -65 225 C-65.33 225.33 -65.66 225.66 -66 226 C-66.33 228.31 -66.66 230.62 -67 233 C-67.66 234.32 -68.32 235.64 -69 237 C-69.7112 239.6551 -70.3684 242.3248 -71 245 C-71.5156 246.8563 -72.0312 248.7125 -72.5625 250.625 C-74.1018 257.4515 -74.5897 264.0244 -75 271 C-75.33 271.66 -75.66 272.32 -76 273 C-76.9051 280.5468 -77.3356 288.0968 -77.6875 295.6875 C-77.7945 297.8364 -77.9015 299.9852 -78.0117 302.1992 C-78 308 -78 308 -76 315 C-75.9381 316.5469 -75.8762 318.0938 -75.8125 319.6875 C-74.4053 330.6204 -70.6774 341.5377 -65 351 C-65 351.66 -65 352.32 -65 353 C-64.34 353 -63.68 353 -63 353 C-60.8709 355.8388 -58.7464 358.6811 -56.6484 361.543 C-51.4603 368.315 -45.8399 374.8701 -39 380 C-39 380.66 -39 381.32 -39 382 C-47.0065 380.6656 -57.1415 375.7171 -61 368 C-60.7569 380.1565 -53.7879 390.2373 -45 398 C-44.01 398.99 -43.02 399.98 -42 401 C-40.845 401.495 -40.845 401.495 -35 404 C-35.33 402.6594 -35.66 401.3188 -36 399.9375 C-37 395 -37 395 -37 388 C-32.4342 389.5219 -32.6811 392.3452 -31.375 396.8125 C-30.9496 398.2421 -30.5242 399.6716 -30.0859 401.1445 C-29.3514 403.7523 -28.6571 406.3717 -28 409 C-25.013 409.7227 -22.0092 410.3761 -19 411 C-15.3195 412.6358 -11.652 414.3014 -8 416 C-5.69 416.66 -3.38 417.32 -1 418 C-0.0311 407.1658 -0.0311 407.1658 -1 402 C-6.5 398.5 -6.5 398.5 -12 397 C-11.9897 397.8044 -11.9897 397.8044 -11.9375 401.875 C-12 407 -12 407 -13 409 C-13.66 409 -14.32 409 -15 409 C-16 406 -16 406 -15.6875 400.75 C-17.6884 391.9839 -23.0572 391.2983 -31 388 C-35.375 385.75 -35.375 385.75 -38 384 C-38 383.01 -38 382.02 -38 381 C-32 382 -32 382 -26 385 C-23.3418 386.0224 -20.6753 387.0233 -18 388 C-14.4974 389.4011 -11.0196 390.865 -7.5625 392.375 C-0.796 395.0816 5.9877 397.0339 13 399 C14.155 399.495 14.155 399.495 20 402 C22.9977 402.6769 25.9983 403.3411 29 404 C31.8378 404.8179 34.6708 405.6527 37.5 406.5 C45.7035 408.9396 53.8529 410.7726 62.25 412.4375 C66.8087 413.3566 71.3578 414.3322 75.875 415.4375 C84.8261 417.4005 93.8326 418.7581 102.8906 420.1328 C108 421 108 421 109 422 C113.29 422 117.58 422 122 422 C131.4382 422.3119 140.8757 422.6479 150.3125 423 C184.1359 424.2589 184.1359 424.2589 196.5625 423.0625 C204.7158 422.3142 212.8171 421.8221 221 421.5625 C231.427 421.17 240.8839 419.529 251 417 C253.64 417 256.28 417 259 417 C260.32 416.34 261.64 415.68 263 415 C264.0312 414.8659 264.0312 414.8659 269.25 414.1875 C275.9151 413.1662 281.8018 411.5444 288.1758 409.4219 C296.5502 406.9536 305.1268 405.3533 313.6797 403.625 C319.7355 402.068 324.498 399.9071 330 397 C334.6635 395.6556 339.3302 394.3224 344 393 C347.6805 391.3642 351.348 389.6986 355 388 C358.9844 386.6208 362.9821 385.2784 367 384 C367.99 383.67 368.98 383.34 370 383 C368.538 390.3102 364.4318 390.8925 358 394 C357.34 394 356.68 394 356 394 C356.0412 395.7325 356.0825 397.465 356.125 399.25 C356 405 356 405 354 409 C353.34 409 352.68 409 352 409 C351.9326 404.4174 351.8846 400.4617 353 396 C351.7625 396.6394 350.525 397.2787 349.25 397.9375 C345 400 345 400 341 401 C340.3906 404.8164 340.3906 404.8164 340.25 409.5625 C340.1933 411.1313 340.1366 412.7001 340.0781 414.3164 C340.0523 415.532 340.0266 416.7476 340 418 C351.625 414.25 351.625 414.25 355 412 C356.32 412 357.64 412 359 412 C359 411.34 359 410.68 359 410 C360.2375 409.67 361.475 409.34 362.75 409 C369.9105 405.6304 370.5258 399.2592 372.0625 391.9375 C373 388 373 388 376 387 C376.25 398.375 376.25 398.375 374 404 C375.2787 403.175 376.5575 402.35 377.875 401.5 C382 399 382 399 384 399 C384 398.34 384 397.68 384 397 C386.319 395.3135 388.6528 393.6471 391 392 C391.33 391.34 391.66 390.68 392 390 C392.66 390 393.32 390 394 390 C394.33 388.35 394.66 386.7 395 385 C399.7059 372.2941 399.7059 372.2941 401 371 C401 369.35 401 367.7 401 366 C400.01 367.65 399.02 369.3 398 371 C386.209 381 386.209 381 380 381 C382.3359 376.3283 385.3114 373.6886 389 370 C391.0345 367.3595 393.0323 364.6906 395 362 C396.4025 360.2675 397.805 358.535 399.25 356.75 C403 352 403 352 405 348 C405.99 348 406.98 348 408 348 C408.7454 345.0186 409.4049 342.015 410 339 C410.66 337.68 411.32 336.36 412 335 C412.6982 331.6731 413.3659 328.3397 414 325 C414.33 324.01 414.66 323.02 415 322 C415 319.69 415 317.38 415 315 C415.33 314.01 415.66 313.02 416 312 C419.0282 290.8025 415.8545 267.4907 410 247 C409.1141 243.7947 408.2397 240.5861 407.375 237.375 C407.152 236.5539 407.152 236.5539 406.0234 232.3984 C405 228 405 228 405 223 C404.34 222.67 403.68 222.34 403 222 C401.9927 219.3799 401.0696 216.7273 400.1875 214.0625 C397.9072 207.3941 395.2241 201.274 392 195 C391 192 390 189 389 186 C387.6727 183.6632 386.3386 181.3303 385 179 C383.6631 176.2199 382.3515 173.4276 381.0625 170.625 C378.2543 164.6037 375.3169 158.7609 372 153 C371.5256 152.1234 371.5256 152.1234 369.125 147.6875 C359.9024 130.9024 359.9024 130.9024 356 127 C356.33 126.01 356.66 125.02 357 124 C365.75 134.625 365.75 134.625 368 138 C368.2888 136.185 368.5775 134.37 368.875 132.5 C369.2463 130.685 369.6175 128.87 370 127 C370.66 127 371.32 127 372 127 C373 129 373 129 373.5 133.5625 C374 138 374 138 375 139 C375.2681 140.5056 375.5362 142.0113 375.8125 143.5625 C377.9986 153.5726 383.6384 161.3523 389 170 C391 174 391 174 391 177 C391.66 177 392.32 177 393 177 C398 187.2381 398 187.2381 398 190 C398.66 190 399.32 190 400 190 C401.7559 194.298 403.3999 198.6416 405 203 C405.9926 205.5923 406.9852 208.1846 408.0078 210.8555 C420 242.9098 420 242.9098 420 258 C439.76 251.24 439.76 251.24 447 244 C447.66 244 448.32 244 449 244 C449.33 243.01 449.66 242.02 450 241 C451.0931 240.2988 452.1862 239.5975 453.3125 238.875 C457.8672 235.3239 459.0176 232.3808 461 227 C461.6394 225.515 462.2787 224.03 462.9375 222.5 C464.2789 216.8186 463.2147 214.3581 461 209 C460.34 206.9375 459.68 204.875 459 202.75 C457 197 457 197 454 192 C454 191.01 454 190.02 454 189 C453.34 189 452.68 189 452 189 C449.9375 185.3681 447.9453 181.696 446 178 C445.2162 176.7006 444.4325 175.4013 443.625 174.0625 C442 171 442 171 442 167 C440.68 166.34 439.36 165.68 438 165 C437.34 163.35 436.68 161.7 436 160 C435.175 159.175 435.175 159.175 431 155 C426 148.4444 426 148.4444 426 146 C424.68 145.34 423.36 144.68 422 144 C421.67 143.01 421.34 142.02 421 141 C420.34 141 419.68 141 419 141 C419 140.01 419 139.02 419 138 C418.01 137.67 417.02 137.34 416 137 C407.2322 126.9289 407.2322 126.9289 406 122 C404.68 121.67 403.36 121.34 402 121 C400.68 119.35 399.36 117.7 398 116 C396.68 114.68 395.36 113.36 394 112 C394 111.34 394 110.68 394 110 C392.68 109.34 391.36 108.68 390 108 C387 106 387 106 387 104 C385.68 103.34 384.36 102.68 383 102 C383 101.34 383 100.68 383 100 C381.68 99.34 380.36 98.68 379 98 C378.34 96.68 377.68 95.36 377 94 C375.68 93.67 374.36 93.34 373 93 C373 92.34 373 91.68 373 91 C371.68 90.34 370.36 89.68 369 89 C366.3333 86.3333 363.6667 83.6667 361 81 C360.01 80.67 359.02 80.34 358 80 C357.67 80.99 357.34 81.98 357 83 C356.34 83 355.68 83 355 83 C355 83.66 355 84.32 355 85 C354.01 85 353.02 85 352 85 C352 85.66 352 86.32 352 87 C335.875 96.0458 319.1825 98.6252 301 99.4375 C294.063 99.7793 287.4668 100.7119 280.6523 102.1211 C274.669 103.2514 268.657 104.044 262.625 104.875 C253.4383 106.2112 244.7653 107.9571 235.8906 110.6328 C222.8484 114.2788 209.4041 117.0851 196 119 C199.5566 108.3303 233.6815 103.3812 244 101 C250.0856 99.8589 256.0148 98.9988 262.1875 98.5 C267.3689 98.0543 271.947 97.1661 277 96 C281.7235 95.1984 286.4519 94.4352 291.1836 93.6836 C295 93 295 93 297 92 C297.7941 92.0103 297.7941 92.0103 301.8125 92.0625 C307 92 307 92 312 90 C315.1178 89.5141 318.2444 89.0831 321.375 88.6875 C339.7002 86.0165 351.6152 81.1022 363 66 C363.66 66 364.32 66 365 66 C369.5535 50.2379 370.7893 36.291 359 24 C358.34 23.67 357.68 23.34 357 23 C357 22.34 357 21.68 357 21 C355.35 20.34 353.7 19.68 352 19 C350.35 17.35 348.7 15.7 347 14 C344.7022 12.6063 342.3751 11.2574 340 10 C340.33 9.34 340.66 8.68 341 8 C348.4843 9.0692 353.4196 11.3771 360 15 C360 15.66 360 16.32 360 17 C360.99 17.33 361.98 17.66 363 18 C363 18.66 363 19.32 363 20 C363.66 20 364.32 20 365 20 C365 20.66 365 21.32 365 22 C365.99 22.33 366.98 22.66 368 23 C376.6197 35.9295 377.1537 46.9244 375 62 C374.34 62 373.68 62 373 62 C373 63.32 373 64.64 373 66 C372.34 66 371.68 66 371 66 C371 67.32 371 68.64 371 70 C370.34 70 369.68 70 369 70 C369 70.99 369 71.98 369 73 C368.34 73 367.68 73 367 73 C366.34 74.32 365.68 75.64 365 77 C364.34 77 363.68 77 363 77 C364 79 364 79 368.0625 80.6875 C375.185 84.6611 380.2959 89.6601 386.125 95.3125 C390.5297 99.504 395.2478 103.2131 400 107 C400 107.66 400 108.32 400 109 C400.99 109.33 401.98 109.66 403 110 C404.32 111.65 405.64 113.3 407 115 C407.66 115.33 408.32 115.66 409 116 C409 116.66 409 117.32 409 118 C409.66 118 410.32 118 411 118 C413.0157 120.6548 415.0116 123.3247 417 126 C417.7941 126.8663 417.7941 126.8663 421.8125 131.25 C426 136 426 136 427 140 C428.32 140.66 429.64 141.32 431 142 C431.33 143.32 431.66 144.64 432 146 C432.66 146 433.32 146 434 146 C441.3746 154.7958 447.2812 164.5439 452.9062 174.5156 C455 178 455 178 458 181 C461 188 461 188 461 191 C461.66 191 462.32 191 463 191 C464.0918 193.5248 465.0726 196.0978 466 198.6875 C466.5156 200.1145 467.0312 201.5415 467.5625 203.0117 C468.0369 204.3279 468.5113 205.644 469 207 C469.66 208.65 470.32 210.3 471 212 C471.285 218.7691 471.1543 223.5371 469 230 C468.34 230 467.68 230 467 230 C466.67 231.32 466.34 232.64 466 234 C464.6594 235.815 463.3188 237.63 461.9375 239.5 C456.6381 246.9023 457.9083 249.0131 461 257 C461 257.66 461 258.32 461 259 C457 257 457 257 454 250 C451.4153 251.2923 448.868 252.6636 446.375 254.125 C443 256 443 256 441 256 C441.99 258.145 441.99 258.145 447 269 C453 267 453 267 458 263 C458.66 263 459.32 263 460 263 C460 262.34 460 261.68 460 261 C461.32 261 462.64 261 464 261 C464 259.02 464 257.04 464 255 C464.99 254.67 465.98 254.34 467 254 C470.5069 248.7397 469.2182 244.5454 467 239 C467 238.01 467 237.02 467 236 C467.99 236 468.98 236 470 236 C470 236.66 470 237.32 470 238 C470.66 238 471.32 238 472 238 C472.33 239.32 472.66 240.64 473 242 C473.66 242 474.32 242 475 242 C475.25 254.5 475.25 254.5 473 259 C474.98 260.65 476.96 262.3 479 264 C479 264.66 479 265.32 479 266 C479.66 266 480.32 266 481 266 C485.6582 273.8024 488 278.7413 488 288 C486.68 288.66 485.36 289.32 484 290 C483.9167 293.3323 483.9167 296.6677 484 300 C482 302 482 302 476 302 C474.68 301.34 473.36 300.68 472 300 C472.0412 301.4231 472.0825 302.8463 472.125 304.3125 C472 309 472 309 470 312 C463 311 463 311 460 308 C460 307.34 460 306.68 460 306 C459.34 306 458.68 306 458 306 C457.67 308.31 457.34 310.62 457 313 C455.68 314.65 454.36 316.3 453 318 C451.02 317.67 449.04 317.34 447 317 C447 316.34 447 315.68 447 315 C446.01 314.67 445.02 314.34 444 314 C443.2943 311.3434 442.6272 308.6762 442 306 C441.34 305.67 440.68 305.34 440 305 C439.34 306.32 438.68 307.64 438 309 C434 311 434 311 429 311 C426 308 426 308 426 305 C425.34 305 424.68 305 424 305 C424.0412 306.4231 424.0825 307.8463 424.125 309.3125 C423.8879 320.101 421.872 334.256 417 344 C416.34 344 415.68 344 415 344 C414.67 345.65 414.34 347.3 414 349 C413.67 349.99 413.34 350.98 413 352 C412.01 352 411.02 352 410 352 C409.67 353.98 409.34 355.96 409 358 C408.01 358.33 407.02 358.66 406 359 C405 363 405 363 404.6875 370.4375 C404.1037 380.472 402.382 389.0225 396 397 C395.34 397 394.68 397 394 397 C394 397.66 394 398.32 394 399 C392.35 399.99 390.7 400.98 389 402 C388.4366 406.1424 387.8937 410.29 387.5117 414.4531 C386.1552 426.5066 381.2901 437.7503 377 449 C376.67 450.32 376.34 451.64 376 453 C375.34 453 374.68 453 374 453 C373.67 455.31 373.34 457.62 373 460 C371.7217 462.6935 370.3791 465.3567 369 468 C367.3242 471.9962 365.658 475.9964 364 480 C362.409 483.7001 360.763 487.3787 359 491 C358.34 491 357.68 491 357 491 C356.67 492.65 356.34 494.3 356 496 C354.3125 499.25 354.3125 499.25 352 503 C351.175 504.5469 350.35 506.0938 349.5 507.6875 C341.1763 517.9435 319.8627 520.4832 307.0078 521.3281 C300.7641 522.3748 300.2924 526.5122 298 532 C297.34 532 296.68 532 296 532 C295.67 533.32 295.34 534.64 295 536 C294.67 536.66 294.34 537.32 294 538 C293.34 538 292.68 538 292 538 C291.67 539.65 291.34 541.3 291 543 C289.3945 545.704 287.7253 548.3709 286 551 C285.505 551.825 285.505 551.825 283 556 C281.35 557.98 279.7 559.96 278 562 C278 562.66 278 563.32 278 564 C280.31 564.66 282.62 565.32 285 566 C285 566.66 285 567.32 285 568 C286.65 568.33 288.3 568.66 290 569 C290.66 569.33 291.32 569.66 292 570 C292 570.66 292 571.32 292 572 C293.32 572.66 294.64 573.32 296 574 C298.6337 579.2674 296.7701 582.3831 294 587 C277.2362 593.6111 258.3294 590.5291 241.125 587 C236 586 236 586 231.375 585.5625 C222.7806 584.4575 219.6742 582.809 214 576 C213.068 571.1248 213.0041 566.6514 213.0625 561.6875 C213 557 213 557 211 553 C209.6694 543.9073 208.9695 535.7791 209.625 526.625 C209.4187 524.1087 209.2125 521.5925 209 519 C203.3125 516.5625 203.3125 516.5625 197 516 C188.2069 512.4828 188.2069 512.4828 185 505 C184.6819 501.688 184.3697 498.3755 184.0625 495.0625 C182.4344 486.5711 182.4344 486.5711 176.3984 484.168 C170.5196 483.718 166.5035 483.8483 161 486 C158.1401 491.4526 158.2613 496.9315 158 503 C156.4375 509 156.4375 509 154 513 C148.75 514.125 148.75 514.125 144 514 C144 514.66 144 515.32 144 516 C142.35 516.0206 140.7 516.0412 139 516.0625 C138.175 516.3822 138.175 516.3822 134 518 C133.5 525.875 133.5 525.875 133.7773 530.5195 C134.0608 536.2234 133.0919 541.4119 132 547 C131.835 548.485 131.67 549.97 131.5 551.5 C131 555 131 555 129 559 C128.9784 563.5857 129.197 568.1348 129.418 572.7148 C129 577 129 577 124 582 C123.34 582 122.68 582 122 582 C122 582.66 122 583.32 122 584 C69.9749 595.0496 69.9749 595.0496 50 587 C47 583 47 583 47 575 C51.9416 570.0584 57.6154 565 65 565 C62 559 62 559 59 555 C59 553.68 59 552.36 59 551 C58.01 550.67 57.02 550.34 56 550 C56 549.34 56 548.68 56 548 C55.34 548 54.68 548 54 548 C52.6667 545.3333 51.3333 542.6667 50 540 C48.8244 538.3706 47.6488 536.7413 46.4375 535.0625 C43 530 43 530 41.75 524.875 C41.1725 523.5963 40.595 522.3175 40 521 C35.0625 520.5625 35.0625 520.5625 29 521 C17.7229 519.4819 17.7229 519.4819 14 517 C11.342 516.6033 8.6745 516.2631 6 516 C6 515.34 6 514.68 6 514 C3.36 514 0.72 514 -2 514 C-7.7176 508.2824 -11.1738 502.0256 -15 495 C-16.2169 492.7725 -17.4338 490.545 -18.6875 488.25 C-24.1238 477.9928 -28.7722 467.8044 -33 457 C-34.3981 453.5048 -35.8392 450.0267 -37.3125 446.5625 C-46.7889 423.4225 -46.7889 423.4225 -47.625 411 C-48.4712 403.3703 -50.5034 400.4009 -57 396 C-57 395.34 -57 394.68 -57 394 C-57.99 393.67 -58.98 393.34 -60 393 C-63.7564 385.3767 -65.032 380.8002 -64.6875 372.1875 C-64.6289 364.9717 -65.503 361.9685 -71 357 C-73.8728 352.4035 -75.8416 348.0364 -78 343 C-78.66 341.68 -79.32 340.36 -80 339 C-80.3333 336 -80.6667 333 -81 330 C-81.66 328.68 -82.32 327.36 -83 326 C-84.5329 317.063 -84.0958 307.9735 -84.0625 298.9375 C-84.0535 295.7703 -84.0445 292.603 -84.0352 289.3398 C-84.0236 286.9177 -84.012 284.4955 -84 282 C-86.1708 282.0335 -88.3416 282.067 -90.5781 282.1016 C-104.1842 281.9154 -114.2788 277.0409 -125 269 C-125 268.34 -125 267.68 -125 267 C-129 265 -129 265 -133 264 C-136 268.9375 -136 268.9375 -139 275 C-139.8044 276.5263 -140.6087 278.0525 -141.4375 279.625 C-141.9531 280.7387 -142.4688 281.8525 -143 283 C-142.67 283.33 -142.34 283.66 -142 284 C-141.175 283.34 -141.175 283.34 -137 280 C-135.68 280 -134.36 280 -133 280 C-134 285 -134 285 -136 288.4375 C-138 292 -138 292 -139 298 C-134.9403 295.1894 -131.5094 292.5094 -128 289 C-127.01 289.33 -126.02 289.66 -125 290 C-125.8624 296.0367 -126.8899 302.0054 -128 308 C-123 303 -123 303 -119.9375 298.625 C-118.9681 297.4288 -117.9988 296.2325 -117 295 C-115.68 295.33 -114.36 295.66 -113 296 C-112.6094 299.8164 -112.6094 299.8164 -112.75 304.5625 C-112.7861 306.1313 -112.8222 307.7001 -112.8594 309.3164 C-112.9058 310.532 -112.9522 311.7476 -113 313 C-108.1015 309.7343 -107.1409 305.2326 -106.5 299.625 C-106.335 298.4288 -106.17 297.2325 -106 296 C-105.01 295.67 -104.02 295.34 -103 295 C-98 300 -98 300 -93 306 C-92.67 306 -92.34 306 -92 306 C-91.835 302.865 -91.835 302.865 -91 287 C-90.01 287 -89.02 287 -88 287 C-85.0237 295.3023 -84.4279 303.3798 -89 311 C-90 312 -90 312 -96 312 C-97.65 310.35 -99.3 308.7 -101 307 C-101.66 307 -102.32 307 -103 307 C-104.3454 309.9946 -105.6778 312.9951 -107 316 C-110 319 -110 319 -115 318 C-118 313 -118 313 -118 306 C-119.65 307.65 -121.3 309.3 -123 311 C-130.3537 312.6463 -130.3537 312.6463 -133 310 C-133.4055 306.6747 -133.7431 303.3401 -134 300 C-134.66 300.66 -134.66 300.66 -138 304 C-143 303 -143 303 -146 301 C-146 294 -146 294 -145 291 C-146.32 290.67 -147.64 290.34 -149 290 C-150.7674 279.3956 -146.9186 272.8729 -140 265 C-139.175 264.34 -139.175 264.34 -135 261 C-135.6875 256.75 -135.6875 256.75 -137 252 C-137 242.8549 -135.3215 240.3215 -129 234 C-129.9196 230.6436 -130.9338 227.3128 -132 224 C-134.1499 207.2306 -124.2503 187.8129 -114 175 C-111.8582 171.4303 -109.7817 167.821 -107.75 164.1875 C-104.5141 158.8482 -101.1751 154.5927 -97 150 C-96.67 149.01 -96.34 148.02 -96 147 C-95.34 147 -94.68 147 -94 147 C-93.67 145.68 -93.34 144.36 -93 143 C-89 138 -89 138 -84 133 C-79.8871 128.4542 -76.4137 124.1205 -73 119 C-71.02 117.35 -69.04 115.7 -67 114 C-65.68 112.35 -64.36 110.7 -63 109 C-62.34 109 -61.68 109 -61 109 C-60.67 108.34 -60.67 108.34 -59 105 C-52.5385 99 -52.5385 99 -50 99 C-49.67 98.34 -49.67 98.34 -48 95 C-41.5385 89 -41.5385 89 -39 89 C-39 88.34 -39 87.68 -39 87 C-37.68 86.67 -36.36 86.34 -35 86 C-35 85.34 -35 84.68 -35 84 C-34.01 84 -33.02 84 -32 84 C-32 83.34 -32 82.68 -32 82 C-27 79 -27 79 -25 79 C-26 75 -26 75 -29 74 C-37.7598 63.0502 -39.6466 46.3631 -35.4375 33.0625 C-23.4 13 -23.4 13 -14 13 C-14 12.34 -14 11.68 -14 11 C-9.0378 9.0744 -5.3539 8 0 8 C0 5.36 0 2.72 0 0 Z " fill="#28251E" transform="translate(261,440)"/>
<path d="M0 0 C3.5132 10.5397 -11.9947 30.3931 -17.6523 39.25 C-23.2628 48.2117 -23.2628 48.2117 -22 52 C-21.01 51.67 -20.02 51.34 -19 51 C-17.02 51 -15.04 51 -13 51 C-8.875 49.125 -8.875 49.125 -5 47 C-4.34 46.67 -4.34 46.67 -1 45 C-0.67 45.66 -0.34 46.32 0 47 C-6 52 -6 52 -9 53 C-9.66 54.32 -10.32 55.64 -11 57 C-9.68 56.67 -8.36 56.34 -7 56 C-7 55.34 -7 54.68 -7 54 C-5.02 53.34 -3.04 52.68 -1 52 C0.98 50.35 2.96 48.7 5 47 C5.66 47 6.32 47 7 47 C7.33 45.68 7.66 44.36 8 43 C9.32 43 10.64 43 12 43 C12.33 42.01 12.66 41.02 13 40 C13.5156 39.5772 13.5156 39.5772 16.125 37.4375 C21.9482 32.2717 25.8435 26.3129 29.3125 19.375 C29.8694 18.2613 30.4262 17.1475 31 16 C31.66 16 32.32 16 33 16 C33.33 14.68 33.66 13.36 34 12 C35.6875 6.6875 35.6875 6.6875 38 2 C46.3909 3.3985 46.414 6.4478 49.3125 14.125 C52.8334 23.1319 57.0395 30.8794 62.875 38.5625 C67 44 67 44 67 46 C62.3819 43.6909 60.6421 41.3739 57.5 37.3125 C56.5616 36.1124 55.6231 34.9123 54.6562 33.6758 C48 24.4647 48 24.4647 48 21 C47.01 21 46.02 21 45 21 C50.55 34.764 60.437 49.2185 74 56 C74 56.66 74 57.32 74 58 C75.32 58.33 76.64 58.66 78 59 C79.65 59.66 81.3 60.32 83 61 C87.0657 61.6255 90.8855 62 95 62 C100 65 100 65 100 67 C103.31 68.0747 106.6463 69.0707 110 70 C115.5937 71.8646 114.7957 77.7037 115.9375 82.8516 C117.452 88.7648 119.8693 93.7822 123 99 C123 99.66 123 100.32 123 101 C123.66 101 124.32 101 125 101 C127.0369 104.9813 129.0304 108.985 131 113 C132.0312 114.7119 133.0625 116.4237 134.125 118.1875 C148.2435 141.8206 146.5016 166.8055 134.0625 190.625 C131.5735 194.9934 129.1378 199.0778 126 203 C125.34 203 124.68 203 124 203 C123.67 203.99 123.34 204.98 123 206 C120.3789 208.0594 117.7023 210.0484 115 212 C113.5562 213.1756 112.1125 214.3512 110.625 215.5625 C104.4737 220.1344 98.0926 223.1629 91 226 C90.34 226.66 89.68 227.32 89 228 C77.6098 232.405 65.9066 235.3903 54 238 C51.6281 238.5569 49.2563 239.1137 46.8125 239.6875 C30.4387 243.3848 13.7043 245.4802 -3 247 C-4.5056 247.1379 -6.0113 247.2759 -7.5625 247.418 C-31.5576 249.1642 -57.6119 246.5757 -81 241 C-81.6774 240.8466 -81.6774 240.8466 -85.1055 240.0703 C-94.1566 237.9743 -103.0861 235.6317 -112 233 C-113.6912 232.5462 -115.3825 232.0925 -117.125 231.625 C-123.0982 229.6339 -128.4143 226.9046 -134 224 C-136.4979 222.7458 -138.9979 221.4958 -141.5 220.25 C-145 218.5 -148.5 216.75 -152 215 C-152 214.34 -152 213.68 -152 213 C-152.66 213 -153.32 213 -154 213 C-154 212.34 -154 211.68 -154 211 C-154.99 211 -155.98 211 -157 211 C-158.65 209.02 -160.3 207.04 -162 205 C-162.66 204.67 -163.32 204.34 -164 204 C-164 203.34 -164 202.68 -164 202 C-164.66 202 -165.32 202 -166 202 C-181.5661 180.7735 -187.7402 155.497 -180 130 C-176.956 123.4933 -173.5588 117.2376 -170 111 C-168.845 108.9581 -167.69 106.9162 -166.5 104.8125 C-164 101 -164 101 -162 101 C-159.4807 94.7018 -157.2221 88.3247 -154.9375 81.9375 C-154.039 79.4303 -153.1405 76.923 -152.2148 74.3398 C-150 68 -150 68 -149 64 C-148.34 64 -147.68 64 -147 64 C-146.67 64.99 -146.34 65.98 -146 67 C-145.3916 66.1028 -145.3916 66.1028 -142.3125 61.5625 C-135.8443 54.7899 -133.1368 54.7339 -124 55 C-121.36 55 -118.72 55 -116 55 C-116 54.34 -116 53.68 -116 53 C-113 52 -113 52 -109 54 C-114.8872 56.5 -119.607 58.0867 -126 59 C-119.3803 62.3099 -113.5547 58.6219 -107 56 C-107 55.34 -107 54.68 -107 54 C-104.3424 52.6487 -101.6744 51.3178 -99 50 C-95.3006 47.0405 -91.6395 44.0329 -88 41 C-87.34 41 -86.68 41 -86 41 C-86 40.34 -86 39.68 -86 39 C-83 36 -83 36 -81 36 C-81 35.34 -81 34.68 -81 34 C-77.0802 30.0802 -73.5196 27.1017 -69 24 C-70.1122 29.5608 -72.1923 33.0865 -75 38 C-82.8285 52.9288 -82.8285 52.9288 -80 60 C-72.7131 60.8097 -66.8776 59.3235 -60 57 C-58.68 56.67 -57.36 56.34 -56 56 C-56 55.34 -56 54.68 -56 54 C-53.3421 52.6493 -50.6746 51.3173 -48 50 C-47.01 49.01 -46.02 48.02 -45 47 C-40 44 -40 44 -36 42 C-35.67 41.01 -35.34 40.02 -35 39 C-32.3684 36.6272 -29.6988 34.296 -27 32 C-25.68 30.68 -24.36 29.36 -23 28 C-22.34 28 -21.68 28 -21 28 C-20.34 26.68 -19.68 25.36 -19 24 C-18.34 24 -17.68 24 -17 24 C-16.34 22.35 -15.68 20.7 -15 19 C-12 16 -12 16 -10 16 C-10 15.01 -10 14.02 -10 13 C-9.34 13 -8.68 13 -8 13 C-8 12.01 -8 11.02 -8 10 C-7.34 10 -6.68 10 -6 10 C-5.67 8.68 -5.34 7.36 -5 6 C-4.34 6 -3.68 6 -3 6 C-2.34 4.68 -1.68 3.36 -1 2 C-0.67 1.34 -0.34 0.68 0 0 Z M-69 22 C-68.34 22 -67.68 22 -67 22 C-67 22.66 -67 23.32 -67 24 C-67.66 24 -68.32 24 -69 24 C-69 23.34 -69 22.68 -69 22 Z " fill="#F3D5BC" transform="translate(450,280)"/>
<path d="M0 0 C-0.9106 9.8346 -4.0708 18.5556 -8 27.5625 C-8.7941 29.3865 -9.5881 31.2105 -10.4062 33.0898 C-11.2622 35.0402 -12.1181 36.9905 -13 39 C-13.8972 41.0638 -14.7944 43.1276 -15.7188 45.2539 C-21.8757 59.3578 -28.0768 73.4596 -35.1367 87.1406 C-37 91 -37 91 -38.875 97.1875 C-45.439 106.4368 -54.2417 106.3323 -65 108 C-66.9671 108.3764 -68.9342 108.7528 -70.9609 109.1406 C-84.7149 111.7482 -97.9905 113 -112 113 C-112.33 113.66 -112.66 114.32 -113 115 C-113 114.34 -113 113.68 -113 113 C-114.0725 113.165 -115.145 113.33 -116.25 113.5 C-139.2302 115.919 -163.3757 111.7536 -186 108 C-186.7728 107.8763 -186.7728 107.8763 -190.6836 107.25 C-194 106 -194 106 -196 100 C-196 98.35 -196 96.7 -196 95 C-196.66 95 -197.32 95 -198 95 C-198.6942 92.0063 -199.3588 89.0055 -200 86 C-200.66 85.01 -201.32 84.02 -202 83 C-201 79 -201 79 -200 78 C-198.02 78 -196.04 78 -194 78 C-194 77.34 -194 76.68 -194 76 C-195.8214 75.9394 -197.6429 75.8788 -199.5195 75.8164 C-201.9262 75.7326 -204.3329 75.6488 -206.8125 75.5625 C-208.0017 75.5219 -208.0017 75.5219 -214.0195 75.3164 C-223.0612 74.9066 -232.011 74.0315 -241 73 C-240 77 -240 77 -233.9375 78.75 C-231.9781 79.1625 -230.0188 79.575 -228 80 C-228.4125 81.2994 -228.825 82.5987 -229.25 83.9375 C-231 90 -231 90 -231.457 94.3789 C-232.0847 99.1696 -232.6686 102.7521 -235 107 C-239.6774 108.7062 -243.5543 108.936 -248.5195 108.9648 C-253 109 -253 109 -260 111 C-287.8339 115.2629 -316.0567 114.6887 -344 112 C-344 112.66 -344 113.32 -344 114 C-344.66 113.67 -345.32 113.34 -346 113 C-346 112.67 -346 112.34 -346 112 C-351.1557 110.9449 -356.3253 109.9576 -361.5 109 C-364.3772 108.4638 -367.2544 107.9275 -370.2188 107.375 C-375.4572 106.4493 -380.7214 105.6598 -386 105 C-388.687 100.5217 -390.8711 96.1077 -393.0625 91.375 C-397.0413 82.8973 -401.301 74.613 -405.7383 66.3672 C-408.0113 61.9782 -410.0103 57.5232 -412 53 C-413.1756 50.6694 -414.3512 48.3388 -415.5625 45.9375 C-422 32.9455 -422 32.9455 -422 28 C-422.66 28 -423.32 28 -424 28 C-427.5958 19.6925 -430.6688 11.1082 -431 2 C-427 3 -427 3 -421 7 C-414.8596 9.481 -408.669 11.7595 -402.4375 14 C-398.5235 15.4396 -394.6517 16.9962 -390.8125 18.625 C-386.1225 20.5413 -381.9078 21.8918 -377 23 C-371.8761 24.4816 -366.954 26.0184 -362 28 C-358.551 28.7132 -355.091 29.3743 -351.625 30 C-345.5942 31.0919 -339.9052 32.3128 -334 34 C-331.2354 34.5332 -328.4639 35.0318 -325.6875 35.5 C-319.4357 36.5717 -313.2199 37.756 -307 39 C-304.69 39.33 -302.38 39.66 -300 40 C-300 40.66 -300 41.32 -300 42 C-298.1231 41.9588 -296.2463 41.9175 -294.3125 41.875 C-287.3125 41.9947 -280.8978 42.8725 -274 44 C-269.6676 44.3451 -265.3344 44.6806 -261 45 C-259.68 45.33 -258.36 45.66 -257 46 C-241.6571 46.9867 -226.3717 47.1341 -211 47.125 C-206.5863 47.1276 -202.1725 47.1302 -197.625 47.1328 C-187 47 -187 47 -183 46 C-180.69 46 -178.38 46 -176 46 C-175.34 45.67 -174.68 45.34 -174 45 C-169.7116 44.6266 -165.4191 44.301 -161.125 44 C-148.4336 43.1084 -148.4336 43.1084 -144 42 C-141.9581 42.0206 -139.9162 42.0412 -137.8125 42.0625 C-135.8944 42.0419 -133.9762 42.0213 -132 42 C-131.67 41.34 -131.34 40.68 -131 40 C-125.4034 38.6635 -119.8273 37.8401 -114.125 37.0625 C-107 36 -107 36 -100.5625 34.375 C-95 33 -95 33 -88 33 C-88 32.34 -88 31.68 -88 31 C-86.845 30.8144 -86.845 30.8144 -81 29.875 C-69.2212 27.958 -58.2308 23.9339 -47 20 C-45.4428 19.4831 -43.8856 18.9662 -42.2812 18.4336 C-33.6086 15.5295 -25.0378 12.3581 -16.6875 8.625 C-13 7 -13 7 -10 7 C-10 6.34 -10 5.68 -10 5 C-2.619 0 -2.619 0 0 0 Z " fill="#EEC466" transform="translate(647,844)"/>
<path d="M0 0 C6 1 6 1 12 4 C14.6582 5.0224 17.3247 6.0233 20 7 C23.5026 8.4011 26.9804 9.865 30.4375 11.375 C37.204 14.0816 43.9877 16.0339 51 18 C53.31 18.99 55.62 19.98 58 21 C60.9977 21.6769 63.9983 22.3411 67 23 C69.8378 23.8179 72.6708 24.6527 75.5 25.5 C83.7035 27.9396 91.8529 29.7726 100.25 31.4375 C104.8087 32.3566 109.3578 33.3322 113.875 34.4375 C122.8261 36.4005 131.8326 37.7581 140.8906 39.1328 C146 40 146 40 147 41 C151.29 41 155.58 41 160 41 C169.4382 41.3119 178.8757 41.6479 188.3125 42 C222.1359 43.2589 222.1359 43.2589 234.5625 42.0625 C242.7158 41.3142 250.8171 40.8221 259 40.5625 C269.427 40.17 278.8839 38.529 289 36 C291.64 36 294.28 36 297 36 C297.66 35.67 297.66 35.67 301 34 C303.0625 33.7319 305.125 33.4638 307.25 33.1875 C313.9151 32.1662 319.8018 30.5444 326.1758 28.4219 C334.5502 25.9536 343.1268 24.3533 351.6797 22.625 C357.7355 21.068 362.498 18.9071 368 16 C372.6635 14.6556 377.3302 13.3224 382 12 C385.6805 10.3642 389.348 8.6986 393 7 C396.9844 5.6208 400.9821 4.2784 405 3 C405.495 2.835 405.495 2.835 408 2 C406.538 9.3102 402.4318 9.8925 396 13 C395.34 13 394.68 13 394 13 C394.0206 13.8663 394.0206 13.8663 394.125 18.25 C394 24 394 24 392 28 C391.34 28 390.68 28 390 28 C389.9326 23.4174 389.8846 19.4617 391 15 C390.3813 15.3197 390.3813 15.3197 387.25 16.9375 C383 19 383 19 379 20 C378.2852 23.7813 378.2852 23.7813 378.0625 28.5 C377.971 30.0572 377.8795 31.6144 377.7852 33.2188 C377.8561 34.4666 377.927 35.7144 378 37 C378.99 37.33 379.98 37.66 381 38 C379.9584 38.2269 379.9584 38.2269 374.6875 39.375 C368 41 368 41 365 43 C365 44.32 365 45.64 365 47 C356.4324 52.7117 346.0246 53.5594 336 54 C336 54.66 336 55.32 336 56 C332.0177 56.7965 328.0323 57.5814 324.0312 58.2773 C320 59 320 59 316 60.0625 C311.9073 61.0217 307.9245 61.5175 303.75 62 C296 63 296 63 292 65 C287.74 65.6028 283.466 66.1093 279.1875 66.5625 C276.7692 66.819 274.3509 67.0755 271.8594 67.3398 C266.5503 67.8508 261.26 68.2988 255.9375 68.625 C250 69 250 69 248 70 C245.36 70 242.72 70 240 70 C237.36 70.33 234.72 70.66 232 71 C224.188 71.0971 216.3751 71.1298 208.5625 71.125 C204.3769 71.1276 200.1913 71.1302 195.8789 71.1328 C170.3914 70.8478 170.3914 70.8478 163 69 C151.5624 67.6491 140.1203 66.534 128.6445 65.5625 C124 65 124 65 117 63 C109.4529 61.3828 101.8523 60.0856 94.2461 58.7812 C89.8008 57.9633 85.4088 56.996 81 56 C79.1193 55.5978 77.2385 55.1956 75.3008 54.7812 C74.3127 54.5698 74.3127 54.5698 69.3125 53.5 C68.3206 53.2886 68.3206 53.2886 63.3008 52.2188 C58 51 58 51 52 49 C52.66 46.69 53.32 44.38 54 42 C52.1231 41.7319 50.2463 41.4638 48.3125 41.1875 C42 40 42 40 37 37 C37.1237 34.4013 37.2475 31.8025 37.375 29.125 C37.6934 21.4413 37.6934 21.4413 31.5 17.5 C29.685 17.005 27.87 16.51 26 16 C26.0206 17.6087 26.0412 19.2175 26.0625 20.875 C26 26 26 26 25 28 C24.34 28 23.68 28 23 28 C22 25 22 25 22.3125 19.75 C20.3116 10.9839 14.9428 10.2983 7 7 C2.625 4.75 2.625 4.75 0 3 C0 2.01 0 1.02 0 0 Z " fill="#42331A" transform="translate(223,821)"/>
<path d="M0 0 C7.4843 1.0692 12.4196 3.3771 19 7 C19 7.66 19 8.32 19 9 C19.99 9.33 20.98 9.66 22 10 C22 10.66 22 11.32 22 12 C22.66 12 23.32 12 24 12 C24 12.66 24 13.32 24 14 C24.99 14.33 25.98 14.66 27 15 C35.6197 27.9295 36.1537 38.9244 34 54 C33.34 54 32.68 54 32 54 C32 55.32 32 56.64 32 58 C31.34 58 30.68 58 30 58 C30 59.32 30 60.64 30 62 C29.34 62 28.68 62 28 62 C28 62.99 28 63.98 28 65 C27.34 65 26.68 65 26 65 C25.67 65.66 25.67 65.66 24 69 C23.34 69 22.68 69 22 69 C23 71 23 71 27.0625 72.6875 C34.185 76.6611 39.2959 81.6601 45.125 87.3125 C49.5297 91.504 54.2478 95.2131 59 99 C59 99.66 59 100.32 59 101 C59.99 101.33 60.98 101.66 62 102 C63.32 103.65 64.64 105.3 66 107 C66.66 107.33 67.32 107.66 68 108 C68 108.66 68 109.32 68 110 C68.66 110 69.32 110 70 110 C72.0157 112.6548 74.0116 115.3247 76 118 C77.5881 119.7325 79.1762 121.465 80.8125 123.25 C85 128 85 128 86 132 C87.32 132.66 88.64 133.32 90 134 C90.33 135.32 90.66 136.64 91 138 C91.66 138 92.32 138 93 138 C100.3746 146.7958 106.2812 156.5439 111.9062 166.5156 C114 170 114 170 117 173 C120 180 120 180 120 183 C120.66 183 121.32 183 122 183 C123.0918 185.5248 124.0726 188.0978 125 190.6875 C125.5156 192.1145 126.0312 193.5415 126.5625 195.0117 C127.0369 196.3279 127.5113 197.644 128 199 C128.66 200.65 129.32 202.3 130 204 C130.285 210.7691 130.1543 215.5371 128 222 C127.34 222 126.68 222 126 222 C125.67 223.32 125.34 224.64 125 226 C123.6594 227.815 122.3188 229.63 120.9375 231.5 C115.6381 238.9023 116.9083 241.0131 120 249 C120 249.66 120 250.32 120 251 C116 249 116 249 113 242 C110.4153 243.2923 107.868 244.6636 105.375 246.125 C102 248 102 248 100 248 C101.98 252.29 103.96 256.58 106 261 C112 259 112 259 117 255 C117.66 255 118.32 255 119 255 C119 254.34 119 253.68 119 253 C120.32 253 121.64 253 123 253 C123 251.02 123 249.04 123 247 C123.99 246.67 124.98 246.34 126 246 C129.5069 240.7397 128.2182 236.5454 126 231 C126 230.01 126 229.02 126 228 C126.99 228 127.98 228 129 228 C129 228.66 129 229.32 129 230 C129.66 230 130.32 230 131 230 C131.33 231.32 131.66 232.64 132 234 C132.66 234 133.32 234 134 234 C134.25 246.5 134.25 246.5 132 251 C133.98 252.65 135.96 254.3 138 256 C138 256.66 138 257.32 138 258 C138.66 258 139.32 258 140 258 C144.6582 265.8024 147 270.7413 147 280 C145.68 280.66 144.36 281.32 143 282 C142.9167 285.3323 142.9167 288.6677 143 292 C141 294 141 294 135 294 C133.68 293.34 132.36 292.68 131 292 C131.0412 293.4231 131.0825 294.8463 131.125 296.3125 C131 301 131 301 129 304 C122 303 122 303 119 300 C119 299.34 119 298.68 119 298 C118.34 298 117.68 298 117 298 C116.67 300.31 116.34 302.62 116 305 C114.68 306.65 113.36 308.3 112 310 C110.02 309.67 108.04 309.34 106 309 C106 308.34 106 307.68 106 307 C105.01 306.67 104.02 306.34 103 306 C102.2943 303.3434 101.6272 300.6762 101 298 C100.34 297.67 99.68 297.34 99 297 C98.34 298.32 97.68 299.64 97 301 C93 303 93 303 88 303 C85 300 85 300 85 297 C84.34 297 83.68 297 83 297 C83.0412 298.4231 83.0825 299.8463 83.125 301.3125 C82.8879 312.101 80.872 326.256 76 336 C75.34 336 74.68 336 74 336 C73.67 337.65 73.34 339.3 73 341 C72.67 341.99 72.34 342.98 72 344 C71.01 344 70.02 344 69 344 C68.67 345.98 68.34 347.96 68 350 C67.01 350.33 66.02 350.66 65 351 C64 355 64 355 63.6875 362.4375 C63.1037 372.472 61.382 381.0225 55 389 C54.34 389 53.68 389 53 389 C53 389.66 53 390.32 53 391 C51.35 391.99 49.7 392.98 48 394 C47.1875 399.6875 47.1875 399.6875 47 405 C46.01 404.67 45.02 404.34 44 404 C44.3125 399.9375 44.3125 399.9375 45 396 C44.3606 396.4125 44.3606 396.4125 41.125 398.5 C37 401 37 401 35 401 C35 401.66 35 402.32 35 403 C31.3488 404.3751 27.6785 405.6995 24 407 C20.3263 408.6511 16.6594 410.3175 13 412 C4.2164 415.7161 -4.7437 418.6859 -14 421 C-14.66 420.34 -15.32 419.68 -16 419 C-12.3628 412.938 -10.6027 412.8244 -4 411 C3 409 3 409 7.5625 406.9375 C12 405 12 405 18 404 C18 403.34 18 402.68 18 402 C19.2375 401.67 20.475 401.34 21.75 401 C28.9105 397.6304 29.5258 391.2592 31.0625 383.9375 C32 380 32 380 35 379 C35.25 390.375 35.25 390.375 33 396 C33.6394 395.5875 33.6394 395.5875 36.875 393.5 C41 391 41 391 43 391 C43 390.34 43 389.68 43 389 C45.319 387.3135 47.6528 385.6471 50 384 C50.33 383.34 50.66 382.68 51 382 C51.66 382 52.32 382 53 382 C53.33 380.35 53.66 378.7 54 377 C58.7059 364.2941 58.7059 364.2941 60 363 C60 361.35 60 359.7 60 358 C59.01 359.65 58.02 361.3 57 363 C45.209 373 45.209 373 39 373 C41.3359 368.3283 44.3114 365.6886 48 362 C50.0345 359.3595 52.0323 356.6906 54 354 C55.4025 352.2675 56.805 350.535 58.25 348.75 C62 344 62 344 64 340 C64.99 340 65.98 340 67 340 C67.7454 337.0186 68.4049 334.015 69 331 C69.66 329.68 70.32 328.36 71 327 C71.6982 323.6731 72.3659 320.3397 73 317 C73.33 316.01 73.66 315.02 74 314 C74 311.69 74 309.38 74 307 C74.33 306.01 74.66 305.02 75 304 C78.0282 282.8025 74.8545 259.4907 69 239 C68.1141 235.7947 67.2397 232.5861 66.375 229.375 C65.929 227.7327 65.483 226.0905 65.0234 224.3984 C64 220 64 220 64 215 C63.34 214.67 62.68 214.34 62 214 C60.9927 211.3799 60.0696 208.7273 59.1875 206.0625 C56.9072 199.3941 54.2241 193.274 51 187 C50 184 49 181 48 178 C46.6727 175.6632 45.3386 173.3303 44 171 C42.6631 168.2199 41.3515 165.4276 40.0625 162.625 C37.2543 156.6037 34.3169 150.7609 31 145 C30.0512 143.2469 29.1025 141.4937 28.125 139.6875 C18.9024 122.9024 18.9024 122.9024 15 119 C15.33 118.01 15.66 117.02 16 116 C24.75 126.625 24.75 126.625 27 130 C27.2887 128.185 27.5775 126.37 27.875 124.5 C28.0606 123.5925 28.0606 123.5925 29 119 C29.66 119 30.32 119 31 119 C32 121 32 121 32.5 125.5625 C33 130 33 130 34 131 C34.2681 132.5056 34.5362 134.0113 34.8125 135.5625 C36.9986 145.5726 42.6384 153.3523 48 162 C50 166 50 166 50 169 C50.66 169 51.32 169 52 169 C57 179.2381 57 179.2381 57 182 C57.66 182 58.32 182 59 182 C60.7559 186.298 62.3999 190.6416 64 195 C64.4963 196.2962 64.4963 196.2962 67.0078 202.8555 C79 234.9098 79 234.9098 79 250 C98.76 243.24 98.76 243.24 106 236 C106.66 236 107.32 236 108 236 C108.33 235.01 108.66 234.02 109 233 C110.0931 232.2988 111.1862 231.5975 112.3125 230.875 C116.8672 227.3239 118.0176 224.3808 120 219 C120.6394 217.515 121.2787 216.03 121.9375 214.5 C123.2789 208.8186 122.2147 206.3581 120 201 C119.34 198.9375 118.68 196.875 118 194.75 C116 189 116 189 113 184 C113 183.01 113 182.02 113 181 C112.34 181 111.68 181 111 181 C108.9375 177.3681 106.9453 173.696 105 170 C104.2162 168.7006 103.4325 167.4013 102.625 166.0625 C101 163 101 163 101 159 C99.68 158.34 98.36 157.68 97 157 C96.67 156.175 96.67 156.175 95 152 C93.35 150.35 91.7 148.7 90 147 C85 140.4444 85 140.4444 85 138 C83.68 137.34 82.36 136.68 81 136 C80.67 135.01 80.34 134.02 80 133 C79.34 133 78.68 133 78 133 C78 132.01 78 131.02 78 130 C77.01 129.67 76.02 129.34 75 129 C66.2322 118.9289 66.2322 118.9289 65 114 C63.68 113.67 62.36 113.34 61 113 C59.68 111.35 58.36 109.7 57 108 C55.68 106.68 54.36 105.36 53 104 C53 103.34 53 102.68 53 102 C51.68 101.34 50.36 100.68 49 100 C46 98 46 98 46 96 C44.68 95.34 43.36 94.68 42 94 C42 93.34 42 92.68 42 92 C40.68 91.34 39.36 90.68 38 90 C37.34 88.68 36.68 87.36 36 86 C34.68 85.67 33.36 85.34 32 85 C32 84.34 32 83.68 32 83 C30.68 82.34 29.36 81.68 28 81 C25.3333 78.3333 22.6667 75.6667 20 73 C19.01 72.67 18.02 72.34 17 72 C16.67 72.99 16.34 73.98 16 75 C15.34 75 14.68 75 14 75 C14 75.66 14 76.32 14 77 C13.01 77 12.02 77 11 77 C11 77.66 11 78.32 11 79 C-5.125 88.0458 -21.8175 90.6252 -40 91.4375 C-46.937 91.7793 -53.5332 92.7119 -60.3477 94.1211 C-66.331 95.2514 -72.343 96.044 -78.375 96.875 C-87.5617 98.2112 -96.2347 99.9571 -105.1094 102.6328 C-118.1516 106.2788 -131.5959 109.0851 -145 111 C-141.4434 100.3303 -107.3185 95.3812 -97 93 C-90.9144 91.8589 -84.9852 90.9988 -78.8125 90.5 C-73.6311 90.0543 -69.053 89.1661 -64 88 C-59.2765 87.1984 -54.5481 86.4352 -49.8164 85.6836 C-46 85 -46 85 -44 84 C-43.2059 84.0103 -43.2059 84.0103 -39.1875 84.0625 C-34 84 -34 84 -29 82 C-25.8822 81.5141 -22.7556 81.0831 -19.625 80.6875 C-1.2998 78.0165 10.6152 73.1022 22 58 C22.66 58 23.32 58 24 58 C28.5535 42.2379 29.7893 28.291 18 16 C17.67 15.835 17.67 15.835 16 15 C16 14.34 16 13.68 16 13 C14.35 12.34 12.7 11.68 11 11 C9.35 9.35 7.7 7.7 6 6 C3.7022 4.6063 1.3751 3.2574 -1 2 C-0.67 1.34 -0.34 0.68 0 0 Z " fill="#2B261D" transform="translate(602,448)"/>
<path d="M0 0 C0.33 0 0.66 0 1 0 C1.25 8.75 1.25 8.75 -1 11 C-1.825 11.33 -1.825 11.33 -6 13 C-7.32 13.99 -8.64 14.98 -10 16 C-10.66 16 -11.32 16 -12 16 C-12 16.66 -12 17.32 -12 18 C-12.5053 18.3506 -12.5053 18.3506 -15.0625 20.125 C-24.4029 26.945 -29.4389 34.3335 -29.3125 46 C-29.3086 47.5469 -29.3048 49.0938 -29.3008 50.6875 C-29 55 -29 55 -27 61 C-27 62.65 -27 64.3 -27 66 C-26.34 66.33 -26.34 66.33 -23 68 C-21.5975 69.5881 -20.195 71.1762 -18.75 72.8125 C-12.1342 80.0376 -6.2804 83.2032 3 86 C4.2723 86.4924 5.5446 86.9848 6.8555 87.4922 C13.5146 89.4439 19.9637 89.92 26.875 90.5 C35.9738 91.2651 44.2508 92.3974 53 95 C57.327 95.7065 61.6613 96.3689 66 97 C68.8762 97.514 71.7512 98.0351 74.625 98.5625 C79.5619 99.4528 84.3031 100.1161 89.3125 100.5625 C94 101 94 101 98 103 C100.666 103.3385 103.3327 103.6717 106 104 C107.65 104.66 109.3 105.32 111 106 C111.8869 106.1547 111.8869 106.1547 116.375 106.9375 C122 108 122 108 129 111 C133.7251 112.5093 138.4637 113.9644 143.2109 115.4023 C147 117 147 117 148 121 C142.4745 119.9546 137.3478 118.7826 132 117 C128.0879 116.2828 124.1757 115.5664 120.2617 114.8594 C114.0656 113.6099 108.0556 111.7987 102 110 C97.5909 109.1182 93.1802 108.3287 88.75 107.5625 C84.1521 106.7589 79.6144 105.9121 75.0625 104.875 C70.3885 103.8683 65.7607 103.4023 61 103 C61 102.34 61 101.68 61 101 C59.7212 101.0412 58.4425 101.0825 57.125 101.125 C50.6136 100.9921 44.3088 100.3348 37.8477 99.5586 C34.6523 99.1904 31.4511 98.8689 28.2461 98.5977 C13.4913 97.3225 -1.03 95.3325 -13 86 C-14.65 85.01 -16.3 84.02 -18 83 C-19.32 82.01 -20.64 81.02 -22 80 C-22.33 80.66 -22.33 80.66 -24 84 C-27.636 87.0371 -31.3046 90.0355 -35 93 C-36.65 94.65 -38.3 96.3 -40 98 C-40.66 98 -41.32 98 -42 98 C-42.165 98.495 -42.165 98.495 -43 101 C-44.32 101.33 -45.64 101.66 -47 102 C-47.33 102.66 -47.33 102.66 -49 106 C-54 111 -54 111 -56 111 C-56.33 111.66 -56.33 111.66 -58 115 C-63.5385 121 -63.5385 121 -66 121 C-66.165 121.66 -66.165 121.66 -67 125 C-70.3003 128.6964 -73.6372 132.3603 -77 136 C-79.0121 138.6575 -81.0148 141.3223 -83 144 C-88 149 -88 149 -90 149 C-90.33 150.65 -90.66 152.3 -91 154 C-96 160 -96 160 -98 160 C-98.33 161.65 -98.66 163.3 -99 165 C-102.8277 171.4631 -106.8336 177.7504 -111 184 C-112.6998 187.3166 -114.3669 190.6501 -116 194 C-116.99 195.98 -117.98 197.96 -119 200 C-124.1262 214.1863 -126.8267 225.6241 -116.3359 238.1914 C-107.2649 247.0036 -96.7143 253.3143 -85 258 C-84.67 259.32 -84.34 260.64 -84 262 C-83.34 262.33 -82.68 262.66 -82 263 C-82.1816 265.6972 -82.4956 268.386 -82.875 271.0625 C-83.0787 272.5385 -83.2823 274.0145 -83.4922 275.5352 C-83.6598 276.6786 -83.8273 277.822 -84 279 C-86.31 278.67 -88.62 278.34 -91 278 C-90.67 279.32 -90.34 280.64 -90 282 C-103.8171 282 -114.1003 277.1748 -125 269 C-125 268.34 -125 267.68 -125 267 C-129 265 -129 265 -133 264 C-136 268.9375 -136 268.9375 -139 275 C-139.8044 276.5263 -140.6087 278.0525 -141.4375 279.625 C-141.9531 280.7387 -142.4688 281.8525 -143 283 C-142.67 283.33 -142.34 283.66 -142 284 C-141.175 283.34 -141.175 283.34 -137 280 C-135.68 280 -134.36 280 -133 280 C-134 285 -134 285 -136 288.4375 C-138 292 -138 292 -139 298 C-134.9403 295.1894 -131.5094 292.5094 -128 289 C-127.01 289.33 -126.02 289.66 -125 290 C-125.8624 296.0367 -126.8899 302.0054 -128 308 C-123 303 -123 303 -119.9375 298.625 C-118.9681 297.4288 -117.9988 296.2325 -117 295 C-115.68 295.33 -114.36 295.66 -113 296 C-112.6094 299.8164 -112.6094 299.8164 -112.75 304.5625 C-112.7861 306.1313 -112.8222 307.7001 -112.8594 309.3164 C-112.9058 310.532 -112.9522 311.7476 -113 313 C-108.1015 309.7343 -107.1409 305.2326 -106.5 299.625 C-106.335 298.4288 -106.17 297.2325 -106 296 C-105.01 295.67 -104.02 295.34 -103 295 C-98 300 -98 300 -93 306 C-92.67 306 -92.34 306 -92 306 C-91.835 302.865 -91.835 302.865 -91 287 C-90.01 287 -89.02 287 -88 287 C-85.0237 295.3023 -84.4279 303.3798 -89 311 C-90 312 -90 312 -96 312 C-97.65 310.35 -99.3 308.7 -101 307 C-101.66 307 -102.32 307 -103 307 C-104.3454 309.9946 -105.6778 312.9951 -107 316 C-110 319 -110 319 -115 318 C-118 313 -118 313 -118 306 C-119.65 307.65 -121.3 309.3 -123 311 C-130.3537 312.6463 -130.3537 312.6463 -133 310 C-133.4055 306.6747 -133.7431 303.3401 -134 300 C-134.66 300.66 -134.66 300.66 -138 304 C-143 303 -143 303 -146 301 C-146 294 -146 294 -145 291 C-146.32 290.67 -147.64 290.34 -149 290 C-150.7674 279.3956 -146.9186 272.8729 -140 265 C-139.175 264.34 -139.175 264.34 -135 261 C-135.6875 256.75 -135.6875 256.75 -137 252 C-137 242.8549 -135.3215 240.3215 -129 234 C-129.9196 230.6436 -130.9338 227.3128 -132 224 C-134.1499 207.2306 -124.2503 187.8129 -114 175 C-111.8582 171.4303 -109.7817 167.821 -107.75 164.1875 C-104.5141 158.8482 -101.1751 154.5927 -97 150 C-96.67 149.01 -96.34 148.02 -96 147 C-95.34 147 -94.68 147 -94 147 C-93.67 145.68 -93.34 144.36 -93 143 C-89 138 -89 138 -84 133 C-79.8871 128.4542 -76.4137 124.1205 -73 119 C-71.02 117.35 -69.04 115.7 -67 114 C-65.68 112.35 -64.36 110.7 -63 109 C-62.34 109 -61.68 109 -61 109 C-60.67 108.34 -60.67 108.34 -59 105 C-52.5385 99 -52.5385 99 -50 99 C-49.67 98.34 -49.67 98.34 -48 95 C-41.5385 89 -41.5385 89 -39 89 C-39 88.34 -39 87.68 -39 87 C-37.68 86.67 -36.36 86.34 -35 86 C-35 85.34 -35 84.68 -35 84 C-34.01 84 -33.02 84 -32 84 C-32 83.34 -32 82.68 -32 82 C-27 79 -27 79 -25 79 C-26 75 -26 75 -29 74 C-37.7598 63.0502 -39.6466 46.3631 -35.4375 33.0625 C-23.4 13 -23.4 13 -14 13 C-14 12.34 -14 11.68 -14 11 C-9.0378 9.0744 -5.3539 8 0 8 C0 5.36 0 2.72 0 0 Z " fill="#2E281D" transform="translate(261,440)"/>
<path d="M0 0 C1.2594 0.1431 2.5188 0.2862 3.8164 0.4336 C28.3506 3.1144 53.4066 4.8043 78 2 C80.9998 1.9634 84.0004 1.9516 87 2 C85.68 3.32 84.36 4.64 83 6 C82.01 7.65 81.02 9.3 80 11 C78.2806 13.486 76.5503 15.9644 74.8125 18.4375 C61 38.495 61 38.495 61 46 C64.375 47.875 64.375 47.875 69 50 C74.5625 53.5 74.5625 53.5 79 57 C78 61 78 61 73 64 C67.3622 64.2478 61.9718 64.1073 56.3633 63.4883 C50.5035 62.9548 44.7579 62.9037 38.875 62.9375 C37.8528 62.942 37.8528 62.942 32.6797 62.9648 C31.1354 62.9764 29.5911 62.988 28 63 C28 62.34 28 61.68 28 61 C26.185 60.7731 24.37 60.5462 22.5 60.3125 C12.8617 58.3663 12.8617 58.3663 8 54 C6.5625 47.2656 6.5625 47.2656 6 39.25 C5.7937 36.6152 5.5875 33.9803 5.375 31.2656 C5.0939 25.8186 4.904 20.4499 5 15 C4.34 15 3.68 15 3 15 C2.6906 13.0819 2.3813 11.1638 2.0625 9.1875 C1 3 1 3 0 0 Z " fill="#F4DFC6" transform="translate(473,960)"/>
<path d="M0 0 C-0.2655 1.1859 -0.5311 2.3719 -0.8047 3.5938 C-4.2722 19.4885 -6.231 34.5114 -6.168 50.7969 C-7.2526 56.2761 -8.9288 57.0173 -14 59 C-14.99 59 -15.98 59 -17 59 C-17 59.66 -17 60.32 -17 61 C-18.5675 60.9794 -20.135 60.9588 -21.75 60.9375 C-27 61 -27 61 -31 62 C-70.6867 65.8506 -70.6867 65.8506 -78 60 C-74.5678 53.1357 -67.9614 49.7846 -61 47 C-59.5038 41.0151 -62.416 37.4201 -65 32 C-65 31.34 -65 30.68 -65 30 C-65.66 30 -66.32 30 -67 30 C-67 29.01 -67 28.02 -67 27 C-67.66 27 -68.32 27 -69 27 C-72 22 -72 22 -72 20 C-72.99 19.67 -73.98 19.34 -75 19 C-76.3626 16.6836 -77.6916 14.3474 -79 12 C-84 6 -84 6 -87 4 C-87 3.34 -87 2.68 -87 2 C-85.5543 2.0819 -85.5543 2.0819 -78.2383 2.4961 C-64.8733 3.0464 -51.5634 3.0957 -38.1875 3.0625 C-33.4579 3.0535 -28.7284 3.0445 -23.8555 3.0352 C-20.2732 3.0236 -16.6909 3.012 -13 3 C-13 2.34 -13 1.68 -13 1 C-3.375 0 -3.375 0 0 0 Z " fill="#F4DFC6" transform="translate(391,960)"/>
<path d="M0 0 C7.4843 1.0692 12.4196 3.3771 19 7 C19 7.66 19 8.32 19 9 C19.99 9.33 20.98 9.66 22 10 C22 10.66 22 11.32 22 12 C22.66 12 23.32 12 24 12 C24 12.66 24 13.32 24 14 C24.99 14.33 25.98 14.66 27 15 C35.6197 27.9295 36.1537 38.9244 34 54 C33.34 54 32.68 54 32 54 C32 55.32 32 56.64 32 58 C31.34 58 30.68 58 30 58 C30 59.32 30 60.64 30 62 C29.34 62 28.68 62 28 62 C28 62.99 28 63.98 28 65 C27.34 65 26.68 65 26 65 C25.67 65.66 25.67 65.66 24 69 C23.34 69 22.68 69 22 69 C23 71 23 71 27.0625 72.6875 C34.185 76.6611 39.2959 81.6601 45.125 87.3125 C49.5297 91.504 54.2478 95.2131 59 99 C59 99.66 59 100.32 59 101 C59.99 101.33 60.98 101.66 62 102 C63.32 103.65 64.64 105.3 66 107 C66.66 107.33 67.32 107.66 68 108 C68 108.66 68 109.32 68 110 C68.66 110 69.32 110 70 110 C72.0157 112.6548 74.0116 115.3247 76 118 C77.5881 119.7325 79.1762 121.465 80.8125 123.25 C85 128 85 128 86 132 C87.32 132.66 88.64 133.32 90 134 C90.33 135.32 90.66 136.64 91 138 C91.66 138 92.32 138 93 138 C100.3746 146.7958 106.2812 156.5439 111.9062 166.5156 C114 170 114 170 117 173 C120 180 120 180 120 183 C120.66 183 121.32 183 122 183 C123.0918 185.5248 124.0726 188.0978 125 190.6875 C125.5156 192.1145 126.0312 193.5415 126.5625 195.0117 C127.0369 196.3279 127.5113 197.644 128 199 C128.66 200.65 129.32 202.3 130 204 C130.285 210.7691 130.1543 215.5371 128 222 C127.34 222 126.68 222 126 222 C125.67 223.32 125.34 224.64 125 226 C123.6594 227.815 122.3188 229.63 120.9375 231.5 C115.6381 238.9023 116.9083 241.0131 120 249 C120 249.66 120 250.32 120 251 C116 249 116 249 113 242 C110.4153 243.2923 107.868 244.6636 105.375 246.125 C102 248 102 248 100 248 C99.67 248.99 99.34 249.98 99 251 C93.6615 251.8898 88.3847 252.4906 83 253 C83 251.68 83 250.36 83 249 C86.7617 247.0352 86.7617 247.0352 91.6875 245.0625 C98.0444 242.5065 101.0375 240.9625 106 236 C106.66 236 107.32 236 108 236 C108.33 235.01 108.66 234.02 109 233 C110.0931 232.2988 111.1862 231.5975 112.3125 230.875 C116.8672 227.3239 118.0176 224.3808 120 219 C120.6394 217.515 121.2787 216.03 121.9375 214.5 C123.2789 208.8186 122.2147 206.3581 120 201 C119.34 198.9375 118.68 196.875 118 194.75 C116 189 116 189 113 184 C113 183.01 113 182.02 113 181 C112.34 181 111.68 181 111 181 C108.9375 177.3681 106.9453 173.696 105 170 C104.2162 168.7006 103.4325 167.4013 102.625 166.0625 C101 163 101 163 101 159 C99.68 158.34 98.36 157.68 97 157 C96.67 156.175 96.67 156.175 95 152 C93.35 150.35 91.7 148.7 90 147 C85 140.4444 85 140.4444 85 138 C83.68 137.34 82.36 136.68 81 136 C80.67 135.01 80.34 134.02 80 133 C79.34 133 78.68 133 78 133 C78 132.01 78 131.02 78 130 C77.01 129.67 76.02 129.34 75 129 C66.2322 118.9289 66.2322 118.9289 65 114 C63.68 113.67 62.36 113.34 61 113 C59.68 111.35 58.36 109.7 57 108 C55.68 106.68 54.36 105.36 53 104 C53 103.34 53 102.68 53 102 C51.68 101.34 50.36 100.68 49 100 C46 98 46 98 46 96 C44.68 95.34 43.36 94.68 42 94 C42 93.34 42 92.68 42 92 C40.68 91.34 39.36 90.68 38 90 C37.34 88.68 36.68 87.36 36 86 C34.68 85.67 33.36 85.34 32 85 C32 84.34 32 83.68 32 83 C30.68 82.34 29.36 81.68 28 81 C25.3333 78.3333 22.6667 75.6667 20 73 C19.01 72.67 18.02 72.34 17 72 C16.67 72.99 16.34 73.98 16 75 C15.34 75 14.68 75 14 75 C14 75.66 14 76.32 14 77 C13.01 77 12.02 77 11 77 C11 77.66 11 78.32 11 79 C-5.125 88.0458 -21.8175 90.6252 -40 91.4375 C-46.937 91.7793 -53.5332 92.7119 -60.3477 94.1211 C-66.331 95.2514 -72.343 96.044 -78.375 96.875 C-87.5617 98.2112 -96.2347 99.9571 -105.1094 102.6328 C-118.1516 106.2788 -131.5959 109.0851 -145 111 C-141.4434 100.3303 -107.3185 95.3812 -97 93 C-90.9144 91.8589 -84.9852 90.9988 -78.8125 90.5 C-73.6311 90.0543 -69.053 89.1661 -64 88 C-59.2765 87.1984 -54.5481 86.4352 -49.8164 85.6836 C-46 85 -46 85 -44 84 C-43.2059 84.0103 -43.2059 84.0103 -39.1875 84.0625 C-34 84 -34 84 -29 82 C-25.8822 81.5141 -22.7556 81.0831 -19.625 80.6875 C-1.2998 78.0165 10.6152 73.1022 22 58 C22.66 58 23.32 58 24 58 C28.5535 42.2379 29.7893 28.291 18 16 C17.67 15.835 17.67 15.835 16 15 C16 14.34 16 13.68 16 13 C14.35 12.34 12.7 11.68 11 11 C9.35 9.35 7.7 7.7 6 6 C3.7022 4.6063 1.3751 3.2574 -1 2 C-0.67 1.34 -0.34 0.68 0 0 Z " fill="#332A1A" transform="translate(602,448)"/>
<path d="M0 0 C3 5 3 5 4 8 C4.66 8 5.32 8 6 8 C8 11 8 11 7 15 C6.34 15.66 5.68 16.32 5 17 C3.6974 24.6974 3.6974 24.6974 5 26 C5.3197 25.1956 5.3197 25.1956 6.9375 21.125 C9 16 9 16 10 14 C22.8 20.4 22.8 20.4 24 24 C25.98 24.33 27.96 24.66 30 25 C34.3366 25.9856 38.6704 26.9839 43 28 C42.34 33.28 41.68 38.56 41 44 C38.69 43.67 36.38 43.34 34 43 C34.165 43.66 34.165 43.66 35 47 C21.1829 47 10.8997 42.1748 0 34 C0 33.34 0 32.68 0 32 C-4 30 -4 30 -8 29 C-11 33.9375 -11 33.9375 -14 40 C-14.8044 41.5263 -15.6088 43.0525 -16.4375 44.625 C-16.9531 45.7387 -17.4688 46.8525 -18 48 C-17.67 48.33 -17.34 48.66 -17 49 C-15.35 47.68 -13.7 46.36 -12 45 C-10.68 45 -9.36 45 -8 45 C-9 50 -9 50 -11 53.4375 C-13 57 -13 57 -14 63 C-9.9403 60.1894 -6.5094 57.5094 -3 54 C-2.505 54.165 -2.505 54.165 0 55 C-0.8624 61.0367 -1.8899 67.0054 -3 73 C2 68 2 68 5.0625 63.625 C6.0319 62.4288 7.0012 61.2325 8 60 C9.32 60.33 10.64 60.66 12 61 C12.3906 64.8164 12.3906 64.8164 12.25 69.5625 C12.2139 71.1313 12.1778 72.7001 12.1406 74.3164 C12.0942 75.532 12.0478 76.7476 12 78 C16.8985 74.7343 17.8591 70.2326 18.5 64.625 C18.665 63.4288 18.83 62.2325 19 61 C19.99 60.67 20.98 60.34 22 60 C27 65 27 65 32 71 C32.33 71 32.66 71 33 71 C33.33 64.73 33.66 58.46 34 52 C34.99 52 35.98 52 37 52 C39.9763 60.3023 40.5721 68.3798 36 76 C35 77 35 77 29 77 C27.35 75.35 25.7 73.7 24 72 C23.34 72 22.68 72 22 72 C20.6546 74.9946 19.3222 77.9951 18 81 C15 84 15 84 10 83 C7 78 7 78 7 71 C5.35 72.65 3.7 74.3 2 76 C-5.3537 77.6463 -5.3537 77.6463 -8 75 C-8.4055 71.6747 -8.7431 68.3401 -9 65 C-10.32 66.32 -11.64 67.64 -13 69 C-18 68 -18 68 -21 66 C-21 59 -21 59 -20 56 C-21.32 55.67 -22.64 55.34 -24 55 C-25.7674 44.3956 -21.9186 37.8729 -15 30 C-13.35 28.68 -11.7 27.36 -10 26 C-10.6875 21.75 -10.6875 21.75 -12 17 C-12 8.7113 -10.1601 0 0 0 Z " fill="#2E2A21" transform="translate(136,675)"/>
<path d="M0 0 C2.1046 1.7824 4.1381 3.6498 6.125 5.5625 C10.2578 9.4805 14.3426 13.0683 18.8125 16.625 C23 20 23 20 23 22 C23.99 22.33 24.98 22.66 26 23 C27.32 24.65 28.64 26.3 30 28 C30.66 28.33 31.32 28.66 32 29 C32 29.66 32 30.32 32 31 C32.66 31 33.32 31 34 31 C36.0157 33.6548 38.0116 36.3247 40 39 C41.5881 40.7325 43.1762 42.465 44.8125 44.25 C49 49 49 49 50 53 C51.32 53.66 52.64 54.32 54 55 C54.165 55.66 54.165 55.66 55 59 C55.66 59 56.32 59 57 59 C64.3746 67.7958 70.2812 77.5439 75.9062 87.5156 C78 91 78 91 81 94 C84 101 84 101 84 104 C84.66 104 85.32 104 86 104 C87.0918 106.5248 88.0726 109.0978 89 111.6875 C89.5156 113.1145 90.0312 114.5415 90.5625 116.0117 C91.0369 117.3279 91.5113 118.644 92 120 C92.66 121.65 93.32 123.3 94 125 C94.285 131.7691 94.1543 136.5371 92 143 C91.34 143 90.68 143 90 143 C89.67 144.32 89.34 145.64 89 147 C88.3297 147.9075 88.3297 147.9075 84.9375 152.5 C79.6381 159.9023 80.9083 162.0131 84 170 C84 170.66 84 171.32 84 172 C80 170 80 170 77 163 C74.4153 164.2923 71.868 165.6636 69.375 167.125 C66 169 66 169 64 169 C63.67 169.99 63.34 170.98 63 172 C57.6615 172.8898 52.3847 173.4906 47 174 C47 172.68 47 171.36 47 170 C50.7617 168.0352 50.7617 168.0352 55.6875 166.0625 C62.0444 163.5065 65.0375 161.9625 70 157 C70.66 157 71.32 157 72 157 C72.33 156.01 72.66 155.02 73 154 C74.0931 153.2988 75.1862 152.5975 76.3125 151.875 C80.8672 148.3239 82.0176 145.3808 84 140 C84.6394 138.515 85.2787 137.03 85.9375 135.5 C87.2789 129.8186 86.2147 127.3581 84 122 C83.67 120.9688 83.67 120.9688 82 115.75 C80 110 80 110 77 105 C77 104.01 77 103.02 77 102 C76.34 102 75.68 102 75 102 C72.9375 98.3681 70.9453 94.696 69 91 C68.2162 89.7006 67.4325 88.4013 66.625 87.0625 C65 84 65 84 65 80 C64.34 79.67 64.34 79.67 61 78 C60.34 76.35 59.68 74.7 59 73 C57.35 71.35 55.7 69.7 54 68 C49 61.4444 49 61.4444 49 59 C47.68 58.34 46.36 57.68 45 57 C44.67 56.01 44.34 55.02 44 54 C43.34 54 42.68 54 42 54 C42 53.01 42 52.02 42 51 C41.01 50.67 40.02 50.34 39 50 C30.2322 39.9289 30.2322 39.9289 29 35 C27.68 34.67 26.36 34.34 25 34 C23.68 32.35 22.36 30.7 21 29 C19.68 27.68 18.36 26.36 17 25 C17 24.34 17 23.68 17 23 C15.68 22.34 14.36 21.68 13 21 C10 19 10 19 10 17 C8.68 16.34 7.36 15.68 6 15 C6 14.34 6 13.68 6 13 C4.68 12.34 3.36 11.68 2 11 C1.34 9.68 0.68 8.36 0 7 C-1.32 6.67 -2.64 6.34 -4 6 C-4 5.34 -4 4.68 -4 4 C-4.66 4 -5.32 4 -6 4 C-4.7059 -1.1765 -4.7059 -1.1765 0 0 Z " fill="#23201B" transform="translate(638,527)"/>
<path d="M0 0 C4 1 4 1 8 4 C8 4.66 8 5.32 8 6 C9.32 6.66 10.64 7.32 12 8 C12.7322 8.4744 12.7322 8.4744 16.4375 10.875 C27.0037 16.8111 36.9772 18.5142 49 19 C49.0537 22.479 49.0926 25.9582 49.125 29.4375 C49.1482 31.375 49.1714 33.3124 49.1953 35.3086 C49.1309 36.8568 49.0664 38.4049 49 40 C48.67 40.165 48.67 40.165 47 41 C46.7113 38.5662 46.4225 36.1325 46.125 33.625 C45 26 45 26 43 24 C42.67 30.27 42.34 36.54 42 43 C39 43 39 43 35.5625 38.5625 C32 34 32 34 28 33 C27.7319 34.5263 27.4638 36.0525 27.1875 37.625 C24.8075 48.3975 24.8075 48.3975 20 50 C19.67 44.39 19.34 38.78 19 33 C12.3095 34.6726 9.8655 40.5996 6 46 C2.1781 42.1781 5.8342 35.753 7 31 C7 29.68 7 28.36 7 27 C3 28 3 28 -2 33 C-3.65 33.99 -5.3 34.98 -7 36 C-5.8449 29.6472 -4.6982 26.5473 -1 21 C-0.67 19.68 -0.34 18.36 0 17 C-7 20 -7 20 -11 23 C-9.2796 14.398 -4.8274 7.2411 0 0 Z " fill="#E7D5C3" transform="translate(128,703)"/>
<path d="M0 0 C10.3648 0.1312 16.2392 2.8892 22.4375 11.3125 C26.0322 19.7959 26.1914 26.1189 24 35 C23.67 37.31 23.34 39.62 23 42 C19.9375 44.125 19.9375 44.125 16 46 C14.6181 46.8869 13.2363 47.7738 11.8125 48.6875 C8 51 8 51 4 52 C0.5379 48.5379 -0.353 43.5417 -2 39 C-2.99 37.35 -3.98 35.7 -5 34 C-5 28.4173 -0.1035 26.0776 4 23 C4.33 22.01 4.66 21.02 5 20 C9 17 9 17 11 17 C11 16.34 11 15.68 11 15 C3.0833 16.9792 -2.3991 21.7981 -6 29 C-11 24 -11 24 -11 21 C-11.66 21 -12.32 21 -13 21 C-15 14 -15 14 -12 8 C-11.34 8 -10.68 8 -10 8 C-9.67 7.01 -9.34 6.02 -9 5 C-7.68 4.67 -6.36 4.34 -5 4 C-5 3.34 -5 2.68 -5 2 C-3.35 2 -1.7 2 0 2 C0 1.34 0 0.68 0 0 Z " fill="#E0CCBD" transform="translate(593,361)"/>
<path d="M0 0 C0 0.66 0 1.32 0 2 C1.32 2.66 2.64 3.32 4 4 C7.9027 7.9027 9.3742 9.503 8 15 C5.711 18.6945 3.3808 22.3639 1 26 C-2 23 -2 23 -4 18 C-8 16 -8 16 -13 14 C-13.33 14.99 -13.66 15.98 -14 17 C-13.34 17 -12.68 17 -12 17 C-13 22 -13 22 -16 27 C-13 26 -13 26 -10 22 C-6 24 -6 24 -2 29 C-3.1315 34.6573 -5.3761 38.8803 -8 44 C-9.8304 48.5761 -10.5071 52.1527 -11 57 C-11.33 57 -11.66 57 -12 57 C-12 55.35 -12 53.7 -12 52 C-12.495 51.835 -12.495 51.835 -15 51 C-14.34 51 -13.68 51 -13 51 C-14.5941 46.2178 -18.6975 45.2946 -23 43 C-27 40 -27 40 -27 37 C-27.66 36.67 -28.32 36.34 -29 36 C-32.8563 23.5742 -32.7004 15.2689 -26 4 C-17.2551 -2.9959 -10.6139 -4.2456 0 0 Z " fill="#E2CEBD" transform="translate(274,364)"/>
<path d="M0 0 C4.9889 7.0895 8.2997 14.4984 10 23 C7 22 7 22 5 19 C3.35 18.67 1.7 18.34 0 18 C2 24 2 24 4.625 28.0625 C7 32 7 32 7 37 C1.5111 34.8044 -0.9118 32.1639 -5 28 C-5.99 27.67 -6.98 27.34 -8 27 C-8 32 -8 32 -6.5 35.9375 C-5 40 -5 40 -5 46 C-10.2226 43.3887 -11.7987 39.8019 -15 35 C-16.32 34.34 -17.64 33.68 -19 33 C-18.9794 35.0213 -18.9588 37.0425 -18.9375 39.125 C-19 46 -19 46 -20 52 C-20.66 52 -21.32 52 -22 52 C-22 51.34 -22 50.68 -22 50 C-22.66 50 -23.32 50 -24 50 C-26.3724 44.6858 -27.4838 39.7811 -28 34 C-32 34 -32 34 -34.625 37.875 C-35.4088 39.2363 -36.1925 40.5975 -37 42 C-39 44 -39 44 -42 44 C-42.33 37.4 -42.66 30.8 -43 24 C-43.66 24 -44.32 24 -45 24 C-45.66 27.96 -46.32 31.92 -47 36 C-47.66 36 -48.32 36 -49 36 C-48.67 31.05 -48.34 26.1 -48 21 C-46.4531 20.9175 -44.9062 20.835 -43.3125 20.75 C-20.5211 18.0421 -20.5211 18.0421 -17 11 C-15.35 10.67 -13.7 10.34 -12 10 C-12 9.34 -12 8.68 -12 8 C-7 5 -7 5 -5 5 C-4.34 3.68 -3.68 2.36 -3 1 C-2 0 -2 0 0 0 Z " fill="#EAD9C5" transform="translate(733,701)"/>
<path d="M0 0 C0.5156 0.4434 0.5156 0.4434 3.125 2.6875 C9.6487 8.2642 14.9375 12.0583 23 15 C23 14.34 23 13.68 23 13 C23.99 13.33 24.98 13.66 26 14 C25.34 14 24.68 14 24 14 C24 14.99 24 15.98 24 17 C25.98 17.66 27.96 18.32 30 19 C32.6811 20.6433 35.347 22.3117 38 24 C39.4644 24.4744 40.9288 24.9488 42.4375 25.4375 C48.3276 29.6743 47 35.2001 47 42 C47.66 42 48.32 42 49 42 C49.33 38.04 49.66 34.08 50 30 C58.625 32.75 58.625 32.75 62 35 C62.293 38.9141 62.293 38.9141 62.1875 43.625 C62.1604 45.1848 62.1334 46.7445 62.1055 48.3516 C62.0707 49.5555 62.0359 50.7595 62 52 C53.3751 49.6116 45.2782 46.3699 37 43 C36.01 42.67 35.02 42.34 34 42 C31.6972 36.8906 29.9466 31.8172 28.375 26.4375 C27 22 27 22 25 21 C26.875 32.375 26.875 32.375 28 38 C24.9696 36.7373 21.9686 35.4018 19 34 C19 33.34 19 32.68 19 32 C17.68 31.34 16.36 30.68 15 30 C6.0099 22.5366 0.2031 11.7775 0 0 Z " fill="#E7C67C" transform="translate(199,807)"/>
<path d="M0 0 C0.2154 2.7675 0.3709 5.5397 0.5 8.3125 C0.5928 9.8555 0.6856 11.3985 0.7812 12.9883 C0 17 0 17 -3.3867 18.8555 C-4.9091 19.2332 -6.4315 19.6109 -8 20 C-9.6461 20.495 -11.2923 20.99 -12.9883 21.5 C-18.3246 23.0034 -23.6622 24.502 -29 26 C-30.9388 26.5775 -32.8775 27.155 -34.875 27.75 C-41.55 29.3781 -48.1807 30.1551 -55 31 C-56.32 31.33 -57.64 31.66 -59 32 C-59.8125 24.625 -59.8125 24.625 -60 17 C-54.5547 14.8219 -49.2024 13.8973 -43.4492 12.8633 C-36.5558 11.5258 -29.7968 9.7599 -23 8 C-23 12.29 -23 16.58 -23 21 C-22.34 21 -21.68 21 -21 21 C-21.0412 18.7725 -21.0825 16.545 -21.125 14.25 C-20 7 -20 7 -15.375 4.3125 C-13.6013 3.8794 -11.8275 3.4462 -10 3 C-3 0 -3 0 0 0 Z " fill="#E9BD5F" transform="translate(599,842)"/>
<path d="M0 0 C0.165 0.33 0.165 0.33 1 2 C4.6815 1.4209 8.3505 0.7551 12 0 C12.5 7.375 12.5 7.375 12 15 C8.875 16.75 8.875 16.75 4 17 C2.9688 17.2275 2.9688 17.2275 -2.25 18.3789 C-10.4426 20.0926 -18.566 21.1918 -26.875 22.1875 C-28.2968 22.3596 -28.2968 22.3596 -35.4922 23.2305 C-36.566 23.3574 -36.566 23.3574 -42 24 C-42 18.72 -42 13.44 -42 8 C-28.002 6.3162 -14.0032 4.64 0 3 C0 2.01 0 1.02 0 0 Z " fill="#EBBF60" transform="translate(524,860)"/>
<path d="M0 0 C7.7722 0.5473 15.29 1.7538 22.9453 3.1797 C31.2638 4.5297 39.6481 5.3139 48.0312 6.1562 C49.6709 6.4347 51.3106 6.7131 53 7 C54.7393 12.218 53.4815 17.5961 53 23 C37.75 22.25 37.75 22.25 31 20 C27.9657 19.476 24.9228 19.0011 21.875 18.5625 C21.0403 18.4271 21.0403 18.4271 16.8164 17.7422 C12.8288 17.1277 8.8217 16.6407 4.8125 16.1875 C0 14 0 14 -0.75 6.8125 C-0.6263 5.6884 -0.6263 5.6884 0 0 Z " fill="#EBBE5F" transform="translate(326,861)"/>
<path d="M0 0 C0.99 0.33 1.98 0.66 3 1 C3.0412 1.6084 3.0412 1.6084 3.25 4.6875 C4.8384 15.9385 10.6143 24.5927 19 32 C19.99 32.99 20.98 33.98 22 35 C24.31 35.99 26.62 36.98 29 38 C28.67 36.6594 28.34 35.3188 28 33.9375 C27 29 27 29 27 22 C31.5658 23.5219 31.3189 26.3452 32.625 30.8125 C32.8377 31.5273 32.8377 31.5273 33.9141 35.1445 C34.6486 37.7523 35.3429 40.3717 36 43 C38.987 43.7227 41.9908 44.3761 45 45 C48.6823 46.6319 52.3491 48.299 56 50 C60.2486 51.562 64.4683 52.8671 68.8594 53.9648 C79.9091 56.7273 79.9091 56.7273 81 60 C80.34 60 79.68 60 79 60 C79.33 60.99 79.66 61.98 80 63 C68.4709 61.353 57.733 57.4605 47 53 C44.8137 52.175 42.6275 51.35 40.375 50.5 C32.8537 47.5505 25.9677 44.0645 19 40 C19.33 42.31 19.66 44.62 20 47 C19.34 47 18.68 47 18 47 C17.67 48.32 17.34 49.64 17 51 C16.9175 49.9172 16.9175 49.9172 16.5 44.4375 C14.87 36.3553 13.5053 34.6166 7 30 C7 29.34 7 28.68 7 28 C6.01 27.67 5.02 27.34 4 27 C-0.2243 18.4272 -3.1682 9.5046 0 0 Z " fill="#372D1C" transform="translate(197,806)"/>
<path d="M0 0 C14.19 0 28.38 0 43 0 C43 5.28 43 10.56 43 16 C42.4154 16.0303 42.4154 16.0303 39.457 16.1836 C38.6907 16.2255 38.6907 16.2255 34.8125 16.4375 C33.2927 16.5187 31.7729 16.5999 30.207 16.6836 C26 17 26 17 21 18 C18.69 17.67 16.38 17.34 14 17 C9.3335 16.9608 4.6665 16.9556 0 17 C0 11.39 0 5.78 0 0 Z " fill="#ECC060" transform="translate(409,870)"/>
<path d="M0 0 C-6.625 7 -6.625 7 -10 7 C-10.66 8.65 -11.32 10.3 -12 12 C-12.5156 12.5775 -12.5156 12.5775 -15.125 15.5 C-20.7685 22.0537 -25.127 29.254 -29 37 C-28.34 37 -27.68 37 -27 37 C-26.34 35.68 -25.68 34.36 -25 33 C-22 29 -22 29 -20 29 C-20 28.34 -20 27.68 -20 27 C-18.02 26.34 -16.04 25.68 -14 25 C-17 30 -17 30 -19 30 C-19.33 31.32 -19.66 32.64 -20 34 C-20.66 34.825 -20.66 34.825 -24 39 C-33.6129 55.927 -39.2536 74.7338 -35 94 C-34.9259 97.3325 -34.9048 100.668 -35 104 C-35.66 104 -36.32 104 -37 104 C-37 104.66 -37 105.32 -37 106 C-38.98 106 -40.96 106 -43 106 C-43 105.67 -43 105.34 -43 105 C-41.35 105 -39.7 105 -38 105 C-38.6415 102.1865 -39.2883 99.3742 -39.9375 96.5625 C-40.2971 94.9963 -40.6568 93.4301 -41.0273 91.8164 C-42 88 -42 88 -43 87 C-43.4177 73.8426 -42.2288 64.2004 -37 52 C-36.67 50.68 -36.34 49.36 -36 48 C-35.34 48 -34.68 48 -34 48 C-34.0412 46.3706 -34.0825 44.7412 -34.125 43.0625 C-34.0133 37.6469 -33.5826 33.1643 -32 28 C-31.01 27.67 -30.02 27.34 -29 27 C-29 25.35 -29 23.7 -29 22 C-27.35 20.35 -25.7 18.7 -24 17 C-22.9688 15.7419 -21.9375 14.4837 -20.875 13.1875 C-5.9286 -2.9643 -5.9286 -2.9643 0 0 Z " fill="#3A3838" transform="translate(303,251)"/>
<path d="M0 0 C0 13.5691 -5.2266 25.4831 -10 38 C-10.33 39.32 -10.66 40.64 -11 42 C-11.66 42 -12.32 42 -13 42 C-13.33 44.31 -13.66 46.62 -14 49 C-15.2783 51.6935 -16.6209 54.3567 -18 57 C-19.6758 60.9962 -21.342 64.9964 -23 69 C-24.591 72.7001 -26.237 76.3787 -28 80 C-28.66 80 -29.32 80 -30 80 C-30.33 81.65 -30.66 83.3 -31 85 C-32.6875 88.25 -32.6875 88.25 -35 92 C-35.9694 93.65 -36.9388 95.3 -37.9375 97 C-38.9481 98.32 -39.9588 99.64 -41 101 C-42.65 100.67 -44.3 100.34 -46 100 C-46 98.68 -46 97.36 -46 96 C-45.34 96 -44.68 96 -44 96 C-43.34 93.69 -42.68 91.38 -42 89 C-41.01 87.35 -40.02 85.7 -39 84 C-35.2526 76.3721 -31.6414 68.679 -28 61 C-27.291 59.5318 -26.582 58.0635 -25.8516 56.5508 C-20.9799 46.3999 -16.6285 36.0641 -12.3359 25.6562 C-10.4238 21.0261 -8.4814 16.4132 -6.5 11.8125 C-4.9575 8.2263 -3.4499 4.6246 -2 1 C-1 0 -1 0 0 0 Z " fill="#212020" transform="translate(648,851)"/>
<path d="M0 0 C0.7734 0.2166 0.7734 0.2166 4.6875 1.3125 C11.098 3.0262 17.5284 4.5347 24 6 C28.3333 7 32.6667 8 37 9 C36.67 13.95 36.34 18.9 36 24 C34.7445 23.795 33.4889 23.5901 32.1953 23.3789 C17.9154 21.0796 17.9154 21.0796 11.25 20.5 C7 20 7 20 0 17 C-1.8266 11.5201 -0.4687 5.6769 0 0 Z " fill="#EABE5D" transform="translate(286,850)"/>
<path d="M0 0 C7.9034 1.4975 15.8858 2.2275 23.9375 2.125 C24.2675 1.465 24.5975 0.805 24.9375 0.125 C26.2575 0.455 27.5775 0.785 28.9375 1.125 C32.6072 0.8275 36.2733 0.4842 39.9375 0.125 C45.9355 -0.2471 51.936 -0.5647 57.9375 -0.875 C53.9375 2.125 53.9375 2.125 47.375 5.3125 C38.2891 9.7845 30.7025 15.6542 22.9375 22.125 C22.2775 20.805 21.6175 19.485 20.9375 18.125 C16.9375 16.125 16.9375 16.125 13.9375 15.125 C13.9375 14.135 13.9375 13.145 13.9375 12.125 C12.2875 11.465 10.6375 10.805 8.9375 10.125 C6.1547 8.8167 3.3847 7.4812 0.625 6.125 C-0.8149 5.4238 -2.2548 4.7225 -3.7383 4 C-4.2868 3.6906 -4.2868 3.6906 -7.0625 2.125 C-7.0625 1.465 -7.0625 0.805 -7.0625 0.125 C-4.0625 -0.875 -4.0625 -0.875 0 0 Z " fill="#D7C5B1" transform="translate(407.0625,530.875)"/>
<path d="M0 0 C-1 6 -1 6 -4 9 C-4.33 11.31 -4.66 13.62 -5 16 C-9.2215 26.6107 -9.2215 26.6107 -14 29 C-15.32 29 -16.64 29 -18 29 C-18 29.66 -18 30.32 -18 31 C-21.3021 32.4089 -24.6401 33.7351 -28 35 C-29.65 35.66 -31.3 36.32 -33 37 C-34.32 37 -35.64 37 -37 37 C-37.6321 31.2091 -38.0107 25.7585 -37 20 C-29.4561 15 -29.4561 15 -24 15 C-24.33 19.29 -24.66 23.58 -25 28 C-24.34 28 -23.68 28 -23 28 C-22.8969 25.6487 -22.7938 23.2975 -22.6875 20.875 C-21.816 13.9356 -21.5858 13.4194 -15.5 9.0625 C-10 7 -10 7 -8 7 C-7.67 5.35 -7.34 3.7 -7 2 C-3 0 -3 0 0 0 Z " fill="#E1B760" transform="translate(638,821)"/>
<path d="M0 0 C0.66 0.33 1.32 0.66 2 1 C0 7 0 7 -1.9375 10.8203 C-12.7597 32.7516 -15 56.9505 -15 81 C-18 81 -18 81 -20 79 C-20.7068 74.7868 -21.1071 70.5693 -21.5469 66.3203 C-21.8782 63.1611 -22.3151 60.0124 -22.8125 56.875 C-23.4405 40.547 -16.6751 18.6751 -5 7 C-4.67 6.01 -4.34 5.02 -4 4 C-3.34 4 -2.68 4 -2 4 C-1.34 2.68 -0.68 1.36 0 0 Z " fill="#E1DED8" transform="translate(288,277)"/>
<path d="M0 0 C0.66 0.33 1.32 0.66 2 1 C2 2.65 2 4.3 2 6 C1.34 6 0.68 6 0 6 C0.495 7.1756 0.99 8.3513 1.5 9.5625 C3.6366 15.8832 4.0866 19.5512 0 25 C-0.99 25 -1.98 25 -3 25 C-3 26.98 -3 28.96 -3 31 C-4.32 31 -5.64 31 -7 31 C-7 31.66 -7 32.32 -7 33 C-17.3817 40.2061 -17.3817 40.2061 -21 39 C-26 28.8837 -26 28.8837 -26 26 C-16.88 20 -16.88 20 -12 20 C-10.584 22.6237 -9.2494 25.293 -8 28 C-7.34 28.33 -6.68 28.66 -6 29 C-6.66 27.4325 -7.32 25.865 -8 24.25 C-11.8314 14.1926 -7.2679 11.1569 -1 3 C-0.67 2.01 -0.34 1.02 0 0 Z " fill="#DCBA71" transform="translate(728,670)"/>
<path d="M0 0 C4 5 4 5 5 8 C5.66 8 6.32 8 7 8 C9 11 9 11 8 15 C7.34 15.66 6.68 16.32 6 17 C4.6974 24.6974 4.6974 24.6974 6 26 C6.6394 24.3913 7.2788 22.7825 7.9375 21.125 C10 16 10 16 11 14 C15.4283 16.2141 19.7583 18.4425 24 21 C24 24 24 24 22.0625 27.375 C20 31 20 31 19 36 C17.35 35.67 15.7 35.34 14 35 C14 34.34 14 33.68 14 33 C12.35 32.67 10.7 32.34 9 32 C1.2115 26.8458 1.2115 26.8458 0 22 C-0.66 22 -1.32 22 -2 22 C-6.2321 13.5357 -5.5163 8.9378 -1 1 C-0.67 0.67 -0.34 0.34 0 0 Z " fill="#DEBF77" transform="translate(135,675)"/>
<path d="M0 0 C0.99 0 1.98 0 3 0 C2.7525 2.145 2.505 4.29 2.25 6.5 C2.0107 13.68 2.3525 16.1419 6 22 C6 22.99 6 23.98 6 25 C1 24 1 24 -1.5 20.375 C-2.325 19.2613 -3.15 18.1475 -4 17 C-5.65 17.33 -7.3 17.66 -9 18 C-9 18.66 -9 19.32 -9 20 C-19.5756 23.0216 -25.9784 22.454 -36 18 C-38 18 -38 18 -42 23 C-43.65 23.33 -45.3 23.66 -47 24 C-46.5256 22.7625 -46.0512 21.525 -45.5625 20.25 C-44 15 -44 15 -43.5 8.5 C-43.335 6.685 -43.17 4.87 -43 3 C-42.01 2.67 -41.02 2.34 -40 2 C-39.7113 3.4231 -39.4225 4.8462 -39.125 6.3125 C-36.2534 12.6468 -33.6074 12.6948 -27 14 C-25.68 14.33 -24.36 14.66 -23 15 C-15.3192 15 -11.61 14.6135 -5 11 C-3 6.25 -3 6.25 -2 2 C-1.34 2 -0.68 2 0 2 C0 1.34 0 0.68 0 0 Z " fill="#2D261F" transform="translate(450,418)"/>
<path d="M0 0 C0 7.1422 -2.1218 11.5073 -5 18 C-5.99 20.31 -6.98 22.62 -8 25 C-8.66 25 -9.32 25 -10 25 C-10.66 26.32 -11.32 27.64 -12 29 C-16 32 -16 32 -18 32 C-18 32.66 -18 33.32 -18 34 C-25.381 39 -25.381 39 -28 39 C-27.67 37.35 -27.34 35.7 -27 34 C-27.0206 31.4837 -27.0412 28.9675 -27.0625 26.375 C-27 19 -27 19 -25 16 C-25.66 15.67 -26.32 15.34 -27 15 C-25.35 14.67 -23.7 14.34 -22 14 C-22 14.66 -22 15.32 -22 16 C-15.1892 13.607 -10.855 11.3405 -6 6 C-5.34 6 -4.68 6 -4 6 C-3.34 4.35 -2.68 2.7 -2 1 C-1 0 -1 0 0 0 Z " fill="#E4CE99" transform="translate(663,805)"/>
<path d="M0 0 C4.5763 6.1018 4.5726 10.392 4 18 C1.5 22.6875 1.5 22.6875 -2 26 C-10 26 -10 26 -13 22 C-15.1694 13.3222 -14.9798 7.4697 -10 0 C-6.5946 -1.7027 -3.6225 -0.7245 0 0 Z " fill="#251F19" transform="translate(380,373)"/>
<path d="M0 0 C0 0.66 0 1.32 0 2 C0.66 2 1.32 2 2 2 C2.33 3.65 2.66 5.3 3 7 C3.66 7 4.32 7 5 7 C5.625 21.375 5.625 21.375 0 27 C-6 27 -6 27 -11 22 C-13.5084 14.4748 -12.4567 7.9133 -9 1 C-6 -1 -6 -1 0 0 Z " fill="#201C16" transform="translate(484,372)"/>
<path d="M0 0 C-0.33 0.99 -0.66 1.98 -1 3 C-1.1031 5.0213 -1.2063 7.0425 -1.3125 9.125 C-1.5394 11.0638 -1.7663 13.0025 -2 15 C-10.0189 17.0047 -17.7503 17.0937 -26 17 C-26 11.72 -26 6.44 -26 1 C-17.2997 0.1512 -8.7401 -0.0874 0 0 Z " fill="#EBBE61" transform="translate(481,869)"/>
<path d="M0 0 C8.25 0.33 16.5 0.66 25 1 C25 6.28 25 11.56 25 17 C22.1248 16.8583 19.2498 16.7115 16.375 16.5625 C14.774 16.4813 13.173 16.4001 11.5234 16.3164 C7 16 7 16 1 15 C0.125 7.4375 0.125 7.4375 0 0 Z " fill="#E8BD61" transform="translate(381,869)"/>
<path d="M0 0 C6.857 1.1428 12.6307 3.2335 19 6 C20.3713 11.4852 19.5469 16.4096 19 22 C16.2076 21.3572 13.4161 20.7107 10.625 20.0625 C9.0704 19.7029 7.5158 19.3432 5.9141 18.9727 C2 18 2 18 0 17 C-0.1459 14.1493 -0.1673 11.2917 -0.125 8.4375 C-0.116 7.6531 -0.116 7.6531 -0.0703 3.6836 C-0.0471 2.468 -0.0239 1.2524 0 0 Z " fill="#EABE60" transform="translate(263,843)"/>
<path d="M0 0 C5.3782 5.3782 4.3315 12.7907 4 20 C0.4 26 0.4 26 -6 26 C-7.65 24.35 -9.3 22.7 -11 21 C-11.66 21 -12.32 21 -13 21 C-14.3454 23.9946 -15.6778 26.9951 -17 30 C-20 33 -20 33 -25 32 C-24 28 -24 28 -20 25 C-17 18 -17 18 -16.5 13.625 C-16.335 12.4288 -16.17 11.2325 -16 10 C-15.01 9.67 -14.02 9.34 -13 9 C-8 14 -8 14 -3 20 C-2.67 20 -2.34 20 -2 20 C-1.9394 18.64 -1.8788 17.2801 -1.8164 15.8789 C-1.7326 14.1245 -1.6488 12.3701 -1.5625 10.5625 C-1.4813 8.8107 -1.4001 7.0588 -1.3164 5.2539 C-1 1 -1 1 0 0 Z " fill="#252421" transform="translate(171,726)"/>
<path d="M0 0 C1.9821 5.0316 3.1086 9.6515 4 15 C-2.5738 18.1183 -8.7663 19.5257 -16 20 C-16.9159 14.5048 -17.075 9.5494 -17 4 C-15.845 3.835 -15.845 3.835 -10 3 C-3 0 -3 0 0 0 Z " fill="#D4AD58" transform="translate(700,698)"/>
<path d="M0 0 C1 5 1 5 -4 11 C-4.66 12.32 -5.32 13.64 -6 15 C-6.66 15.33 -6.66 15.33 -10 17 C-10.7837 18.3612 -11.5675 19.7225 -12.375 21.125 C-15 25 -15 25 -21 25 C-22 24 -22 24 -22 17 C-13.9683 3.4921 -13.9683 3.4921 -8 2 C-8 1.34 -8 0.68 -8 0 C-5 -1 -5 -1 0 0 Z " fill="#DFD3BF" transform="translate(332,249)"/>
<path d="M0 0 C6.3627 0.4545 11.8616 2.2462 18 4 C17.34 9.28 16.68 14.56 16 20 C9 19 9 19 7 17 C7.99 14.69 8.98 12.38 10 10 C10.33 8.68 10.66 7.36 11 6 C8 9 8 9 6.6875 13.25 C6.1306 14.4875 5.5737 15.725 5 17 C-1 16 -1 16 -4 14 C-2.2973 3.7838 -2.2973 3.7838 0 0 Z " fill="#E6BD64" transform="translate(161,699)"/>
</svg>
